<svg xmlns="http://www.w3.org/2000/svg" xmlns:xlink="http://www.w3.org/1999/xlink" width="1360" height="367" viewBox="0 0 1360 367">
    <defs>
        <filter id="3sld1yyf5a" width="347.2%" height="347.2%" x="-123.6%" y="-84.7%" filterUnits="objectBoundingBox">
            <feOffset dy="28" in="SourceAlpha" result="shadowOffsetOuter1"/>
            <feGaussianBlur in="shadowOffsetOuter1" result="shadowBlurOuter1" stdDeviation="25"/>
            <feColorMatrix in="shadowBlurOuter1" values="0 0 0 0 0.861988246 0 0 0 0 0.867275059 0 0 0 0 0.882519782 0 0 0 0.451048951 0"/>
        </filter>
        <filter id="xuyi0jyz6c" width="220%" height="220%" x="-60%" y="-37.5%" filterUnits="objectBoundingBox">
            <feOffset dy="9" in="SourceAlpha" result="shadowOffsetOuter1"/>
            <feGaussianBlur in="shadowOffsetOuter1" result="shadowBlurOuter1" stdDeviation="6.5"/>
            <feColorMatrix in="shadowBlurOuter1" values="0 0 0 0 0.861988246 0 0 0 0 0.867275059 0 0 0 0 0.882519782 0 0 0 0.175152972 0"/>
        </filter>
        <filter id="g59gzol2de" width="176.9%" height="454.2%" x="-38.5%" y="-135.4%" filterUnits="objectBoundingBox">
            <feOffset dy="20" in="SourceAlpha" result="shadowOffsetOuter1"/>
            <feGaussianBlur in="shadowOffsetOuter1" result="shadowBlurOuter1" stdDeviation="25"/>
            <feColorMatrix in="shadowBlurOuter1" values="0 0 0 0 0.264307777 0 0 0 0 0.22954493 0 0 0 0 0.446812726 0 0 0 0.212494537 0"/>
        </filter>
        <filter id="wlrer92myg" width="207.3%" height="218.5%" x="-53.7%" y="-59.2%" filterUnits="objectBoundingBox">
            <feGaussianBlur in="SourceGraphic" stdDeviation="30.8"/>
        </filter>
        <filter id="aq84rq74th" width="189.3%" height="189.3%" x="-44.6%" y="-30.4%" filterUnits="objectBoundingBox">
            <feOffset dy="20" in="SourceAlpha" result="shadowOffsetOuter1"/>
            <feGaussianBlur in="shadowOffsetOuter1" result="shadowBlurOuter1" stdDeviation="17.5"/>
            <feColorMatrix in="shadowBlurOuter1" values="0 0 0 0 0.861988246 0 0 0 0 0.867275059 0 0 0 0 0.882519782 0 0 0 0.451048951 0"/>
        </filter>
        <filter id="r89uhl8ivj" width="256.2%" height="256.2%" x="-78.1%" y="-53.1%" filterUnits="objectBoundingBox">
            <feOffset dy="20" in="SourceAlpha" result="shadowOffsetOuter1"/>
            <feGaussianBlur in="shadowOffsetOuter1" result="shadowBlurOuter1" stdDeviation="17.5"/>
            <feColorMatrix in="shadowBlurOuter1" values="0 0 0 0 0.625247374 0 0 0 0 0.663456937 0 0 0 0 0.773635643 0 0 0 0.247131774 0"/>
        </filter>
        <filter id="w0ogp4m99l" width="209%" height="454.2%" x="-54.5%" y="-135.4%" filterUnits="objectBoundingBox">
            <feOffset dy="20" in="SourceAlpha" result="shadowOffsetOuter1"/>
            <feGaussianBlur in="shadowOffsetOuter1" result="shadowBlurOuter1" stdDeviation="25"/>
            <feColorMatrix in="shadowBlurOuter1" values="0 0 0 0 0.264307777 0 0 0 0 0.22954493 0 0 0 0 0.446812726 0 0 0 0.212494537 0"/>
        </filter>
        <path id="t7evf76cob" d="M16 0h40c8.837 0 16 7.163 16 16v40c0 8.837-7.163 16-16 16H16C7.163 72 0 64.837 0 56V16C0 7.163 7.163 0 16 0z"/>
        <path id="qf4yawf62f" d="M8 0h205c4.418 0 8 3.582 8 8v32c0 4.418-3.582 8-8 8H8c-4.418 0-8-3.582-8-8V8c0-4.418 3.582-8 8-8z"/>
        <path id="gd9gbelxzi" d="M43.4 0h53.2C120.57 0 140 19.43 140 43.4v53.2c0 23.97-19.43 43.4-43.4 43.4H43.4C19.43 140 0 120.57 0 96.6V43.4C0 19.43 19.43 0 43.4 0z"/>
        <path id="u2j58qcxak" d="M56.6 30h26.8C98.09 30 110 41.91 110 56.6v26.8c0 14.69-11.91 26.6-26.6 26.6H56.6C41.91 110 30 98.09 30 83.4V56.6C30 41.91 41.91 30 56.6 30z"/>
        <path id="ja90jza2vm" d="M8 0h140c4.418 0 8 3.582 8 8v32c0 4.418-3.582 8-8 8H8c-4.418 0-8-3.582-8-8V8c0-4.418 3.582-8 8-8z"/>
        <rect id="7d2nh2xjld" width="40" height="40" x="0" y="0" rx="8"/>
    </defs>
    <g fill="none" fill-rule="evenodd">
        <g>
            <g>
                <g>
                    <path fill="#E7E9EF" fill-rule="nonzero" d="M778.304 229.392L778.304 212.208 795.392 212.208 795.392 203.088 778.304 203.088 778.304 186 769.184 186 769.184 203.088 752 203.088 752 212.208 769.184 212.208 769.184 229.392zM765.152 91.696L765.152 83.104 773.696 83.104 773.696 78.544 765.152 78.544 765.152 70 760.592 70 760.592 78.544 752 78.544 752 83.104 760.592 83.104 760.592 91.696zM501.152 161.696L501.152 153.104 509.696 153.104 509.696 148.544 501.152 148.544 501.152 140 496.592 140 496.592 148.544 488 148.544 488 153.104 496.592 153.104 496.592 161.696z" transform="translate(-278 -286) translate(278 -699) translate(0 1007)"/>
                    <g>
                        <g>
                            <path fill="#F5F5F7" d="M8 0h173c4.418 0 8 3.582 8 8v32c0 4.418-3.582 8-8 8H8c-4.418 0-8-3.582-8-8V8c0-4.418 3.582-8 8-8z" transform="translate(-278 -286) translate(278 -699) translate(0 1007) translate(269 134)"/>
                            <path fill="#7663DA" fill-rule="nonzero" d="M25.764 30l1.152-3.492h4.842L32.946 30h1.566l-4.248-12.6H28.5L24.288 30h1.476zm5.58-4.788h-3.96l1.89-5.922h.216l1.854 5.922zm8.226 5.004c.732 0 1.356-.162 1.872-.486.516-.324.93-.744 1.242-1.26h.072L42.81 30h2.394v-1.17h-1.206c-.072-.54-.108-1.104-.108-1.692V21h-2.556v1.206h1.152v4.662c-.24.612-.591 1.122-1.053 1.53-.462.408-1.005.612-1.629.612-.432 0-.777-.069-1.035-.207-.258-.138-.453-.342-.585-.612-.132-.27-.219-.6-.261-.99-.042-.39-.063-.831-.063-1.323V21h-2.61v1.206h1.206v3.96c0 .78.06 1.431.18 1.953s.306.939.558 1.251c.252.312.573.531.963.657s.861.189 1.413.189zm10.998 0c.684 0 1.287-.153 1.809-.459.522-.306.915-.687 1.179-1.143h.072l.18 1.386h2.394v-1.17h-1.206c-.024-.132-.048-.285-.072-.459-.024-.174-.045-.351-.063-.531-.018-.18-.033-.351-.045-.513-.012-.162-.018-.297-.018-.405V17.4h-2.916v1.206h1.512v2.556c-.18-.048-.345-.093-.495-.135-.15-.042-.309-.075-.477-.099-.168-.024-.351-.042-.549-.054-.198-.012-.423-.018-.675-.018-.696 0-1.326.102-1.89.306-.564.204-1.047.501-1.449.891-.402.39-.711.876-.927 1.458-.216.582-.324 1.251-.324 2.007 0 1.608.321 2.793.963 3.555.642.762 1.641 1.143 2.997 1.143zm.234-1.206c-.504 0-.93-.09-1.278-.27-.348-.18-.627-.426-.837-.738-.21-.312-.36-.681-.45-1.107-.09-.426-.135-.885-.135-1.377 0-1.2.276-2.079.828-2.637.552-.558 1.308-.837 2.268-.837.54 0 .975.042 1.305.126.33.084.627.216.891.396v4.176c-.156.756-.444 1.323-.864 1.701-.42.378-.996.567-1.728.567zm11.286-9.45c.348 0 .639-.108.873-.324.234-.216.351-.48.351-.792 0-.324-.117-.603-.351-.837-.234-.234-.525-.351-.873-.351-.336 0-.612.117-.828.351-.216.234-.324.513-.324.837 0 .312.108.576.324.792.216.216.492.324.828.324zM65.922 30v-1.206h-3.06V21H58.29v1.206h3.132v6.588H58.29V30h7.632zm7.524.234c.612 0 1.209-.102 1.791-.306.582-.204 1.083-.474 1.503-.81l-.468-1.062c-.324.24-.687.462-1.089.666-.402.204-.873.306-1.413.306-.792 0-1.401-.21-1.827-.63-.426-.42-.639-1.068-.639-1.944v-4.248h4.806V21h-4.806v-2.178l-1.404.396V21h-2.142v1.206H69.9v4.464c0 .624.096 1.161.288 1.611.192.45.45.819.774 1.107.324.288.699.501 1.125.639.426.138.879.207 1.359.207zM92.094 30v-5.544h2.25L97.314 30h1.746l-3.33-5.976c.18-.072.396-.192.648-.36.252-.168.495-.387.729-.657.234-.27.432-.594.594-.972.162-.378.243-.813.243-1.305 0-.636-.114-1.176-.342-1.62-.228-.444-.531-.804-.909-1.08s-.816-.474-1.314-.594c-.498-.12-1.023-.18-1.575-.18-.492 0-1.035.024-1.629.072-.594.048-1.119.114-1.575.198V30h1.494zm1.404-6.696h-1.404V18.66c.084-.024.195-.042.333-.054l.441-.036c.156-.012.318-.018.486-.018h.486c.792 0 1.41.21 1.854.63.444.42.666.954.666 1.602 0 .864-.27 1.5-.81 1.908-.54.408-1.224.612-2.052.612zm11.664 6.912c.384 0 .765-.033 1.143-.099s.741-.159 1.089-.279c.348-.12.669-.264.963-.432.294-.168.549-.348.765-.54l-.558-1.026c-.12.108-.291.228-.513.36-.222.132-.477.252-.765.36-.288.108-.591.201-.909.279-.318.078-.639.117-.963.117-.972 0-1.749-.267-2.331-.801-.582-.534-.873-1.341-.873-2.421h6.966c.06-1.02-.012-1.851-.216-2.493-.204-.642-.495-1.146-.873-1.512-.378-.366-.813-.615-1.305-.747s-.99-.198-1.494-.198c-.696 0-1.326.105-1.89.315-.564.21-1.044.513-1.44.909-.396.396-.699.888-.909 1.476-.21.588-.315 1.26-.315 2.016 0 .72.096 1.368.288 1.944.192.576.474 1.071.846 1.485.372.414.834.732 1.386.954.552.222 1.188.333 1.908.333zm2.7-5.742h-5.598c.048-.468.159-.861.333-1.179.174-.318.396-.576.666-.774.27-.198.582-.339.936-.423.354-.084.729-.126 1.125-.126.732 0 1.323.219 1.773.657.45.438.705 1.053.765 1.845zm5.652 9.126v-3.78c.18.072.348.132.504.18.156.048.315.087.477.117.162.03.342.054.54.072.198.018.423.027.675.027.696 0 1.332-.114 1.908-.342.576-.228 1.068-.552 1.476-.972.408-.42.723-.933.945-1.539.222-.606.333-1.287.333-2.043 0-1.608-.324-2.766-.972-3.474-.648-.708-1.614-1.062-2.898-1.062-.72 0-1.329.141-1.827.423-.498.282-.909.633-1.233 1.053h-.09l-.18-1.26h-2.394v1.17h1.206c.024.132.045.288.063.468.018.18.033.363.045.549.012.186.021.366.027.54.006.174.009.315.009.423v9.45h1.386zm2.196-4.59c-.54 0-.975-.051-1.305-.153-.33-.102-.627-.243-.891-.423V24.33c.036-.264.132-.528.288-.792.156-.264.357-.504.603-.72.246-.216.528-.39.846-.522.318-.132.657-.198 1.017-.198.936 0 1.605.279 2.007.837.402.558.603 1.347.603 2.367 0 1.212-.288 2.133-.864 2.763-.576.63-1.344.945-2.304.945zm10.89 1.206c.696 0 1.317-.111 1.863-.333.546-.222 1.005-.537 1.377-.945.372-.408.654-.903.846-1.485.192-.582.288-1.233.288-1.953 0-.66-.087-1.278-.261-1.854-.174-.576-.441-1.074-.801-1.494-.36-.42-.813-.753-1.359-.999s-1.197-.369-1.953-.369c-1.404 0-2.484.423-3.24 1.269-.756.846-1.134 1.995-1.134 3.447 0 .66.087 1.278.261 1.854.174.576.441 1.074.801 1.494.36.42.816.753 1.368.999.552.246 1.2.369 1.944.369zm0-1.206c-.528 0-.975-.102-1.341-.306-.366-.204-.663-.474-.891-.81-.228-.336-.393-.714-.495-1.134-.102-.42-.153-.84-.153-1.26 0-1.164.24-2.04.72-2.628.48-.588 1.2-.882 2.16-.882.528 0 .975.102 1.341.306.366.204.666.474.9.81.234.336.402.711.504 1.125.102.414.153.837.153 1.269 0 1.152-.243 2.025-.729 2.619-.486.594-1.209.891-2.169.891zm13.86.99v-1.206h-3.456v-5.31c.072-.108.186-.24.342-.396.156-.156.345-.312.567-.468.222-.156.483-.288.783-.396.3-.108.636-.162 1.008-.162.396 0 .669.18.819.54.15.36.225.924.225 1.692l1.26-.018c0-.54-.024-1.023-.072-1.449-.048-.426-.141-.789-.279-1.089-.138-.3-.33-.528-.576-.684-.246-.156-.573-.234-.981-.234-.696 0-1.296.132-1.8.396s-.96.582-1.368.954h-.09l-.288-1.17h-3.366v1.206h2.43v6.588h-2.43V30h7.272zm8.586.234c.612 0 1.209-.102 1.791-.306.582-.204 1.083-.474 1.503-.81l-.468-1.062c-.324.24-.687.462-1.089.666-.402.204-.873.306-1.413.306-.792 0-1.401-.21-1.827-.63-.426-.42-.639-1.068-.639-1.944v-4.248h4.806V21h-4.806v-2.178l-1.404.396V21h-2.142v1.206h2.142v4.464c0 .624.096 1.161.288 1.611.192.45.45.819.774 1.107.324.288.699.501 1.125.639.426.138.879.207 1.359.207zm9.918-.018c1.308 0 2.289-.27 2.943-.81.654-.54.981-1.224.981-2.052 0-.552-.15-.99-.45-1.314-.3-.324-.672-.582-1.116-.774-.444-.192-.927-.339-1.449-.441-.522-.102-1.005-.21-1.449-.324-.444-.114-.816-.255-1.116-.423-.3-.168-.45-.408-.45-.72 0-.252.063-.465.189-.639s.294-.315.504-.423c.21-.108.444-.189.702-.243.258-.054.519-.081.783-.081.696 0 1.275.099 1.737.297.462.198.891.405 1.287.621l.576-1.134c-.36-.228-.843-.447-1.449-.657-.606-.21-1.329-.315-2.169-.315-.468 0-.918.051-1.35.153-.432.102-.81.258-1.134.468-.324.21-.585.477-.783.801-.198.324-.297.714-.297 1.17 0 .552.15.981.45 1.287.3.306.672.549 1.116.729.444.18.927.324 1.449.432.522.108 1.005.225 1.449.351.444.126.816.294 1.116.504.3.21.45.507.45.891 0 .264-.063.489-.189.675-.126.186-.297.336-.513.45-.216.114-.465.198-.747.252-.282.054-.585.081-.909.081-.336 0-.669-.036-.999-.108-.33-.072-.639-.168-.927-.288-.288-.12-.552-.255-.792-.405-.24-.15-.432-.297-.576-.441l-.72 1.17c.18.156.408.309.684.459.276.15.582.285.918.405.336.12.696.216 1.08.288.384.072.774.108 1.17.108z" transform="translate(-278 -286) translate(278 -699) translate(0 1007) translate(269 134)"/>
                        </g>
                        <g>
                            <path fill="#F5F5F7" d="M8 0h65c4.418 0 8 3.582 8 8v32c0 4.418-3.582 8-8 8H8c-4.418 0-8-3.582-8-8V8c0-4.418 3.582-8 8-8z" transform="translate(-278 -286) translate(278 -699) translate(0 1007) translate(904 36)"/>
                            <path fill="#7663DA" fill-rule="nonzero" d="M29.328 30.216c.672 0 1.275-.084 1.809-.252.534-.168.984-.408 1.35-.72.366-.312.648-.684.846-1.116.198-.432.297-.918.297-1.458 0-.66-.165-1.212-.495-1.656-.33-.444-.741-.825-1.233-1.143-.492-.318-1.026-.597-1.602-.837-.576-.24-1.11-.483-1.602-.729s-.903-.525-1.233-.837c-.33-.312-.495-.702-.495-1.17 0-.24.06-.468.18-.684.12-.216.291-.405.513-.567.222-.162.492-.291.81-.387.318-.096.675-.144 1.071-.144.408 0 .792.024 1.152.072.36.048.69.108.99.18v1.926h1.332v-2.88l.018-.054h-.018v-.036l-.036.018c-.348-.168-.816-.303-1.404-.405-.588-.102-1.242-.153-1.962-.153-.624 0-1.191.075-1.701.225-.51.15-.945.363-1.305.639s-.639.612-.837 1.008c-.198.396-.297.84-.297 1.332 0 .696.165 1.269.495 1.719.33.45.741.831 1.233 1.143.492.312 1.026.582 1.602.81.576.228 1.11.462 1.602.702.492.24.903.516 1.233.828.33.312.495.714.495 1.206 0 .36-.075.672-.225.936-.15.264-.354.483-.612.657-.258.174-.561.3-.909.378-.348.078-.72.117-1.116.117-.456 0-.909-.063-1.359-.189-.45-.126-.855-.285-1.215-.477V26.22h-1.332v2.916l-.018.054c.156.084.369.186.639.306s.576.234.918.342c.342.108.717.198 1.125.27.408.072.84.108 1.296.108zm10.8 0c.672 0 1.275-.084 1.809-.252.534-.168.984-.408 1.35-.72.366-.312.648-.684.846-1.116.198-.432.297-.918.297-1.458 0-.66-.165-1.212-.495-1.656-.33-.444-.741-.825-1.233-1.143-.492-.318-1.026-.597-1.602-.837-.576-.24-1.11-.483-1.602-.729s-.903-.525-1.233-.837c-.33-.312-.495-.702-.495-1.17 0-.24.06-.468.18-.684.12-.216.291-.405.513-.567.222-.162.492-.291.81-.387.318-.096.675-.144 1.071-.144.408 0 .792.024 1.152.072.36.048.69.108.99.18v1.926h1.332v-2.88l.018-.054h-.018v-.036l-.036.018c-.348-.168-.816-.303-1.404-.405-.588-.102-1.242-.153-1.962-.153-.624 0-1.191.075-1.701.225-.51.15-.945.363-1.305.639s-.639.612-.837 1.008c-.198.396-.297.84-.297 1.332 0 .696.165 1.269.495 1.719.33.45.741.831 1.233 1.143.492.312 1.026.582 1.602.81.576.228 1.11.462 1.602.702.492.24.903.516 1.233.828.33.312.495.714.495 1.206 0 .36-.075.672-.225.936-.15.264-.354.483-.612.657-.258.174-.561.3-.909.378-.348.078-.72.117-1.116.117-.456 0-.909-.063-1.359-.189-.45-.126-.855-.285-1.215-.477V26.22h-1.332v2.916l-.018.054c.156.084.369.186.639.306s.576.234.918.342c.342.108.717.198 1.125.27.408.072.84.108 1.296.108zm10.854 0c1.56 0 2.709-.564 3.447-1.692.738-1.128 1.107-2.736 1.107-4.824 0-.984-.078-1.875-.234-2.673-.156-.798-.414-1.482-.774-2.052-.36-.57-.831-1.011-1.413-1.323-.582-.312-1.293-.468-2.133-.468-1.536 0-2.673.564-3.411 1.692-.738 1.128-1.107 2.736-1.107 4.824 0 .984.078 1.875.234 2.673.156.798.414 1.482.774 2.052.36.57.828 1.011 1.404 1.323.576.312 1.278.468 2.106.468zm0-1.332c-.576 0-1.05-.141-1.422-.423-.372-.282-.672-.66-.9-1.134-.228-.474-.387-1.023-.477-1.647-.09-.624-.135-1.284-.135-1.98 0-1.764.234-3.069.702-3.915.468-.846 1.212-1.269 2.232-1.269.576 0 1.056.141 1.44.423.384.282.69.66.918 1.134.228.474.387 1.026.477 1.656.09.63.135 1.287.135 1.971 0 1.776-.237 3.084-.711 3.924-.474.84-1.227 1.26-2.259 1.26z" transform="translate(-278 -286) translate(278 -699) translate(0 1007) translate(904 36)"/>
                        </g>
                        <g>
                            <path fill="#F5F5F7" d="M4.8 0h92.8c2.651 0 4.8 2.149 4.8 4.8V24c0 2.651-2.149 4.8-4.8 4.8H4.8C2.149 28.8 0 26.651 0 24V4.8C0 2.149 2.149 0 4.8 0z" transform="translate(-278 -286) translate(278 -699) translate(0 1007) translate(923 119)"/>
                            <path fill="#7663DA" fill-rule="nonzero" d="M18.072 17.73c.187 0 .38-.013.578-.038.198-.025.389-.063.572-.114.184-.05.357-.111.519-.183.162-.072.3-.151.415-.238v-3.326h-2.322v.723h1.556v2.106c-.324.18-.717.27-1.178.27-.741 0-1.308-.252-1.7-.756-.393-.504-.59-1.288-.59-2.354 0-.583.064-1.073.19-1.469.126-.396.295-.716.507-.961.213-.245.458-.42.735-.524.277-.104.567-.156.87-.156.352 0 .65.025.896.075v1.231h.799v-1.803l.01-.043c-.194-.08-.431-.143-.712-.19-.281-.046-.637-.07-1.07-.07-.403 0-.795.072-1.177.216-.381.144-.72.373-1.015.686-.295.313-.533.718-.713 1.215-.18.497-.27 1.095-.27 1.793 0 .67.072 1.251.216 1.744.144.493.35.9.616 1.22.266.321.59.559.972.713.382.155.814.233 1.296.233zm7.884-.13v-.724h-2.074V13.69c.044-.064.112-.144.206-.237.093-.094.207-.187.34-.281.133-.094.29-.173.47-.238.18-.064.381-.097.604-.097.238 0 .402.108.492.324.09.216.135.555.135 1.015l.756-.01c0-.324-.015-.614-.043-.87-.03-.255-.085-.473-.168-.653-.083-.18-.198-.317-.345-.41-.148-.094-.344-.141-.589-.141-.418 0-.778.08-1.08.238-.302.158-.576.349-.82.572h-.055l-.173-.702h-2.02v.724h1.459v3.952h-1.458v.724h4.363zm4.644.13c.418 0 .79-.067 1.118-.2.327-.133.603-.322.826-.567.223-.245.392-.542.508-.891.115-.35.172-.74.172-1.172 0-.396-.052-.767-.156-1.112-.105-.346-.265-.645-.48-.897-.217-.252-.489-.452-.816-.6-.328-.147-.718-.22-1.172-.22-.842 0-1.49.253-1.944.76-.454.508-.68 1.198-.68 2.069 0 .396.052.767.156 1.112.105.346.265.645.48.897.217.252.49.452.822.6.33.147.72.22 1.166.22zm0-.724c-.317 0-.585-.061-.805-.184-.22-.122-.397-.284-.534-.486-.137-.201-.236-.428-.297-.68-.061-.252-.092-.504-.092-.756 0-.698.144-1.224.432-1.577.288-.353.72-.529 1.296-.529.317 0 .585.061.805.184.22.122.4.284.54.486.14.201.24.426.302.675.061.248.092.502.092.761 0 .691-.146 1.215-.438 1.571-.291.357-.725.535-1.301.535zm5.443.594l1.08-2.98h.033l1.036 2.98h.962l1.058-5.4h-.788l-.767 4.19h-.076l-1.08-3.002h-.734l-1.048 3.024h-.065L34.78 12.2h-.832l1.134 5.4h.961zm8.025.14c.367 0 .725-.06 1.074-.183.35-.123.65-.285.902-.486l-.28-.637c-.195.144-.413.277-.654.4-.241.122-.524.183-.848.183-.475 0-.84-.126-1.096-.378-.256-.252-.384-.641-.384-1.167v-2.548h2.884V12.2h-2.884v-1.307l-.842.238V12.2h-1.285v.724h1.285v2.678c0 .374.058.697.173.967.115.27.27.491.464.664.195.173.42.3.675.383.256.083.528.124.816.124zm4.46-.14v-3.434c.043-.202.12-.387.232-.557.112-.169.245-.313.4-.432.155-.118.326-.212.513-.28.187-.069.378-.103.572-.103.281 0 .511.04.691.119.18.079.323.196.427.35.104.156.175.348.21.579.037.23.055.5.055.81V17.6h.842v-3.11c0-.483-.04-.88-.119-1.194-.079-.313-.2-.56-.362-.74-.162-.18-.37-.306-.626-.378-.256-.072-.556-.108-.902-.108-.439 0-.806.07-1.101.211-.296.14-.555.337-.778.589h-.054v-2.83h-1.685v.724h.853V17.6h.832zm13.208 0v-3.326h1.35l1.782 3.326h1.048l-1.998-3.586c.108-.043.238-.115.389-.216.151-.1.297-.232.437-.394s.26-.356.357-.583c.097-.227.145-.488.145-.783 0-.382-.068-.706-.205-.972-.137-.266-.318-.482-.545-.648-.227-.166-.49-.284-.789-.356-.298-.072-.613-.108-.945-.108-.295 0-.62.014-.977.043-.356.029-.671.068-.945.119V17.6h.896zm.843-4.018h-.843v-2.786c.05-.014.117-.025.2-.032.083-.008.171-.015.265-.022.093-.007.19-.01.291-.01h.292c.475 0 .846.125 1.112.377.267.252.4.573.4.961 0 .519-.162.9-.486 1.145-.324.245-.734.367-1.231.367zm6.199 4.115c.274 0 .511-.036.713-.108.201-.072.372-.156.513-.254.14-.097.254-.196.34-.297.086-.1.151-.183.194-.248h.054l.098.81h1.436v-.702h-.724c-.043-.324-.064-.666-.064-1.026.007-.31.018-.62.032-.929.014-.31.022-.601.022-.875 0-.237-.024-.473-.07-.707-.047-.234-.137-.443-.27-.626-.134-.184-.317-.333-.551-.449-.234-.115-.535-.172-.902-.172-.375 0-.756.04-1.145.118-.389.08-.738.21-1.048.39l.27.626c.23-.094.494-.186.789-.276.295-.09.605-.135.929-.135.237 0 .437.027.599.081.162.054.288.146.378.276.09.13.148.304.173.523.025.22.02.495-.016.827-.533-.08-1.014-.108-1.442-.087-.429.022-.794.097-1.096.227-.303.13-.535.317-.697.562-.162.244-.243.55-.243.918 0 .475.155.85.464 1.123.31.273.731.41 1.264.41zm.216-.723c-.382 0-.653-.089-.815-.265-.162-.176-.243-.383-.243-.621 0-.23.064-.418.194-.562.13-.144.31-.25.54-.318.23-.069.504-.103.82-.103.318 0 .663.033 1.038.097v.756c-.044.108-.108.222-.195.34-.086.12-.194.23-.324.33s-.28.184-.453.248c-.173.065-.36.098-.562.098zm7.474.766c.367 0 .725-.06 1.074-.183.35-.123.65-.285.902-.486l-.28-.637c-.195.144-.413.277-.654.4-.241.122-.524.183-.848.183-.475 0-.84-.126-1.096-.378-.256-.252-.384-.641-.384-1.167v-2.548h2.884V12.2h-2.884v-1.307l-.842.238V12.2h-1.285v.724h1.285v2.678c0 .374.058.697.173.967.115.27.27.491.464.664.195.173.42.3.675.383.256.083.528.124.816.124zm6.07-.01c.23 0 .458-.02.685-.06.227-.04.445-.095.653-.167.21-.072.402-.159.578-.26.177-.1.33-.208.46-.323l-.336-.616c-.072.065-.174.137-.307.216-.134.08-.287.151-.46.216-.172.065-.354.12-.545.167-.19.047-.383.07-.578.07-.583 0-1.049-.16-1.398-.48-.35-.32-.524-.805-.524-1.453h4.18c.036-.612-.008-1.11-.13-1.495-.122-.386-.297-.688-.524-.908-.227-.22-.488-.369-.783-.448-.295-.079-.594-.119-.896-.119-.418 0-.796.063-1.134.19-.339.125-.627.307-.864.545-.238.237-.42.533-.546.885-.126.353-.189.756-.189 1.21 0 .432.058.82.173 1.166.115.346.285.643.508.891.223.249.5.44.831.573.332.133.713.2 1.145.2zm1.62-3.446h-3.36c.03-.28.096-.516.2-.707.105-.19.238-.346.4-.464.162-.12.349-.204.561-.254.213-.05.438-.076.675-.076.44 0 .794.132 1.064.394.27.263.423.632.46 1.107z" transform="translate(-278 -286) translate(278 -699) translate(0 1007) translate(923 119)"/>
                        </g>
                        <g>
                            <path fill="#F5F5F7" d="M5.52 0h44.62c3.049 0 5.52 2.471 5.52 5.52V27.6c0 3.049-2.471 5.52-5.52 5.52H5.52C2.471 33.12 0 30.649 0 27.6V5.52C0 2.471 2.471 0 5.52 0z" transform="translate(-278 -286) translate(278 -699) translate(0 1007) translate(998 182)"/>
                            <path fill="#7663DA" fill-rule="nonzero" d="M20.062 20.94c.406 0 .804-.05 1.193-.15.389-.099.735-.252 1.037-.46.302-.206.546-.473.733-.8.186-.327.28-.714.28-1.162 0-.34-.055-.633-.162-.881-.108-.249-.249-.46-.423-.634s-.374-.31-.602-.41c-.228-.099-.466-.17-.714-.21v-.05c.281-.075.526-.183.733-.323.207-.141.376-.305.509-.491.132-.186.232-.387.298-.602.066-.216.1-.427.1-.634 0-.43-.09-.782-.268-1.055-.178-.274-.403-.487-.677-.64-.273-.153-.577-.257-.913-.31-.335-.054-.664-.081-.987-.081-.48 0-.923.016-1.329.05-.406.032-.762.074-1.068.124v8.557c.157.041.34.072.546.093.207.02.414.037.621.05.207.012.406.018.597.018h.496zm-.583-4.969h-.646v-2.956c.116-.024.288-.043.515-.055.228-.013.478-.02.752-.02.232 0 .46.022.683.063.223.041.422.116.596.224.174.107.313.252.416.434.104.182.155.41.155.683 0 .2-.039.381-.118.547-.078.165-.186.314-.323.447-.136.132-.291.246-.465.341-.174.096-.36.176-.56.243-.132.016-.297.029-.496.037-.199.008-.369.012-.51.012zm.683 4.074c-.1 0-.215-.002-.348-.006-.132-.004-.26-.01-.385-.019-.124-.008-.24-.016-.348-.025-.107-.008-.19-.02-.248-.037v-3.117h1.08c.274 0 .547.02.82.062.273.041.52.12.74.236.219.116.397.277.533.484.137.207.205.48.205.82 0 .273-.056.51-.168.708-.111.199-.262.364-.453.497-.19.132-.41.232-.658.298-.249.066-.505.1-.77.1zm10.333.795v-.894h-4.372c1.292-1.101 2.298-2.12 3.018-3.056.72-.935 1.081-1.784 1.081-2.546 0-.72-.199-1.291-.596-1.714-.398-.422-.985-.633-1.764-.633-.497 0-.954.062-1.372.186-.418.124-.814.319-1.186.584l.422.683c.248-.19.526-.335.832-.435.306-.099.683-.149 1.13-.149.522 0 .913.143 1.174.429.26.286.391.677.391 1.174 0 .33-.083.674-.248 1.03-.166.356-.381.712-.646 1.069-.265.356-.561.703-.888 1.043-.327.34-.648.656-.963.95-.314.294-.608.56-.881.801-.274.24-.489.435-.646.584v.894h5.514zm4.471.1c.406 0 .804-.05 1.193-.15.389-.099.735-.252 1.037-.46.302-.206.546-.473.733-.8.186-.327.28-.714.28-1.162 0-.34-.055-.633-.162-.881-.108-.249-.249-.46-.423-.634s-.374-.31-.602-.41c-.228-.099-.466-.17-.714-.21v-.05c.281-.075.526-.183.733-.323.207-.141.376-.305.509-.491.132-.186.232-.387.298-.602.066-.216.1-.427.1-.634 0-.43-.09-.782-.268-1.055-.178-.274-.403-.487-.677-.64-.273-.153-.577-.257-.913-.31-.335-.054-.664-.081-.987-.081-.48 0-.923.016-1.329.05-.406.032-.762.074-1.068.124v8.557c.157.041.34.072.546.093.207.02.414.037.621.05.207.012.406.018.597.018h.496zm-.583-4.969h-.646v-2.956c.116-.024.288-.043.515-.055.228-.013.478-.02.752-.02.232 0 .46.022.683.063.223.041.422.116.596.224.174.107.313.252.416.434.104.182.155.41.155.683 0 .2-.039.381-.118.547-.078.165-.186.314-.323.447-.136.132-.291.246-.465.341-.174.096-.36.176-.56.243-.132.016-.297.029-.496.037-.199.008-.369.012-.51.012zm.683 4.074c-.1 0-.215-.002-.348-.006-.132-.004-.26-.01-.385-.019-.124-.008-.24-.016-.348-.025-.107-.008-.19-.02-.248-.037v-3.117h1.08c.274 0 .547.02.82.062.273.041.52.12.74.236.219.116.397.277.533.484.137.207.205.48.205.82 0 .273-.056.51-.168.708-.111.199-.262.364-.453.497-.19.132-.41.232-.658.298-.249.066-.505.1-.77.1z" transform="translate(-278 -286) translate(278 -699) translate(0 1007) translate(998 182)"/>
                        </g>
                        <g>
                            <path fill="#F5F5F7" d="M5.52 0h44.62c3.049 0 5.52 2.471 5.52 5.52V27.6c0 3.049-2.471 5.52-5.52 5.52H5.52C2.471 33.12 0 30.649 0 27.6V5.52C0 2.471 2.471 0 5.52 0z" transform="translate(-278 -286) translate(278 -699) translate(0 1007) translate(507 176)"/>
                            <path fill="#7663DA" fill-rule="nonzero" d="M20.236 20.989c.464 0 .88-.058 1.249-.174.368-.116.678-.281.931-.497.253-.215.447-.472.584-.77.136-.298.205-.633.205-1.006 0-.455-.114-.836-.342-1.142-.228-.307-.511-.57-.85-.789-.34-.22-.709-.412-1.106-.578-.397-.165-.766-.333-1.105-.503-.34-.17-.623-.362-.851-.577-.228-.215-.342-.484-.342-.807 0-.166.042-.323.124-.472.083-.15.201-.28.354-.392.154-.111.34-.2.56-.267.219-.066.465-.099.738-.099.282 0 .547.017.795.05.249.033.476.074.683.124v1.329h.92v-1.987l.012-.038h-.013v-.024l-.024.012c-.24-.116-.563-.21-.97-.28-.405-.07-.856-.105-1.353-.105-.43 0-.822.052-1.174.155-.352.104-.652.25-.9.441-.248.19-.441.422-.578.696-.136.273-.205.58-.205.919 0 .48.114.875.342 1.186.228.31.511.573.85.789.34.215.709.401 1.106.558.398.158.766.32 1.106.485.339.165.623.356.85.571.228.215.342.493.342.832 0 .249-.052.464-.155.646-.104.182-.245.333-.423.453s-.387.207-.627.261c-.24.054-.497.081-.77.081-.315 0-.627-.044-.938-.13-.31-.087-.59-.197-.838-.33v-1.378h-.92v2.012l-.012.037c.108.058.255.128.441.211.187.083.398.162.634.236.236.075.495.137.776.187.282.05.58.074.894.074zm9.129 1.751c.265 0 .52-.04.764-.118.244-.078.424-.184.54-.316l-.273-.758c-.282.182-.6.273-.956.273-.315 0-.574-.072-.777-.217-.203-.145-.341-.362-.416-.652.903-.124 1.565-.565 1.987-1.323.423-.758.634-1.803.634-3.136 0-.679-.054-1.294-.162-1.844-.107-.551-.285-1.023-.534-1.416-.248-.394-.573-.698-.975-.913-.401-.215-.892-.323-1.471-.323-1.06 0-1.845.39-2.354 1.167-.51.779-.764 1.888-.764 3.329 0 .621.046 1.19.137 1.708.09.517.238.969.44 1.354.204.385.466.695.79.931.322.236.72.387 1.192.453.05.34.15.623.304.851.153.228.333.412.54.553.207.14.429.242.665.304.236.062.465.093.689.093zm-1.64-2.67c-.397 0-.724-.097-.98-.292-.257-.194-.464-.455-.622-.782-.157-.327-.267-.706-.329-1.137-.062-.43-.093-.886-.093-1.366 0-1.217.162-2.118.485-2.701.322-.584.836-.876 1.54-.876.397 0 .728.097.993.292.265.194.476.455.634.782.157.327.267.708.329 1.143.062.435.093.888.093 1.36 0 1.225-.164 2.128-.49 2.708-.328.58-.847.869-1.56.869zm10.322.77v-3.08h-.92v2.16h-3.514v-7.774h-1.031v8.694h5.465z" transform="translate(-278 -286) translate(278 -699) translate(0 1007) translate(507 176)"/>
                        </g>
                        <g>
                            <path fill="#F5F5F7" d="M5.52 0h156.62c3.049 0 5.52 2.471 5.52 5.52V27.6c0 3.049-2.471 5.52-5.52 5.52H5.52C2.471 33.12 0 30.649 0 27.6V5.52C0 2.471 2.471 0 5.52 0z" transform="translate(-278 -286) translate(278 -699) translate(0 1007) translate(1064 55)"/>
                            <path fill="#7663DA" fill-rule="nonzero" d="M20.982 20.989c.546 0 1.01-.064 1.39-.192.381-.129.696-.288.944-.479l-.012-.024v-1.677h-.919v1.242c-.157.066-.33.118-.515.155-.187.037-.388.056-.603.056-.422 0-.805-.075-1.149-.224-.343-.149-.637-.372-.881-.67-.245-.298-.435-.671-.572-1.118-.136-.447-.205-.969-.205-1.565 0-.662.077-1.221.23-1.677.153-.455.356-.824.609-1.105.252-.282.542-.484.869-.609.327-.124.66-.186 1-.186.24 0 .445.015.615.044.17.028.325.072.465.13v1.329h.92v-1.963h-.013c-.116-.074-.234-.14-.354-.198-.12-.058-.259-.106-.416-.143-.157-.037-.34-.066-.547-.087-.207-.02-.45-.031-.732-.031-.514 0-.996.083-1.447.248-.451.166-.847.429-1.186.789-.34.36-.609.824-.808 1.391-.198.567-.298 1.257-.298 2.068 0 .778.09 1.451.267 2.018.178.567.429 1.033.752 1.398.323.364.706.635 1.149.813.443.178.925.267 1.447.267zm6.321 0c.505 0 .936-.112 1.292-.335.356-.224.642-.514.857-.87h.05l.037 1.056h1.652v-.807h-.832c-.05-.373-.075-.762-.075-1.168V14.63H28.52v.832h.795v3.217c-.165.422-.407.774-.726 1.056-.319.281-.694.422-1.124.422-.298 0-.536-.048-.714-.143-.178-.095-.313-.236-.404-.422-.091-.187-.151-.414-.18-.683-.03-.27-.044-.574-.044-.913V14.63h-1.8v.832h.832v2.733c0 .538.041.987.124 1.347.083.36.211.648.385.863.174.216.395.367.664.454.27.087.594.13.975.13zm7.862 0c.903 0 1.58-.186 2.03-.559.452-.372.678-.844.678-1.416 0-.38-.104-.683-.31-.906-.208-.224-.464-.402-.77-.534-.307-.133-.64-.234-1-.305-.36-.07-.694-.145-1-.223-.307-.079-.563-.176-.77-.292-.207-.116-.311-.282-.311-.497 0-.174.043-.32.13-.44.087-.121.203-.218.348-.293.145-.074.307-.13.485-.167.178-.038.358-.056.54-.056.48 0 .88.068 1.198.205.32.136.615.28.888.428l.398-.782c-.249-.158-.582-.309-1-.454-.418-.145-.917-.217-1.497-.217-.322 0-.633.035-.931.106-.298.07-.559.178-.783.322-.223.145-.403.33-.54.553-.136.224-.205.493-.205.807 0 .381.104.677.31.888.208.212.464.38.77.503.307.125.64.224 1 .299.36.074.694.155 1 .242.307.087.563.203.77.348.207.144.311.35.311.614 0 .182-.044.338-.13.466-.087.128-.205.232-.354.31-.15.08-.321.137-.516.174-.194.038-.404.056-.627.056-.232 0-.462-.025-.69-.074-.227-.05-.44-.116-.639-.199s-.38-.176-.546-.28c-.166-.103-.299-.204-.398-.304l-.497.808c.124.107.282.213.472.316.19.104.402.197.634.28.231.083.48.149.745.199.265.05.534.074.807.074zm8.06.012c.423 0 .835-.07 1.237-.21.401-.141.747-.328 1.037-.56l-.323-.732c-.224.165-.474.318-.752.46-.277.14-.602.21-.975.21-.546 0-.966-.145-1.26-.434-.294-.29-.441-.737-.441-1.342v-2.93h3.316v-.833h-3.316v-1.503l-.969.273v1.23h-1.478v.832h1.478v3.08c0 .43.066.801.199 1.112.132.31.31.565.534.764.223.198.482.345.776.44.294.096.607.143.938.143zm6.869-.012c.48 0 .909-.077 1.285-.23.377-.153.694-.37.95-.652.257-.281.452-.623.584-1.024.133-.402.2-.851.2-1.348 0-.455-.061-.882-.181-1.28-.12-.397-.304-.74-.553-1.03-.248-.29-.56-.52-.937-.69-.377-.17-.826-.254-1.348-.254-.969 0-1.714.292-2.236.876-.521.583-.782 1.376-.782 2.378 0 .455.06.882.18 1.28.12.397.304.74.553 1.03.248.29.563.52.944.69.38.17.828.254 1.341.254zm0-.832c-.364 0-.673-.07-.925-.211-.253-.141-.458-.327-.615-.56-.157-.231-.271-.492-.342-.782-.07-.29-.105-.58-.105-.869 0-.803.165-1.408.497-1.813.33-.406.828-.609 1.49-.609.364 0 .673.07.925.211.253.141.46.327.621.56.162.231.278.49.348.775.07.286.106.578.106.876 0 .795-.168 1.397-.503 1.807-.336.41-.835.615-1.497.615zm5.18.683v-4.272c.099-.348.245-.638.44-.87.195-.232.433-.348.714-.348.141 0 .255.038.342.112.087.075.153.176.198.304.046.129.075.274.087.435.013.162.019.33.019.503v4.136h.944v-4.148c.1-.43.248-.762.447-.994.199-.232.443-.348.733-.348.132 0 .238.033.317.1.078.066.14.157.186.273.045.116.076.25.093.404.017.153.025.316.025.49v4.223h.944v-4.434c0-.29-.019-.553-.056-.789-.037-.236-.104-.438-.199-.608-.095-.17-.228-.3-.397-.391-.17-.091-.392-.137-.665-.137-.414 0-.739.091-.975.273-.236.182-.449.435-.64.758-.024-.19-.078-.352-.16-.485-.084-.132-.18-.238-.293-.316-.111-.079-.234-.137-.366-.174-.133-.037-.26-.056-.385-.056-.215 0-.393.023-.534.068-.14.046-.263.11-.367.193-.103.083-.194.18-.273.292-.078.111-.16.23-.242.354h-.05l-.186-.758h-.646v6.21h.944zm9.836.149c.265 0 .528-.023.788-.068.261-.046.512-.11.752-.193s.461-.182.664-.298c.203-.116.38-.24.528-.372l-.385-.708c-.083.074-.2.157-.354.248-.153.091-.329.174-.528.248-.198.075-.407.14-.627.193-.22.054-.44.08-.664.08-.671 0-1.207-.184-1.609-.552-.401-.369-.602-.925-.602-1.67h4.806c.042-.704-.008-1.278-.149-1.72-.14-.444-.341-.791-.602-1.044-.26-.253-.56-.424-.9-.515-.34-.091-.684-.137-1.031-.137-.48 0-.915.072-1.304.217-.39.145-.72.354-.994.628-.273.273-.482.612-.627 1.018-.145.406-.218.87-.218 1.391 0 .497.067.944.2 1.341.132.398.326.74.583 1.025.257.286.575.505.956.658.381.153.82.23 1.317.23zm1.863-3.962H63.11c.033-.323.11-.594.23-.813.12-.22.273-.398.46-.535.186-.136.401-.233.645-.291.245-.058.503-.087.777-.087.505 0 .912.15 1.223.453.31.302.486.727.528 1.273zm7.588 3.813v-.832h-2.384v-3.664c.05-.075.128-.166.236-.273.107-.108.238-.216.391-.323.153-.108.333-.199.54-.273.207-.075.44-.112.696-.112.273 0 .461.124.565.372.103.249.155.638.155 1.168l.87-.013c0-.372-.017-.705-.05-1-.033-.293-.097-.544-.193-.75-.095-.208-.227-.365-.397-.473-.17-.107-.395-.161-.677-.161-.48 0-.894.09-1.242.273-.348.182-.662.402-.944.658h-.062l-.199-.807h-2.322v.832h1.676v4.546h-1.676v.832h5.017zm15.65 0v-3.08h-.92v2.16h-3.514v-7.774h-1.031v8.694h5.465zm4.794-7.204c.24 0 .44-.074.602-.223.162-.15.242-.331.242-.547 0-.223-.08-.416-.242-.577-.161-.162-.362-.242-.602-.242-.232 0-.423.08-.572.242-.149.161-.223.354-.223.577 0 .216.074.398.223.547.15.149.34.223.572.223zm2.645 7.204v-.832H95.54V14.63h-3.155v.832h2.161v4.546h-2.16v.832h5.265zm6.993 0v-.832h-2.571v-4.546h2.57v-.832h-2.57c0-.613.1-1.054.298-1.323.198-.269.571-.403 1.118-.403.165 0 .347.014.546.043.199.03.406.09.621.18l.224-.807c-.249-.1-.48-.166-.696-.199-.215-.033-.46-.05-.733-.05-.753 0-1.333.174-1.738.522-.406.348-.61.91-.61 1.69v.347h-1.477v.832h1.478v4.546h-1.478v.832h5.018zm5.179.149c.265 0 .528-.023.788-.068.261-.046.512-.11.752-.193s.461-.182.664-.298c.203-.116.38-.24.528-.372l-.385-.708c-.083.074-.2.157-.354.248-.153.091-.329.174-.528.248-.198.075-.407.14-.627.193-.22.054-.44.08-.664.08-.671 0-1.207-.184-1.609-.552-.401-.369-.602-.925-.602-1.67h4.806c.042-.704-.008-1.278-.149-1.72-.14-.444-.341-.791-.602-1.044-.26-.253-.56-.424-.9-.515-.34-.091-.684-.137-1.031-.137-.48 0-.915.072-1.304.217-.39.145-.72.354-.994.628-.273.273-.482.612-.627 1.018-.145.406-.218.87-.218 1.391 0 .497.067.944.2 1.341.132.398.326.74.583 1.025.257.286.575.505.956.658.381.153.82.23 1.317.23zm1.863-3.962h-3.863c.033-.323.11-.594.23-.813.12-.22.273-.398.46-.535.186-.136.401-.233.645-.291.245-.058.503-.087.777-.087.505 0 .912.15 1.223.453.31.302.486.727.528 1.273zm5.775 3.962c.323 0 .623-.029.9-.087.278-.058.53-.134.758-.23.228-.095.429-.196.603-.304.173-.108.318-.211.434-.31l-.434-.72c-.249.214-.557.388-.926.52-.368.133-.747.2-1.136.2-.365 0-.698-.054-1-.162-.302-.108-.561-.26-.776-.46-.216-.198-.381-.44-.497-.726-.116-.286-.174-.61-.174-.975 0-.828.199-1.432.596-1.813.398-.381 1.002-.572 1.814-.572.215 0 .432.023.652.069.219.045.424.101.614.167v1.18h.895V15.04l.012-.037c-.265-.133-.59-.253-.975-.36-.385-.108-.884-.162-1.497-.162-.48 0-.914.072-1.304.217-.389.145-.72.354-.993.628-.273.273-.483.612-.627 1.018-.145.406-.218.87-.218 1.391 0 .489.07.934.211 1.335.141.402.348.745.621 1.031.274.286.615.505 1.025.658.41.153.884.23 1.422.23zm6.024 2.397c.48 0 .87-.112 1.167-.335.298-.224.534-.497.708-.82.174-.323.309-.669.404-1.037.095-.368.188-.698.28-.987l1.726-5.577h-1.006l-1.54 5.254h-.472l-2.174-5.254h-1.118l2.609 6.21h.832c-.224 1.052-.646 1.577-1.267 1.577-.066 0-.15-.01-.249-.03-.099-.021-.2-.046-.304-.075-.103-.03-.199-.064-.286-.106-.086-.041-.155-.083-.204-.124l-.348.894c.05.05.124.1.223.15.1.049.207.092.323.13.116.037.234.068.354.093.12.025.234.037.342.037zm8.88-2.397c.323 0 .623-.029.9-.087.278-.058.53-.134.758-.23.228-.095.429-.196.603-.304.173-.108.318-.211.434-.31l-.434-.72c-.249.214-.557.388-.926.52-.368.133-.747.2-1.136.2-.365 0-.698-.054-1-.162-.302-.108-.561-.26-.776-.46-.216-.198-.381-.44-.497-.726-.116-.286-.174-.61-.174-.975 0-.828.199-1.432.596-1.813.398-.381 1.002-.572 1.814-.572.215 0 .432.023.652.069.219.045.424.101.614.167v1.18h.895V15.04l.012-.037c-.265-.133-.59-.253-.975-.36-.385-.108-.884-.162-1.497-.162-.48 0-.914.072-1.304.217-.389.145-.72.354-.993.628-.273.273-.483.612-.627 1.018-.145.406-.218.87-.218 1.391 0 .489.07.934.211 1.335.141.402.348.745.621 1.031.274.286.615.505 1.025.658.41.153.884.23 1.422.23zm7.912.012c.14 0 .294-.016.46-.05.165-.032.33-.08.496-.142.166-.062.327-.139.484-.23.158-.09.303-.194.435-.31l-.447-.683c-.257.198-.49.34-.702.422-.21.083-.432.124-.664.124-.331 0-.582-.103-.752-.31-.17-.207-.254-.563-.254-1.069v-6.607h-2.062v.832h1.093v5.775c0 .423.041.777.124 1.062.083.286.205.516.367.69.161.174.362.3.602.378.24.08.513.118.82.118zm6.806-.012c.265 0 .528-.023.788-.068.261-.046.512-.11.752-.193s.461-.182.664-.298c.203-.116.38-.24.528-.372l-.385-.708c-.083.074-.2.157-.354.248-.153.091-.329.174-.528.248-.198.075-.407.14-.627.193-.22.054-.44.08-.664.08-.671 0-1.207-.184-1.609-.552-.401-.369-.602-.925-.602-1.67h4.806c.042-.704-.008-1.278-.149-1.72-.14-.444-.341-.791-.602-1.044-.26-.253-.56-.424-.9-.515-.34-.091-.684-.137-1.031-.137-.48 0-.915.072-1.304.217-.39.145-.72.354-.994.628-.273.273-.482.612-.627 1.018-.145.406-.218.87-.218 1.391 0 .497.067.944.2 1.341.132.398.326.74.583 1.025.257.286.575.505.956.658.381.153.82.23 1.317.23zm1.863-3.962h-3.863c.033-.323.11-.594.23-.813.12-.22.273-.398.46-.535.186-.136.401-.233.645-.291.245-.058.503-.087.777-.087.505 0 .912.15 1.223.453.31.302.486.727.528 1.273z" transform="translate(-278 -286) translate(278 -699) translate(0 1007) translate(1064 55)"/>
                        </g>
                        <g>
                            <path fill="#F5F5F7" d="M5.52 0h232.62c3.049 0 5.52 2.471 5.52 5.52V27.6c0 3.049-2.471 5.52-5.52 5.52H5.52C2.471 33.12 0 30.649 0 27.6V5.52C0 2.471 2.471 0 5.52 0z" transform="translate(-278 -286) translate(278 -699) translate(0 1007) translate(0 124)"/>
                            <path fill="#7663DA" fill-rule="nonzero" d="M23.267 20.84v-.92h-2.472v-6.855h2.472v-.919h-5.962v.92h2.46v6.855h-2.46v.919h5.962zm4.173.149c.472 0 .888-.106 1.248-.317.36-.21.631-.474.814-.788h.05l.124.956h1.651v-.807h-.832c-.016-.091-.033-.197-.05-.317-.016-.12-.03-.242-.043-.366-.012-.125-.023-.243-.031-.354-.008-.112-.012-.205-.012-.28v-6.57h-2.012v.832h1.043v1.764l-.342-.093c-.103-.03-.213-.052-.329-.069-.116-.016-.242-.029-.379-.037-.136-.008-.291-.012-.465-.012-.48 0-.915.07-1.304.21-.39.142-.723.346-1 .616-.278.269-.49.604-.64 1.006-.149.401-.223.863-.223 1.384 0 1.11.221 1.928.664 2.453.443.526 1.132.789 2.068.789zm.161-.832c-.347 0-.641-.062-.881-.186-.24-.125-.433-.294-.578-.51-.145-.215-.248-.47-.31-.763-.063-.294-.094-.611-.094-.95 0-.829.19-1.435.572-1.82.38-.385.902-.578 1.565-.578.372 0 .672.03.9.087.228.058.433.15.615.274v2.881c-.108.522-.306.913-.596 1.174-.29.26-.688.39-1.193.39zm7.7.832c.266 0 .529-.023.79-.068.26-.046.51-.11.75-.193.241-.083.462-.182.665-.298.203-.116.38-.24.528-.372l-.385-.708c-.083.074-.2.157-.354.248-.153.091-.329.174-.528.248-.198.075-.407.14-.627.193-.22.054-.44.08-.664.08-.671 0-1.207-.184-1.609-.552-.401-.369-.602-.925-.602-1.67h4.806c.042-.704-.008-1.278-.149-1.72-.14-.444-.341-.791-.602-1.044-.26-.253-.56-.424-.9-.515-.34-.091-.684-.137-1.031-.137-.48 0-.915.072-1.304.217-.39.145-.72.354-.994.628-.273.273-.482.612-.627 1.018-.145.406-.218.87-.218 1.391 0 .497.067.944.2 1.341.132.398.326.74.583 1.025.257.286.575.505.956.658.381.153.82.23 1.317.23zm1.864-3.962h-3.863c.033-.323.11-.594.23-.813.12-.22.273-.398.46-.535.186-.136.401-.233.645-.291.245-.058.503-.087.777-.087.505 0 .912.15 1.223.453.31.302.486.727.528 1.273zm4.67 3.925c.314 0 .588-.042.82-.124.231-.083.428-.18.59-.292.16-.112.291-.226.39-.342.1-.116.174-.211.224-.285h.062l.112.931h1.652v-.807h-.832c-.05-.373-.075-.766-.075-1.18.009-.356.02-.712.038-1.068.016-.356.024-.692.024-1.006 0-.274-.027-.545-.08-.814-.054-.269-.158-.51-.31-.72-.154-.211-.365-.383-.634-.516-.27-.132-.615-.198-1.037-.198-.43 0-.87.045-1.317.136-.447.091-.849.24-1.205.447l.31.72c.266-.107.568-.212.908-.316.339-.103.695-.155 1.068-.155.273 0 .503.03.689.093.186.062.331.168.435.317.103.149.17.35.198.602.03.253.023.57-.018.95-.613-.09-1.166-.124-1.658-.1-.493.026-.913.113-1.261.262-.348.149-.615.364-.801.645-.186.282-.28.634-.28 1.056 0 .547.179.977.535 1.292.356.314.84.472 1.453.472zm.248-.832c-.439 0-.751-.102-.938-.305-.186-.203-.28-.44-.28-.714 0-.265.075-.48.224-.646.15-.165.357-.287.622-.366.264-.079.58-.118.943-.118.365 0 .762.037 1.193.112v.87c-.05.123-.124.254-.224.39-.1.137-.223.263-.372.38-.15.115-.323.21-.522.285-.199.074-.414.112-.646.112zm8.769.881c.14 0 .294-.016.46-.05.165-.032.33-.08.496-.142.166-.062.327-.139.484-.23.158-.09.303-.194.435-.31l-.447-.683c-.257.198-.49.34-.702.422-.211.083-.432.124-.664.124-.331 0-.582-.103-.752-.31-.17-.207-.254-.563-.254-1.069v-6.607h-2.062v.832h1.093v5.775c0 .423.041.777.124 1.062.083.286.205.516.367.69.161.174.362.3.602.378.24.08.513.118.82.118zm14.842-.012c.546 0 1.01-.064 1.39-.192.381-.129.696-.288.944-.479l-.012-.024v-1.677h-.919v1.242c-.157.066-.33.118-.515.155-.187.037-.388.056-.603.056-.422 0-.805-.075-1.149-.224-.343-.149-.637-.372-.881-.67-.245-.298-.435-.671-.572-1.118-.136-.447-.205-.969-.205-1.565 0-.662.077-1.221.23-1.677.153-.455.356-.824.609-1.105.252-.282.542-.484.869-.609.327-.124.66-.186 1-.186.24 0 .445.015.615.044.17.028.325.072.465.13v1.329h.92v-1.963h-.013c-.116-.074-.234-.14-.354-.198-.12-.058-.259-.106-.416-.143-.157-.037-.34-.066-.546-.087-.207-.02-.452-.031-.733-.031-.514 0-.996.083-1.447.248-.451.166-.847.429-1.186.789-.34.36-.609.824-.808 1.391-.198.567-.298 1.257-.298 2.068 0 .778.09 1.451.267 2.018.178.567.429 1.033.752 1.398.323.364.706.635 1.149.813.443.178.925.267 1.447.267zm6.321 0c.505 0 .936-.112 1.292-.335.356-.224.642-.514.857-.87h.05l.037 1.056h1.652v-.807h-.832c-.05-.373-.075-.762-.075-1.168V14.63h-1.764v.832h.795v3.217c-.165.422-.407.774-.726 1.056-.319.281-.694.422-1.124.422-.298 0-.536-.048-.714-.143-.178-.095-.313-.236-.404-.422-.091-.187-.151-.414-.18-.683-.03-.27-.044-.574-.044-.913V14.63h-1.8v.832h.832v2.733c0 .538.041.987.124 1.347.083.36.211.648.385.863.174.216.395.367.664.454.27.087.594.13.975.13zm7.862 0c.903 0 1.58-.186 2.03-.559.452-.372.678-.844.678-1.416 0-.38-.104-.683-.31-.906-.208-.224-.464-.402-.77-.534-.307-.133-.64-.234-1-.305-.36-.07-.694-.145-1-.223-.307-.079-.563-.176-.77-.292-.207-.116-.311-.282-.311-.497 0-.174.043-.32.13-.44.087-.121.203-.218.348-.293.145-.074.307-.13.485-.167.178-.038.358-.056.54-.056.48 0 .88.068 1.198.205.32.136.615.28.888.428l.398-.782c-.249-.158-.582-.309-1-.454-.418-.145-.917-.217-1.497-.217-.323 0-.633.035-.931.106-.298.07-.559.178-.783.322-.223.145-.403.33-.54.553-.136.224-.205.493-.205.807 0 .381.104.677.31.888.208.212.464.38.77.503.307.125.64.224 1 .299.36.074.694.155 1 .242.307.087.563.203.77.348.207.144.311.35.311.614 0 .182-.044.338-.13.466-.087.128-.205.232-.354.31-.15.08-.321.137-.516.174-.194.038-.403.056-.627.056-.232 0-.462-.025-.69-.074-.227-.05-.44-.116-.639-.199s-.38-.176-.546-.28c-.166-.103-.299-.204-.398-.304l-.497.808c.124.107.282.213.472.316.19.104.402.197.634.28.231.083.48.149.745.199.265.05.534.074.807.074zm8.06.012c.423 0 .835-.07 1.237-.21.401-.141.747-.328 1.037-.56l-.323-.732c-.224.165-.474.318-.752.46-.277.14-.602.21-.975.21-.546 0-.966-.145-1.26-.434-.294-.29-.441-.737-.441-1.342v-2.93h3.316v-.833H86.46v-1.503l-.969.273v1.23h-1.478v.832h1.478v3.08c0 .43.066.801.199 1.112.132.31.31.565.534.764.223.198.482.345.776.44.294.096.607.143.938.143zm6.869-.012c.48 0 .909-.077 1.285-.23.377-.153.694-.37.95-.652.257-.281.452-.623.584-1.024.133-.402.2-.851.2-1.348 0-.455-.061-.882-.181-1.28-.12-.397-.304-.74-.553-1.03-.248-.29-.56-.52-.937-.69-.377-.17-.826-.254-1.348-.254-.969 0-1.714.292-2.236.876-.521.583-.782 1.376-.782 2.378 0 .455.06.882.18 1.28.12.397.304.74.553 1.03.248.29.563.52.944.69.38.17.828.254 1.341.254zm0-.832c-.364 0-.673-.07-.925-.211-.253-.141-.458-.327-.615-.56-.157-.231-.271-.492-.342-.782-.07-.29-.105-.58-.105-.869 0-.803.165-1.408.497-1.813.33-.406.828-.609 1.49-.609.364 0 .673.07.925.211.253.141.46.327.621.56.162.231.278.49.348.775.07.286.106.578.106.876 0 .795-.168 1.397-.503 1.807-.336.41-.835.615-1.497.615zm5.18.683v-4.272c.099-.348.245-.638.44-.87.195-.232.433-.348.714-.348.141 0 .255.038.342.112.087.075.153.176.198.304.046.129.075.274.087.435.013.162.019.33.019.503v4.136h.944v-4.148c.1-.43.248-.762.447-.994.199-.232.443-.348.733-.348.132 0 .238.033.317.1.078.066.14.157.186.273.045.116.076.25.093.404.017.153.025.316.025.49v4.223h.944v-4.434c0-.29-.019-.553-.056-.789-.037-.236-.104-.438-.199-.608-.095-.17-.228-.3-.397-.391-.17-.091-.391-.137-.665-.137-.414 0-.739.091-.975.273-.236.182-.449.435-.64.758-.024-.19-.078-.352-.16-.485-.084-.132-.18-.238-.293-.316-.111-.079-.234-.137-.366-.174-.133-.037-.26-.056-.385-.056-.215 0-.393.023-.534.068-.14.046-.263.11-.367.193-.103.083-.194.18-.273.292-.078.111-.16.23-.242.354h-.05l-.186-.758h-.646v6.21h.944zm9.836.149c.265 0 .528-.023.788-.068.261-.046.512-.11.752-.193s.461-.182.664-.298c.203-.116.38-.24.528-.372l-.385-.708c-.083.074-.2.157-.354.248-.153.091-.329.174-.528.248-.198.075-.407.14-.627.193-.22.054-.44.08-.664.08-.671 0-1.207-.184-1.609-.552-.401-.369-.602-.925-.602-1.67h4.806c.042-.704-.008-1.278-.149-1.72-.14-.444-.341-.791-.602-1.044-.26-.253-.56-.424-.9-.515-.34-.091-.684-.137-1.031-.137-.48 0-.915.072-1.304.217-.39.145-.72.354-.994.628-.273.273-.482.612-.627 1.018-.145.406-.218.87-.218 1.391 0 .497.067.944.2 1.341.132.398.326.74.583 1.025.257.286.575.505.956.658.381.153.82.23 1.317.23zm1.863-3.962h-3.863c.033-.323.11-.594.23-.813.12-.22.273-.398.46-.535.186-.136.401-.233.645-.291.245-.058.503-.087.777-.087.505 0 .912.15 1.223.453.31.302.486.727.528 1.273zm7.588 3.813v-.832h-2.384v-3.664c.05-.075.128-.166.236-.273.107-.108.238-.216.391-.323.153-.108.333-.199.54-.273.207-.075.44-.112.696-.112.273 0 .461.124.565.372.103.249.155.638.155 1.168l.87-.013c0-.372-.017-.705-.05-1-.033-.293-.097-.544-.193-.75-.095-.208-.227-.365-.397-.473-.17-.107-.395-.161-.677-.161-.48 0-.894.09-1.242.273-.348.182-.662.402-.944.658h-.062l-.199-.807h-2.322v.832h1.676v4.546h-1.676v.832h5.017zm11.34 0v-3.304c.041.009.112.017.211.025.1.008.2.015.304.019.104.004.203.006.298.006h.205c.43 0 .849-.05 1.255-.15.405-.098.766-.262 1.08-.49.315-.227.567-.523.758-.888.19-.364.286-.811.286-1.341 0-.538-.102-.981-.305-1.329s-.466-.621-.788-.82c-.323-.198-.681-.335-1.075-.41-.393-.074-.78-.111-1.161-.111-.356 0-.716.012-1.08.037-.365.025-.704.074-1.019.149v8.607h1.03zm.969-4.173h-.2c-.09 0-.185-.002-.285-.006l-.285-.013c-.092-.004-.158-.014-.2-.03v-3.603c.117-.033.274-.053.473-.062.199-.008.406-.012.62-.012.266 0 .53.029.796.087.265.058.503.155.714.292.211.136.38.318.51.546.127.228.192.511.192.85 0 .398-.069.725-.205.982-.137.257-.317.456-.54.596-.224.141-.475.238-.752.292-.277.054-.557.08-.838.08zm10.047 4.173v-.832h-2.384v-3.664c.05-.075.128-.166.236-.273.107-.108.238-.216.391-.323.153-.108.333-.199.54-.273.207-.075.44-.112.696-.112.273 0 .461.124.565.372.103.249.155.638.155 1.168l.87-.013c0-.372-.017-.705-.05-1-.033-.293-.097-.544-.193-.75-.095-.208-.227-.365-.397-.473-.17-.107-.395-.161-.677-.161-.48 0-.894.09-1.242.273-.348.182-.662.402-.944.658h-.062l-.199-.807h-2.322v.832h1.676v4.546h-1.676v.832h5.017zm5.341.149c.48 0 .909-.077 1.285-.23.377-.153.694-.37.95-.652.257-.281.452-.623.584-1.024.133-.402.2-.851.2-1.348 0-.455-.061-.882-.181-1.28-.12-.397-.304-.74-.553-1.03-.248-.29-.56-.52-.937-.69-.377-.17-.826-.254-1.348-.254-.969 0-1.714.292-2.236.876-.521.583-.782 1.376-.782 2.378 0 .455.06.882.18 1.28.12.397.304.74.553 1.03.248.29.563.52.944.69.38.17.828.254 1.341.254zm0-.832c-.364 0-.673-.07-.925-.211-.253-.141-.458-.327-.615-.56-.157-.231-.271-.492-.342-.782-.07-.29-.105-.58-.105-.869 0-.803.165-1.408.497-1.813.33-.406.828-.609 1.49-.609.364 0 .673.07.925.211.253.141.46.327.621.56.162.231.278.49.348.775.07.286.106.578.106.876 0 .795-.168 1.397-.503 1.807-.336.41-.835.615-1.497.615zm9.837.683v-.832h-2.571v-4.546h2.57v-.832h-2.57c0-.613.1-1.054.298-1.323.198-.269.571-.403 1.118-.403.165 0 .347.014.546.043.199.03.406.09.621.18l.224-.807c-.249-.1-.48-.166-.696-.199-.215-.033-.46-.05-.733-.05-.753 0-1.333.174-1.738.522-.406.348-.61.91-.61 1.69v.347h-1.477v.832h1.478v4.546h-1.478v.832h5.018zm5.266-7.204c.24 0 .44-.074.602-.223.162-.15.242-.331.242-.547 0-.223-.08-.416-.242-.577-.161-.162-.362-.242-.602-.242-.232 0-.423.08-.572.242-.149.161-.223.354-.223.577 0 .216.074.398.223.547.15.149.34.223.572.223zm2.645 7.204v-.832h-2.111V14.63h-3.155v.832h2.161v4.546h-2.16v.832h5.265zm5.366.161c.14 0 .294-.016.46-.05.165-.032.33-.08.496-.142.166-.062.327-.139.484-.23.158-.09.303-.194.435-.31l-.447-.683c-.257.198-.49.34-.702.422-.21.083-.432.124-.664.124-.331 0-.582-.103-.752-.31-.17-.207-.254-.563-.254-1.069v-6.607h-2.062v.832h1.093v5.775c0 .423.041.777.124 1.062.083.286.205.516.367.69.161.174.362.3.602.378.24.08.513.118.82.118zm6.806-.012c.265 0 .528-.023.788-.068.261-.046.512-.11.752-.193s.461-.182.664-.298c.203-.116.38-.24.528-.372l-.385-.708c-.083.074-.2.157-.354.248-.153.091-.329.174-.528.248-.198.075-.407.14-.627.193-.22.054-.44.08-.664.08-.671 0-1.207-.184-1.609-.552-.401-.369-.602-.925-.602-1.67h4.806c.042-.704-.008-1.278-.149-1.72-.14-.444-.341-.791-.602-1.044-.26-.253-.56-.424-.9-.515-.34-.091-.684-.137-1.031-.137-.48 0-.915.072-1.304.217-.39.145-.72.354-.994.628-.273.273-.482.612-.627 1.018-.145.406-.218.87-.218 1.391 0 .497.067.944.2 1.341.132.398.326.74.583 1.025.257.286.575.505.956.658.381.153.82.23 1.317.23zm1.863-3.962h-3.863c.033-.323.11-.594.23-.813.12-.22.273-.398.46-.535.186-.136.401-.233.645-.291.245-.058.503-.087.777-.087.505 0 .912.15 1.223.453.31.302.486.727.528 1.273zm14.568 6.446l.31-.857c-.397-.083-.792-.23-1.185-.44-.393-.212-.75-.506-1.068-.883-.32-.376-.576-.848-.77-1.416-.195-.567-.292-1.252-.292-2.055 0-.795.08-1.472.242-2.03.161-.56.39-1.027.683-1.404.294-.377.644-.68 1.05-.907.405-.228.852-.412 1.34-.553l-.31-.782c-.538.116-1.049.313-1.533.59-.485.277-.91.646-1.273 1.105-.365.46-.655 1.019-.87 1.677-.215.658-.323 1.426-.323 2.304 0 .886.106 1.652.317 2.298.211.645.497 1.192.857 1.64.36.446.782.808 1.267 1.086.484.277 1.004.486 1.558.627zm8.794-2.633v-.92h-2.472v-6.855h2.472v-.919h-5.962v.92h2.46v6.855h-2.46v.919h5.962zm5.167.149c.546 0 1.01-.064 1.39-.192.381-.129.696-.288.944-.479l-.012-.024v-1.677h-.919v1.242c-.157.066-.33.118-.515.155-.187.037-.388.056-.603.056-.422 0-.805-.075-1.149-.224-.343-.149-.637-.372-.881-.67-.245-.298-.435-.671-.572-1.118-.136-.447-.205-.969-.205-1.565 0-.662.077-1.221.23-1.677.153-.455.356-.824.609-1.105.252-.282.542-.484.869-.609.327-.124.66-.186 1-.186.24 0 .445.015.615.044.17.028.325.072.465.13v1.329h.92v-1.963h-.013c-.116-.074-.234-.14-.354-.198-.12-.058-.259-.106-.416-.143-.157-.037-.34-.066-.547-.087-.207-.02-.45-.031-.732-.031-.514 0-.996.083-1.447.248-.451.166-.847.429-1.186.789-.34.36-.609.824-.808 1.391-.198.567-.298 1.257-.298 2.068 0 .778.09 1.451.267 2.018.178.567.429 1.033.752 1.398.323.364.706.635 1.149.813.443.178.925.267 1.447.267zm5.303-.149v-3.304c.041.009.112.017.211.025.1.008.2.015.304.019.104.004.203.006.298.006h.205c.43 0 .849-.05 1.255-.15.405-.098.766-.262 1.08-.49.315-.227.567-.523.758-.888.19-.364.286-.811.286-1.341 0-.538-.102-.981-.305-1.329s-.465-.621-.788-.82c-.323-.198-.681-.335-1.075-.41-.393-.074-.78-.111-1.161-.111-.356 0-.716.012-1.08.037-.365.025-.704.074-1.019.149v8.607h1.03zm.969-4.173h-.2c-.09 0-.185-.002-.285-.006l-.285-.013c-.091-.004-.158-.014-.2-.03v-3.603c.117-.033.274-.053.473-.062.199-.008.406-.012.62-.012.266 0 .53.029.796.087.265.058.503.155.714.292.211.136.38.318.51.546.127.228.192.511.192.85 0 .398-.069.725-.205.982-.137.257-.317.456-.54.596-.224.141-.475.238-.752.292-.277.054-.557.08-.838.08zm6.297 6.806c.554-.14 1.074-.35 1.558-.627.485-.278.907-.64 1.267-1.087.36-.447.646-.994.857-1.64.211-.645.317-1.411.317-2.297 0-.878-.108-1.646-.323-2.304-.215-.658-.505-1.217-.87-1.677-.364-.46-.788-.828-1.273-1.105-.484-.277-.995-.474-1.533-.59l-.31.782c.488.141.935.325 1.34.553.406.228.756.53 1.05.907.294.377.522.844.683 1.403.161.56.242 1.236.242 2.03 0 .804-.097 1.49-.292 2.056-.194.568-.45 1.04-.77 1.416-.318.377-.675.671-1.068.882-.393.211-.788.358-1.186.441l.31.857z" transform="translate(-278 -286) translate(278 -699) translate(0 1007) translate(0 124)"/>
                        </g>
                        <g>
                            <path fill="#F5F5F7" d="M8 0h238c4.418 0 8 3.582 8 8v32c0 4.418-3.582 8-8 8H8c-4.418 0-8-3.582-8-8V8c0-4.418 3.582-8 8-8z" transform="translate(-278 -286) translate(278 -699) translate(0 1007) translate(181 53)"/>
                            <path fill="#7663DA" fill-rule="nonzero" d="M30.408 30.216c.792 0 1.464-.093 2.016-.279.552-.186 1.008-.417 1.368-.693l-.018-.036v-2.43h-1.332v1.8c-.228.096-.477.171-.747.225-.27.054-.561.081-.873.081-.612 0-1.167-.108-1.665-.324-.498-.216-.924-.54-1.278-.972-.354-.432-.63-.972-.828-1.62-.198-.648-.297-1.404-.297-2.268 0-.96.111-1.77.333-2.43.222-.66.516-1.194.882-1.602.366-.408.786-.702 1.26-.882.474-.18.957-.27 1.449-.27.348 0 .645.021.891.063.246.042.471.105.675.189v1.926h1.332V17.85h-.018c-.168-.108-.339-.204-.513-.288-.174-.084-.375-.153-.603-.207-.228-.054-.492-.096-.792-.126-.3-.03-.654-.045-1.062-.045-.744 0-1.443.12-2.097.36-.654.24-1.227.621-1.719 1.143s-.882 1.194-1.17 2.016c-.288.822-.432 1.821-.432 2.997 0 1.128.129 2.103.387 2.925.258.822.621 1.497 1.089 2.025.468.528 1.023.921 1.665 1.179.642.258 1.341.387 2.097.387zm9.162 0c.732 0 1.356-.162 1.872-.486.516-.324.93-.744 1.242-1.26h.072L42.81 30h2.394v-1.17h-1.206c-.072-.54-.108-1.104-.108-1.692V21h-2.556v1.206h1.152v4.662c-.24.612-.591 1.122-1.053 1.53-.462.408-1.005.612-1.629.612-.432 0-.777-.069-1.035-.207-.258-.138-.453-.342-.585-.612-.132-.27-.219-.6-.261-.99-.042-.39-.063-.831-.063-1.323V21h-2.61v1.206h1.206v3.96c0 .78.06 1.431.18 1.953s.306.939.558 1.251c.252.312.573.531.963.657s.861.189 1.413.189zm11.394 0c1.308 0 2.289-.27 2.943-.81.654-.54.981-1.224.981-2.052 0-.552-.15-.99-.45-1.314-.3-.324-.672-.582-1.116-.774-.444-.192-.927-.339-1.449-.441-.522-.102-1.005-.21-1.449-.324-.444-.114-.816-.255-1.116-.423-.3-.168-.45-.408-.45-.72 0-.252.063-.465.189-.639s.294-.315.504-.423c.21-.108.444-.189.702-.243.258-.054.519-.081.783-.081.696 0 1.275.099 1.737.297.462.198.891.405 1.287.621l.576-1.134c-.36-.228-.843-.447-1.449-.657-.606-.21-1.329-.315-2.169-.315-.468 0-.918.051-1.35.153-.432.102-.81.258-1.134.468-.324.21-.585.477-.783.801-.198.324-.297.714-.297 1.17 0 .552.15.981.45 1.287.3.306.672.549 1.116.729.444.18.927.324 1.449.432.522.108 1.005.225 1.449.351.444.126.816.294 1.116.504.3.21.45.507.45.891 0 .264-.063.489-.189.675-.126.186-.297.336-.513.45-.216.114-.465.198-.747.252-.282.054-.585.081-.909.081-.336 0-.669-.036-.999-.108-.33-.072-.639-.168-.927-.288-.288-.12-.552-.255-.792-.405-.24-.15-.432-.297-.576-.441l-.72 1.17c.18.156.408.309.684.459.276.15.582.285.918.405.336.12.696.216 1.08.288.384.072.774.108 1.17.108zm11.682.018c.612 0 1.209-.102 1.791-.306.582-.204 1.083-.474 1.503-.81l-.468-1.062c-.324.24-.687.462-1.089.666-.402.204-.873.306-1.413.306-.792 0-1.401-.21-1.827-.63-.426-.42-.639-1.068-.639-1.944v-4.248h4.806V21h-4.806v-2.178l-1.404.396V21h-2.142v1.206H59.1v4.464c0 .624.096 1.161.288 1.611.192.45.45.819.774 1.107.324.288.699.501 1.125.639.426.138.879.207 1.359.207zm9.954-.018c.696 0 1.317-.111 1.863-.333.546-.222 1.005-.537 1.377-.945.372-.408.654-.903.846-1.485.192-.582.288-1.233.288-1.953 0-.66-.087-1.278-.261-1.854-.174-.576-.441-1.074-.801-1.494-.36-.42-.813-.753-1.359-.999s-1.197-.369-1.953-.369c-1.404 0-2.484.423-3.24 1.269-.756.846-1.134 1.995-1.134 3.447 0 .66.087 1.278.261 1.854.174.576.441 1.074.801 1.494.36.42.816.753 1.368.999.552.246 1.2.369 1.944.369zm0-1.206c-.528 0-.975-.102-1.341-.306-.366-.204-.663-.474-.891-.81-.228-.336-.393-.714-.495-1.134-.102-.42-.153-.84-.153-1.26 0-1.164.24-2.04.72-2.628.48-.588 1.2-.882 2.16-.882.528 0 .975.102 1.341.306.366.204.666.474.9.81.234.336.402.711.504 1.125.102.414.153.837.153 1.269 0 1.152-.243 2.025-.729 2.619-.486.594-1.209.891-2.169.891zm7.506.99v-6.192c.144-.504.357-.924.639-1.26.282-.336.627-.504 1.035-.504.204 0 .369.054.495.162.126.108.222.255.288.441.066.186.108.396.126.63.018.234.027.477.027.729V30h1.368v-6.012c.144-.624.36-1.104.648-1.44.288-.336.642-.504 1.062-.504.192 0 .345.048.459.144.114.096.204.228.27.396.066.168.111.363.135.585.024.222.036.459.036.711V30h1.368v-6.426c0-.42-.027-.801-.081-1.143-.054-.342-.15-.636-.288-.882-.138-.246-.33-.435-.576-.567-.246-.132-.567-.198-.963-.198-.6 0-1.071.132-1.413.396-.342.264-.651.63-.927 1.098-.036-.276-.114-.51-.234-.702-.12-.192-.261-.345-.423-.459-.162-.114-.339-.198-.531-.252-.192-.054-.378-.081-.558-.081-.312 0-.57.033-.774.099-.204.066-.381.159-.531.279-.15.12-.282.261-.396.423-.114.162-.231.333-.351.513h-.072L79.674 21h-.936v9h1.368zm14.256.216c.384 0 .765-.033 1.143-.099s.741-.159 1.089-.279c.348-.12.669-.264.963-.432.294-.168.549-.348.765-.54l-.558-1.026c-.12.108-.291.228-.513.36-.222.132-.477.252-.765.36-.288.108-.591.201-.909.279-.318.078-.639.117-.963.117-.972 0-1.749-.267-2.331-.801-.582-.534-.873-1.341-.873-2.421h6.966c.06-1.02-.012-1.851-.216-2.493-.204-.642-.495-1.146-.873-1.512-.378-.366-.813-.615-1.305-.747s-.99-.198-1.494-.198c-.696 0-1.326.105-1.89.315-.564.21-1.044.513-1.44.909-.396.396-.699.888-.909 1.476-.21.588-.315 1.26-.315 2.016 0 .72.096 1.368.288 1.944.192.576.474 1.071.846 1.485.372.414.834.732 1.386.954.552.222 1.188.333 1.908.333zm2.7-5.742h-5.598c.048-.468.159-.861.333-1.179.174-.318.396-.576.666-.774.27-.198.582-.339.936-.423.354-.084.729-.126 1.125-.126.732 0 1.323.219 1.773.657.45.438.705 1.053.765 1.845zM108.06 30v-1.206h-3.456v-5.31c.072-.108.186-.24.342-.396.156-.156.345-.312.567-.468.222-.156.483-.288.783-.396.3-.108.636-.162 1.008-.162.396 0 .669.18.819.54.15.36.225.924.225 1.692l1.26-.018c0-.54-.024-1.023-.072-1.449-.048-.426-.141-.789-.279-1.089-.138-.3-.33-.528-.576-.684-.246-.156-.573-.234-.981-.234-.696 0-1.296.132-1.8.396s-.96.582-1.368.954h-.09l-.288-1.17h-3.366v1.206h2.43v6.588h-2.43V30h7.272zm18.522.216c1.56 0 2.709-.564 3.447-1.692.738-1.128 1.107-2.736 1.107-4.824 0-.984-.078-1.875-.234-2.673-.156-.798-.414-1.482-.774-2.052-.36-.57-.831-1.011-1.413-1.323-.582-.312-1.293-.468-2.133-.468-1.536 0-2.673.564-3.411 1.692-.738 1.128-1.107 2.736-1.107 4.824 0 .984.078 1.875.234 2.673.156.798.414 1.482.774 2.052.36.57.828 1.011 1.404 1.323.576.312 1.278.468 2.106.468zm0-1.332c-.576 0-1.05-.141-1.422-.423-.372-.282-.672-.66-.9-1.134-.228-.474-.387-1.023-.477-1.647-.09-.624-.135-1.284-.135-1.98 0-1.764.234-3.069.702-3.915.468-.846 1.212-1.269 2.232-1.269.576 0 1.056.141 1.44.423.384.282.69.66.918 1.134.228.474.387 1.026.477 1.656.09.63.135 1.287.135 1.971 0 1.776-.237 3.084-.711 3.924-.474.84-1.227 1.26-2.259 1.26zM135.06 30v-5.652c.084-.3.216-.585.396-.855.18-.27.39-.507.63-.711.24-.204.507-.369.801-.495.294-.126.597-.189.909-.189.852 0 1.44.252 1.764.756.324.504.486 1.254.486 2.25V30h1.404v-5.166c0-.804-.072-1.467-.216-1.989-.144-.522-.357-.936-.639-1.242-.282-.306-.636-.519-1.062-.639-.426-.12-.915-.18-1.467-.18-.36 0-.702.048-1.026.144-.324.096-.618.225-.882.387s-.495.342-.693.54c-.198.198-.357.399-.477.603h-.09L134.736 21h-2.412v1.17h1.206c.024.132.045.288.063.468.018.18.033.363.045.549.012.186.021.366.027.54.006.174.009.315.009.423V30h1.386zm12.6.144c1.572 0 2.784-.411 3.636-1.233.852-.822 1.278-2.007 1.278-3.555 0-3.048-1.32-4.572-3.96-4.572-.576 0-1.11.108-1.602.324-.492.216-.894.522-1.206.918h-.09V17.4h-2.88v1.206h1.494v10.818c.276.192.714.36 1.314.504.6.144 1.272.216 2.016.216zm.252-1.206c-.42 0-.822-.042-1.206-.126-.384-.084-.714-.198-.99-.342v-4.14c.204-.744.528-1.32.972-1.728.444-.408 1.026-.612 1.746-.612.48 0 .888.087 1.224.261.336.174.609.414.819.72.21.306.363.663.459 1.071.096.408.144.84.144 1.296 0 .624-.075 1.164-.225 1.62-.15.456-.363.831-.639 1.125-.276.294-.609.51-.999.648s-.825.207-1.305.207zM159 30.216c.696 0 1.317-.111 1.863-.333.546-.222 1.005-.537 1.377-.945.372-.408.654-.903.846-1.485.192-.582.288-1.233.288-1.953 0-.66-.087-1.278-.261-1.854-.174-.576-.441-1.074-.801-1.494-.36-.42-.813-.753-1.359-.999s-1.197-.369-1.953-.369c-1.404 0-2.484.423-3.24 1.269-.756.846-1.134 1.995-1.134 3.447 0 .66.087 1.278.261 1.854.174.576.441 1.074.801 1.494.36.42.816.753 1.368.999.552.246 1.2.369 1.944.369zm0-1.206c-.528 0-.975-.102-1.341-.306-.366-.204-.663-.474-.891-.81-.228-.336-.393-.714-.495-1.134-.102-.42-.153-.84-.153-1.26 0-1.164.24-2.04.72-2.628.48-.588 1.2-.882 2.16-.882.528 0 .975.102 1.341.306.366.204.666.474.9.81.234.336.402.711.504 1.125.102.414.153.837.153 1.269 0 1.152-.243 2.025-.729 2.619-.486.594-1.209.891-2.169.891zm9.63 1.152c.456 0 .852-.06 1.188-.18.336-.12.621-.261.855-.423.234-.162.423-.327.567-.495.144-.168.252-.306.324-.414h.09l.162 1.35h2.394v-1.17h-1.206c-.072-.54-.108-1.11-.108-1.71.012-.516.03-1.032.054-1.548s.036-1.002.036-1.458c0-.396-.039-.789-.117-1.179-.078-.39-.228-.738-.45-1.044-.222-.306-.528-.555-.918-.747-.39-.192-.891-.288-1.503-.288-.624 0-1.26.066-1.908.198-.648.132-1.23.348-1.746.648l.45 1.044c.384-.156.822-.309 1.314-.459.492-.15 1.008-.225 1.548-.225.396 0 .729.045.999.135.27.09.48.243.63.459.15.216.246.507.288.873.042.366.033.825-.027 1.377-.888-.132-1.689-.18-2.403-.144-.714.036-1.323.162-1.827.378s-.891.528-1.161.936c-.27.408-.405.918-.405 1.53 0 .792.258 1.416.774 1.872.516.456 1.218.684 2.106.684zm.36-1.206c-.636 0-1.089-.147-1.359-.441-.27-.294-.405-.639-.405-1.035 0-.384.108-.696.324-.936.216-.24.516-.417.9-.531.384-.114.84-.171 1.368-.171.528 0 1.104.054 1.728.162v1.26c-.072.18-.18.369-.324.567-.144.198-.324.381-.54.549-.216.168-.468.306-.756.414-.288.108-.6.162-.936.162zM183.66 30v-1.206h-3.456v-5.31c.072-.108.186-.24.342-.396.156-.156.345-.312.567-.468.222-.156.483-.288.783-.396.3-.108.636-.162 1.008-.162.396 0 .669.18.819.54.15.36.225.924.225 1.692l1.26-.018c0-.54-.024-1.023-.072-1.449-.048-.426-.141-.789-.279-1.089-.138-.3-.33-.528-.576-.684-.246-.156-.573-.234-.981-.234-.696 0-1.296.132-1.8.396s-.96.582-1.368.954h-.09l-.288-1.17h-3.366v1.206h2.43v6.588h-2.43V30h7.272zm7.308.216c.684 0 1.287-.153 1.809-.459.522-.306.915-.687 1.179-1.143h.072l.18 1.386h2.394v-1.17h-1.206c-.024-.132-.048-.285-.072-.459-.024-.174-.045-.351-.063-.531-.018-.18-.033-.351-.045-.513-.012-.162-.018-.297-.018-.405V17.4h-2.916v1.206h1.512v2.556c-.18-.048-.345-.093-.495-.135-.15-.042-.309-.075-.477-.099-.168-.024-.351-.042-.549-.054-.198-.012-.423-.018-.675-.018-.696 0-1.326.102-1.89.306-.564.204-1.047.501-1.449.891-.402.39-.711.876-.927 1.458-.216.582-.324 1.251-.324 2.007 0 1.608.321 2.793.963 3.555.642.762 1.641 1.143 2.997 1.143zm.234-1.206c-.504 0-.93-.09-1.278-.27-.348-.18-.627-.426-.837-.738-.21-.312-.36-.681-.45-1.107-.09-.426-.135-.885-.135-1.377 0-1.2.276-2.079.828-2.637.552-.558 1.308-.837 2.268-.837.54 0 .975.042 1.305.126.33.084.627.216.891.396v4.176c-.156.756-.444 1.323-.864 1.701-.42.378-.996.567-1.728.567zm11.286-9.45c.348 0 .639-.108.873-.324.234-.216.351-.48.351-.792 0-.324-.117-.603-.351-.837-.234-.234-.525-.351-.873-.351-.336 0-.612.117-.828.351-.216.234-.324.513-.324.837 0 .312.108.576.324.792.216.216.492.324.828.324zM206.322 30v-1.206h-3.06V21h-4.572v1.206h3.132v6.588h-3.132V30h7.632zm4.338 0v-5.652c.084-.3.216-.585.396-.855.18-.27.39-.507.63-.711.24-.204.507-.369.801-.495.294-.126.597-.189.909-.189.852 0 1.44.252 1.764.756.324.504.486 1.254.486 2.25V30h1.404v-5.166c0-.804-.072-1.467-.216-1.989-.144-.522-.357-.936-.639-1.242-.282-.306-.636-.519-1.062-.639-.426-.12-.915-.18-1.467-.18-.36 0-.702.048-1.026.144-.324.096-.618.225-.882.387s-.495.342-.693.54c-.198.198-.357.399-.477.603h-.09L210.336 21h-2.412v1.17h1.206c.024.132.045.288.063.468.018.18.033.363.045.549.012.186.021.366.027.54.006.174.009.315.009.423V30h1.386zm12.996 3.816c.588 0 1.134-.069 1.638-.207.504-.138.945-.345 1.323-.621s.675-.627.891-1.053c.216-.426.324-.921.324-1.485v-9.054c-.432-.156-.909-.285-1.431-.387-.522-.102-1.155-.153-1.899-.153-1.608 0-2.82.393-3.636 1.179-.816.786-1.224 1.947-1.224 3.483 0 1.608.321 2.793.963 3.555.642.762 1.647 1.143 3.015 1.143.684 0 1.242-.108 1.674-.324.432-.216.786-.522 1.062-.918h.072v1.008c0 .468-.048.864-.144 1.188-.096.324-.252.588-.468.792-.216.204-.501.354-.855.45-.354.096-.795.144-1.323.144-.252 0-.507-.024-.765-.072-.258-.048-.501-.111-.729-.189-.228-.078-.429-.162-.603-.252s-.315-.183-.423-.279l-.684 1.278c.384.228.84.414 1.368.558.528.144 1.146.216 1.854.216zm.162-4.806c-.504 0-.927-.087-1.269-.261-.342-.174-.618-.417-.828-.729-.21-.312-.363-.681-.459-1.107-.096-.426-.144-.897-.144-1.413 0-1.164.276-2.028.828-2.592.552-.564 1.308-.846 2.268-.846.948 0 1.686.126 2.214.378v4.266c-.168.78-.462 1.359-.882 1.737-.42.378-.996.567-1.728.567z" transform="translate(-278 -286) translate(278 -699) translate(0 1007) translate(181 53)"/>
                        </g>
                        <g>
                            <g transform="translate(-278 -286) translate(278 -699) translate(0 1007) translate(86)">
                                <use fill="#000" filter="url(#3sld1yyf5a)" xlink:href="#t7evf76cob"/>
                                <use fill="#FFF" xlink:href="#t7evf76cob"/>
                            </g>
                            <g>
                                <g transform="translate(-278 -286) translate(278 -699) translate(0 1007) translate(86) translate(16 16)">
                                    <use fill="#000" filter="url(#xuyi0jyz6c)" xlink:href="#7d2nh2xjld"/>
                                    <use fill="#EAE6FD" xlink:href="#7d2nh2xjld"/>
                                </g>
                                <g>
                                    <path d="M0 0H24V24H0z" transform="translate(-278 -286) translate(278 -699) translate(0 1007) translate(86) translate(16 16) translate(8 8)"/>
                                    <g fill="#6E5BD8" stroke-linecap="round" stroke-linejoin="round">
                                        <path d="M11.293-.707c.39-.39 1.024-.39 1.414 0 .36.36.388.928.083 1.32l-.083.094-8 8c-.36.36-.928.388-1.32.083l-.094-.083-4-4c-.39-.39-.39-1.024 0-1.414.36-.36.928-.388 1.32-.083l.094.083L4 6.585l7.293-7.292z" transform="translate(-278 -286) translate(278 -699) translate(0 1007) translate(86) translate(16 16) translate(8 8) translate(6 8)"/>
                                    </g>
                                </g>
                            </g>
                        </g>
                        <g>
                            <path fill="#F5F5F7" d="M8 0h86c4.418 0 8 3.582 8 8v32c0 4.418-3.582 8-8 8H8c-4.418 0-8-3.582-8-8V8c0-4.418 3.582-8 8-8z" transform="translate(-278 -286) translate(278 -699) translate(0 1007) translate(780 110)"/>
                            <path fill="#7663DA" fill-rule="nonzero" d="M30.408 30.216c.792 0 1.464-.093 2.016-.279.552-.186 1.008-.417 1.368-.693l-.018-.036v-2.43h-1.332v1.8c-.228.096-.477.171-.747.225-.27.054-.561.081-.873.081-.612 0-1.167-.108-1.665-.324-.498-.216-.924-.54-1.278-.972-.354-.432-.63-.972-.828-1.62-.198-.648-.297-1.404-.297-2.268 0-.96.111-1.77.333-2.43.222-.66.516-1.194.882-1.602.366-.408.786-.702 1.26-.882.474-.18.957-.27 1.449-.27.348 0 .645.021.891.063.246.042.471.105.675.189v1.926h1.332V17.85h-.018c-.168-.108-.339-.204-.513-.288-.174-.084-.375-.153-.603-.207-.228-.054-.492-.096-.792-.126-.3-.03-.654-.045-1.062-.045-.744 0-1.443.12-2.097.36-.654.24-1.227.621-1.719 1.143s-.882 1.194-1.17 2.016c-.288.822-.432 1.821-.432 2.997 0 1.128.129 2.103.387 2.925.258.822.621 1.497 1.089 2.025.468.528 1.023.921 1.665 1.179.642.258 1.341.387 2.097.387zm10.89.018c.204 0 .426-.024.666-.072.24-.048.48-.117.72-.207.24-.09.474-.201.702-.333.228-.132.438-.282.63-.45l-.648-.99c-.372.288-.711.492-1.017.612-.306.12-.627.18-.963.18-.48 0-.843-.15-1.089-.45-.246-.3-.369-.816-.369-1.548V17.4h-2.988v1.206h1.584v8.37c0 .612.06 1.125.18 1.539.12.414.297.747.531.999.234.252.525.435.873.549.348.114.744.171 1.188.171zM51 30.216c.696 0 1.317-.111 1.863-.333.546-.222 1.005-.537 1.377-.945.372-.408.654-.903.846-1.485.192-.582.288-1.233.288-1.953 0-.66-.087-1.278-.261-1.854-.174-.576-.441-1.074-.801-1.494-.36-.42-.813-.753-1.359-.999s-1.197-.369-1.953-.369c-1.404 0-2.484.423-3.24 1.269-.756.846-1.134 1.995-1.134 3.447 0 .66.087 1.278.261 1.854.174.576.441 1.074.801 1.494.36.42.816.753 1.368.999.552.246 1.2.369 1.944.369zm0-1.206c-.528 0-.975-.102-1.341-.306-.366-.204-.663-.474-.891-.81-.228-.336-.393-.714-.495-1.134-.102-.42-.153-.84-.153-1.26 0-1.164.24-2.04.72-2.628.48-.588 1.2-.882 2.16-.882.528 0 .975.102 1.341.306.366.204.666.474.9.81.234.336.402.711.504 1.125.102.414.153.837.153 1.269 0 1.152-.243 2.025-.729 2.619-.486.594-1.209.891-2.169.891zm10.17 1.206c.732 0 1.356-.162 1.872-.486.516-.324.93-.744 1.242-1.26h.072L64.41 30h2.394v-1.17h-1.206c-.072-.54-.108-1.104-.108-1.692V21h-2.556v1.206h1.152v4.662c-.24.612-.591 1.122-1.053 1.53-.462.408-1.005.612-1.629.612-.432 0-.777-.069-1.035-.207-.258-.138-.453-.342-.585-.612-.132-.27-.219-.6-.261-.99-.042-.39-.063-.831-.063-1.323V21h-2.61v1.206h1.206v3.96c0 .78.06 1.431.18 1.953s.306.939.558 1.251c.252.312.573.531.963.657s.861.189 1.413.189zm10.998 0c.684 0 1.287-.153 1.809-.459.522-.306.915-.687 1.179-1.143h.072l.18 1.386h2.394v-1.17h-1.206c-.024-.132-.048-.285-.072-.459-.024-.174-.045-.351-.063-.531-.018-.18-.033-.351-.045-.513-.012-.162-.018-.297-.018-.405V17.4h-2.916v1.206h1.512v2.556c-.18-.048-.345-.093-.495-.135-.15-.042-.309-.075-.477-.099-.168-.024-.351-.042-.549-.054-.198-.012-.423-.018-.675-.018-.696 0-1.326.102-1.89.306-.564.204-1.047.501-1.449.891-.402.39-.711.876-.927 1.458-.216.582-.324 1.251-.324 2.007 0 1.608.321 2.793.963 3.555.642.762 1.641 1.143 2.997 1.143zm.234-1.206c-.504 0-.93-.09-1.278-.27-.348-.18-.627-.426-.837-.738-.21-.312-.36-.681-.45-1.107-.09-.426-.135-.885-.135-1.377 0-1.2.276-2.079.828-2.637.552-.558 1.308-.837 2.268-.837.54 0 .975.042 1.305.126.33.084.627.216.891.396v4.176c-.156.756-.444 1.323-.864 1.701-.42.378-.996.567-1.728.567z" transform="translate(-278 -286) translate(278 -699) translate(0 1007) translate(780 110)"/>
                        </g>
                        <g>
                            <g transform="translate(-278 -286) translate(278 -699) translate(0 1007) translate(1089 124)">
                                <use fill="#000" filter="url(#g59gzol2de)" xlink:href="#qf4yawf62f"/>
                                <use fill="#6F5BD8" xlink:href="#qf4yawf62f"/>
                            </g>
                            <path fill="#FFF" fill-rule="nonzero" d="M30.408 30.216c.792 0 1.464-.093 2.016-.279.552-.186 1.008-.417 1.368-.693l-.018-.036v-2.43h-1.332v1.8c-.228.096-.477.171-.747.225-.27.054-.561.081-.873.081-.612 0-1.167-.108-1.665-.324-.498-.216-.924-.54-1.278-.972-.354-.432-.63-.972-.828-1.62-.198-.648-.297-1.404-.297-2.268 0-.96.111-1.77.333-2.43.222-.66.516-1.194.882-1.602.366-.408.786-.702 1.26-.882.474-.18.957-.27 1.449-.27.348 0 .645.021.891.063.246.042.471.105.675.189v1.926h1.332V17.85h-.018c-.168-.108-.339-.204-.513-.288-.174-.084-.375-.153-.603-.207-.228-.054-.492-.096-.792-.126-.3-.03-.654-.045-1.062-.045-.744 0-1.443.12-2.097.36-.654.24-1.227.621-1.719 1.143s-.882 1.194-1.17 2.016c-.288.822-.432 1.821-.432 2.997 0 1.128.129 2.103.387 2.925.258.822.621 1.497 1.089 2.025.468.528 1.023.921 1.665 1.179.642.258 1.341.387 2.097.387zm9.162 0c.732 0 1.356-.162 1.872-.486.516-.324.93-.744 1.242-1.26h.072L42.81 30h2.394v-1.17h-1.206c-.072-.54-.108-1.104-.108-1.692V21h-2.556v1.206h1.152v4.662c-.24.612-.591 1.122-1.053 1.53-.462.408-1.005.612-1.629.612-.432 0-.777-.069-1.035-.207-.258-.138-.453-.342-.585-.612-.132-.27-.219-.6-.261-.99-.042-.39-.063-.831-.063-1.323V21h-2.61v1.206h1.206v3.96c0 .78.06 1.431.18 1.953s.306.939.558 1.251c.252.312.573.531.963.657s.861.189 1.413.189zm11.394 0c1.308 0 2.289-.27 2.943-.81.654-.54.981-1.224.981-2.052 0-.552-.15-.99-.45-1.314-.3-.324-.672-.582-1.116-.774-.444-.192-.927-.339-1.449-.441-.522-.102-1.005-.21-1.449-.324-.444-.114-.816-.255-1.116-.423-.3-.168-.45-.408-.45-.72 0-.252.063-.465.189-.639s.294-.315.504-.423c.21-.108.444-.189.702-.243.258-.054.519-.081.783-.081.696 0 1.275.099 1.737.297.462.198.891.405 1.287.621l.576-1.134c-.36-.228-.843-.447-1.449-.657-.606-.21-1.329-.315-2.169-.315-.468 0-.918.051-1.35.153-.432.102-.81.258-1.134.468-.324.21-.585.477-.783.801-.198.324-.297.714-.297 1.17 0 .552.15.981.45 1.287.3.306.672.549 1.116.729.444.18.927.324 1.449.432.522.108 1.005.225 1.449.351.444.126.816.294 1.116.504.3.21.45.507.45.891 0 .264-.063.489-.189.675-.126.186-.297.336-.513.45-.216.114-.465.198-.747.252-.282.054-.585.081-.909.081-.336 0-.669-.036-.999-.108-.33-.072-.639-.168-.927-.288-.288-.12-.552-.255-.792-.405-.24-.15-.432-.297-.576-.441l-.72 1.17c.18.156.408.309.684.459.276.15.582.285.918.405.336.12.696.216 1.08.288.384.072.774.108 1.17.108zm11.682.018c.612 0 1.209-.102 1.791-.306.582-.204 1.083-.474 1.503-.81l-.468-1.062c-.324.24-.687.462-1.089.666-.402.204-.873.306-1.413.306-.792 0-1.401-.21-1.827-.63-.426-.42-.639-1.068-.639-1.944v-4.248h4.806V21h-4.806v-2.178l-1.404.396V21h-2.142v1.206H59.1v4.464c0 .624.096 1.161.288 1.611.192.45.45.819.774 1.107.324.288.699.501 1.125.639.426.138.879.207 1.359.207zm9.954-.018c.696 0 1.317-.111 1.863-.333.546-.222 1.005-.537 1.377-.945.372-.408.654-.903.846-1.485.192-.582.288-1.233.288-1.953 0-.66-.087-1.278-.261-1.854-.174-.576-.441-1.074-.801-1.494-.36-.42-.813-.753-1.359-.999s-1.197-.369-1.953-.369c-1.404 0-2.484.423-3.24 1.269-.756.846-1.134 1.995-1.134 3.447 0 .66.087 1.278.261 1.854.174.576.441 1.074.801 1.494.36.42.816.753 1.368.999.552.246 1.2.369 1.944.369zm0-1.206c-.528 0-.975-.102-1.341-.306-.366-.204-.663-.474-.891-.81-.228-.336-.393-.714-.495-1.134-.102-.42-.153-.84-.153-1.26 0-1.164.24-2.04.72-2.628.48-.588 1.2-.882 2.16-.882.528 0 .975.102 1.341.306.366.204.666.474.9.81.234.336.402.711.504 1.125.102.414.153.837.153 1.269 0 1.152-.243 2.025-.729 2.619-.486.594-1.209.891-2.169.891zm7.506.99v-6.192c.144-.504.357-.924.639-1.26.282-.336.627-.504 1.035-.504.204 0 .369.054.495.162.126.108.222.255.288.441.066.186.108.396.126.63.018.234.027.477.027.729V30h1.368v-6.012c.144-.624.36-1.104.648-1.44.288-.336.642-.504 1.062-.504.192 0 .345.048.459.144.114.096.204.228.27.396.066.168.111.363.135.585.024.222.036.459.036.711V30h1.368v-6.426c0-.42-.027-.801-.081-1.143-.054-.342-.15-.636-.288-.882-.138-.246-.33-.435-.576-.567-.246-.132-.567-.198-.963-.198-.6 0-1.071.132-1.413.396-.342.264-.651.63-.927 1.098-.036-.276-.114-.51-.234-.702-.12-.192-.261-.345-.423-.459-.162-.114-.339-.198-.531-.252-.192-.054-.378-.081-.558-.081-.312 0-.57.033-.774.099-.204.066-.381.159-.531.279-.15.12-.282.261-.396.423-.114.162-.231.333-.351.513h-.072L79.674 21h-.936v9h1.368zm14.256.216c.384 0 .765-.033 1.143-.099s.741-.159 1.089-.279c.348-.12.669-.264.963-.432.294-.168.549-.348.765-.54l-.558-1.026c-.12.108-.291.228-.513.36-.222.132-.477.252-.765.36-.288.108-.591.201-.909.279-.318.078-.639.117-.963.117-.972 0-1.749-.267-2.331-.801-.582-.534-.873-1.341-.873-2.421h6.966c.06-1.02-.012-1.851-.216-2.493-.204-.642-.495-1.146-.873-1.512-.378-.366-.813-.615-1.305-.747s-.99-.198-1.494-.198c-.696 0-1.326.105-1.89.315-.564.21-1.044.513-1.44.909-.396.396-.699.888-.909 1.476-.21.588-.315 1.26-.315 2.016 0 .72.096 1.368.288 1.944.192.576.474 1.071.846 1.485.372.414.834.732 1.386.954.552.222 1.188.333 1.908.333zm2.7-5.742h-5.598c.048-.468.159-.861.333-1.179.174-.318.396-.576.666-.774.27-.198.582-.339.936-.423.354-.084.729-.126 1.125-.126.732 0 1.323.219 1.773.657.45.438.705 1.053.765 1.845zM108.06 30v-1.206h-3.456v-5.31c.072-.108.186-.24.342-.396.156-.156.345-.312.567-.468.222-.156.483-.288.783-.396.3-.108.636-.162 1.008-.162.396 0 .669.18.819.54.15.36.225.924.225 1.692l1.26-.018c0-.54-.024-1.023-.072-1.449-.048-.426-.141-.789-.279-1.089-.138-.3-.33-.528-.576-.684-.246-.156-.573-.234-.981-.234-.696 0-1.296.132-1.8.396s-.96.582-1.368.954h-.09l-.288-1.17h-3.366v1.206h2.43v6.588h-2.43V30h7.272zm18.468.216c.672 0 1.275-.084 1.809-.252.534-.168.984-.408 1.35-.72.366-.312.648-.684.846-1.116.198-.432.297-.918.297-1.458 0-.66-.165-1.212-.495-1.656-.33-.444-.741-.825-1.233-1.143-.492-.318-1.026-.597-1.602-.837-.576-.24-1.11-.483-1.602-.729s-.903-.525-1.233-.837c-.33-.312-.495-.702-.495-1.17 0-.24.06-.468.18-.684.12-.216.291-.405.513-.567.222-.162.492-.291.81-.387.318-.096.675-.144 1.071-.144.408 0 .792.024 1.152.072.36.048.69.108.99.18v1.926h1.332v-2.88l.018-.054h-.018v-.036l-.036.018c-.348-.168-.816-.303-1.404-.405-.588-.102-1.242-.153-1.962-.153-.624 0-1.191.075-1.701.225-.51.15-.945.363-1.305.639s-.639.612-.837 1.008c-.198.396-.297.84-.297 1.332 0 .696.165 1.269.495 1.719.33.45.741.831 1.233 1.143.492.312 1.026.582 1.602.81.576.228 1.11.462 1.602.702.492.24.903.516 1.233.828.33.312.495.714.495 1.206 0 .36-.075.672-.225.936-.15.264-.354.483-.612.657-.258.174-.561.3-.909.378-.348.078-.72.117-1.116.117-.456 0-.909-.063-1.359-.189-.45-.126-.855-.285-1.215-.477V26.22h-1.332v2.916l-.018.054c.156.084.369.186.639.306s.576.234.918.342c.342.108.717.198 1.125.27.408.072.84.108 1.296.108zm10.242 0c.732 0 1.356-.162 1.872-.486.516-.324.93-.744 1.242-1.26h.072l.054 1.53h2.394v-1.17h-1.206c-.072-.54-.108-1.104-.108-1.692V21h-2.556v1.206h1.152v4.662c-.24.612-.591 1.122-1.053 1.53-.462.408-1.005.612-1.629.612-.432 0-.777-.069-1.035-.207-.258-.138-.453-.342-.585-.612-.132-.27-.219-.6-.261-.99-.042-.39-.063-.831-.063-1.323V21h-2.61v1.206h1.206v3.96c0 .78.06 1.431.18 1.953s.306.939.558 1.251c.252.312.573.531.963.657s.861.189 1.413.189zm11.862 0c.468 0 .903-.042 1.305-.126.402-.084.768-.195 1.098-.333.33-.138.621-.285.873-.441.252-.156.462-.306.63-.45l-.63-1.044c-.36.312-.807.564-1.341.756-.534.192-1.083.288-1.647.288-.528 0-1.011-.078-1.449-.234-.438-.156-.813-.378-1.125-.666-.312-.288-.552-.639-.72-1.053-.168-.414-.252-.885-.252-1.413 0-1.2.288-2.076.864-2.628.576-.552 1.452-.828 2.628-.828.312 0 .627.033.945.099.318.066.615.147.891.243v1.71h1.296v-2.502l.018-.054c-.384-.192-.855-.366-1.413-.522-.558-.156-1.281-.234-2.169-.234-.696 0-1.326.105-1.89.315-.564.21-1.044.513-1.44.909-.396.396-.699.888-.909 1.476-.21.588-.315 1.26-.315 2.016 0 .708.102 1.353.306 1.935.204.582.504 1.08.9 1.494.396.414.891.732 1.485.954.594.222 1.281.333 2.061.333zm10.8 0c.468 0 .903-.042 1.305-.126.402-.084.768-.195 1.098-.333.33-.138.621-.285.873-.441.252-.156.462-.306.63-.45l-.63-1.044c-.36.312-.807.564-1.341.756-.534.192-1.083.288-1.647.288-.528 0-1.011-.078-1.449-.234-.438-.156-.813-.378-1.125-.666-.312-.288-.552-.639-.72-1.053-.168-.414-.252-.885-.252-1.413 0-1.2.288-2.076.864-2.628.576-.552 1.452-.828 2.628-.828.312 0 .627.033.945.099.318.066.615.147.891.243v1.71h1.296v-2.502l.018-.054c-.384-.192-.855-.366-1.413-.522-.558-.156-1.281-.234-2.169-.234-.696 0-1.326.105-1.89.315-.564.21-1.044.513-1.44.909-.396.396-.699.888-.909 1.476-.21.588-.315 1.26-.315 2.016 0 .708.102 1.353.306 1.935.204.582.504 1.08.9 1.494.396.414.891.732 1.485.954.594.222 1.281.333 2.061.333zm10.53 0c.384 0 .765-.033 1.143-.099s.741-.159 1.089-.279c.348-.12.669-.264.963-.432.294-.168.549-.348.765-.54l-.558-1.026c-.12.108-.291.228-.513.36-.222.132-.477.252-.765.36-.288.108-.591.201-.909.279-.318.078-.639.117-.963.117-.972 0-1.749-.267-2.331-.801-.582-.534-.873-1.341-.873-2.421h6.966c.06-1.02-.012-1.851-.216-2.493-.204-.642-.495-1.146-.873-1.512-.378-.366-.813-.615-1.305-.747s-.99-.198-1.494-.198c-.696 0-1.326.105-1.89.315-.564.21-1.044.513-1.44.909-.396.396-.699.888-.909 1.476-.21.588-.315 1.26-.315 2.016 0 .72.096 1.368.288 1.944.192.576.474 1.071.846 1.485.372.414.834.732 1.386.954.552.222 1.188.333 1.908.333zm2.7-5.742h-5.598c.048-.468.159-.861.333-1.179.174-.318.396-.576.666-.774.27-.198.582-.339.936-.423.354-.084.729-.126 1.125-.126.732 0 1.323.219 1.773.657.45.438.705 1.053.765 1.845zm7.902 5.742c1.308 0 2.289-.27 2.943-.81.654-.54.981-1.224.981-2.052 0-.552-.15-.99-.45-1.314-.3-.324-.672-.582-1.116-.774-.444-.192-.927-.339-1.449-.441-.522-.102-1.005-.21-1.449-.324-.444-.114-.816-.255-1.116-.423-.3-.168-.45-.408-.45-.72 0-.252.063-.465.189-.639s.294-.315.504-.423c.21-.108.444-.189.702-.243.258-.054.519-.081.783-.081.696 0 1.275.099 1.737.297.462.198.891.405 1.287.621l.576-1.134c-.36-.228-.843-.447-1.449-.657-.606-.21-1.329-.315-2.169-.315-.468 0-.918.051-1.35.153-.432.102-.81.258-1.134.468-.324.21-.585.477-.783.801-.198.324-.297.714-.297 1.17 0 .552.15.981.45 1.287.3.306.672.549 1.116.729.444.18.927.324 1.449.432.522.108 1.005.225 1.449.351.444.126.816.294 1.116.504.3.21.45.507.45.891 0 .264-.063.489-.189.675-.126.186-.297.336-.513.45-.216.114-.465.198-.747.252-.282.054-.585.081-.909.081-.336 0-.669-.036-.999-.108-.33-.072-.639-.168-.927-.288-.288-.12-.552-.255-.792-.405-.24-.15-.432-.297-.576-.441l-.72 1.17c.18.156.408.309.684.459.276.15.582.285.918.405.336.12.696.216 1.08.288.384.072.774.108 1.17.108zm10.8 0c1.308 0 2.289-.27 2.943-.81.654-.54.981-1.224.981-2.052 0-.552-.15-.99-.45-1.314-.3-.324-.672-.582-1.116-.774-.444-.192-.927-.339-1.449-.441-.522-.102-1.005-.21-1.449-.324-.444-.114-.816-.255-1.116-.423-.3-.168-.45-.408-.45-.72 0-.252.063-.465.189-.639s.294-.315.504-.423c.21-.108.444-.189.702-.243.258-.054.519-.081.783-.081.696 0 1.275.099 1.737.297.462.198.891.405 1.287.621l.576-1.134c-.36-.228-.843-.447-1.449-.657-.606-.21-1.329-.315-2.169-.315-.468 0-.918.051-1.35.153-.432.102-.81.258-1.134.468-.324.21-.585.477-.783.801-.198.324-.297.714-.297 1.17 0 .552.15.981.45 1.287.3.306.672.549 1.116.729.444.18.927.324 1.449.432.522.108 1.005.225 1.449.351.444.126.816.294 1.116.504.3.21.45.507.45.891 0 .264-.063.489-.189.675-.126.186-.297.336-.513.45-.216.114-.465.198-.747.252-.282.054-.585.081-.909.081-.336 0-.669-.036-.999-.108-.33-.072-.639-.168-.927-.288-.288-.12-.552-.255-.792-.405-.24-.15-.432-.297-.576-.441l-.72 1.17c.18.156.408.309.684.459.276.15.582.285.918.405.336.12.696.216 1.08.288.384.072.774.108 1.17.108z" transform="translate(-278 -286) translate(278 -699) translate(0 1007) translate(1089 124)"/>
                        </g>
                    </g>
                    <g transform="translate(-278 -286) translate(278 -699) translate(0 1007) translate(595 76)">
                        <rect width="172.2" height="156" y="20.3" fill="#66799F" fill-opacity=".384" filter="url(#wlrer92myg)" opacity=".151" rx=".7"/>
                        <g>
                            <g opacity=".749" transform="translate(7)">
                                <use fill="#000" filter="url(#aq84rq74th)" xlink:href="#gd9gbelxzi"/>
                                <use fill="#FFF" xlink:href="#gd9gbelxzi"/>
                            </g>
                            <g transform="translate(7)">
                                <use fill="#000" filter="url(#r89uhl8ivj)" xlink:href="#u2j58qcxak"/>
                                <use fill="#FFF" xlink:href="#u2j58qcxak"/>
                            </g>
                            <g>
                                <path d="M0 0H23.718V23.718H0z" transform="translate(7) translate(58 58)"/>
                                <g stroke-linecap="round" stroke-linejoin="round">
                                    <path stroke="#7663DA" stroke-width="2.8" d="M13.835 1.976L21.741 1.976M13.835 7.906L21.741 7.906M0 13.835L21.741 13.835M0 19.765L21.741 19.765" transform="translate(7) translate(58 58) translate(.988 .988)"/>
                                    <path fill="#7663DA" fill-rule="nonzero" d="M5.965 9.882V8.818l1.12-.123-.492-1.42H3.208l-.478 1.42 1.079.122v1.065H0V8.818l.6-.15c.165-.04.287-.096.342-.26L3.932 0h2.415l2.976 8.436c.054.164.164.19.327.232l.628.15v1.064H5.965zm-.996-7.794h-.082L3.63 5.801h2.552L4.97 2.088z" transform="translate(7) translate(58 58) translate(.988 .988)"/>
                                </g>
                            </g>
                        </g>
                    </g>
                    <g>
                        <g transform="translate(-278 -286) translate(278 -699) translate(0 1007) translate(467 73)">
                            <use fill="#000" filter="url(#w0ogp4m99l)" xlink:href="#ja90jza2vm"/>
                            <use fill="#6F5BD8" xlink:href="#ja90jza2vm"/>
                        </g>
                        <path fill="#FFF" fill-rule="nonzero" d="M33.414 30v-1.332H27.42v-4.482h5.454v-1.332H27.42v-4.122h5.904V17.4h-7.398V30h7.488zm4.446 0v-5.652c.084-.3.216-.585.396-.855.18-.27.39-.507.63-.711.24-.204.507-.369.801-.495.294-.126.597-.189.909-.189.852 0 1.44.252 1.764.756.324.504.486 1.254.486 2.25V30h1.404v-5.166c0-.804-.072-1.467-.216-1.989-.144-.522-.357-.936-.639-1.242-.282-.306-.636-.519-1.062-.639-.426-.12-.915-.18-1.467-.18-.36 0-.702.048-1.026.144-.324.096-.618.225-.882.387s-.495.342-.693.54c-.198.198-.357.399-.477.603h-.09L37.536 21h-2.412v1.17h1.206c.024.132.045.288.063.468.018.18.033.363.045.549.012.186.021.366.027.54.006.174.009.315.009.423V30h1.386zm13.986.234c.612 0 1.209-.102 1.791-.306.582-.204 1.083-.474 1.503-.81l-.468-1.062c-.324.24-.687.462-1.089.666-.402.204-.873.306-1.413.306-.792 0-1.401-.21-1.827-.63-.426-.42-.639-1.068-.639-1.944v-4.248h4.806V21h-4.806v-2.178l-1.404.396V21h-2.142v1.206H48.3v4.464c0 .624.096 1.161.288 1.611.192.45.45.819.774 1.107.324.288.699.501 1.125.639.426.138.879.207 1.359.207zm10.116-.018c.384 0 .765-.033 1.143-.099s.741-.159 1.089-.279c.348-.12.669-.264.963-.432.294-.168.549-.348.765-.54l-.558-1.026c-.12.108-.291.228-.513.36-.222.132-.477.252-.765.36-.288.108-.591.201-.909.279-.318.078-.639.117-.963.117-.972 0-1.749-.267-2.331-.801-.582-.534-.873-1.341-.873-2.421h6.966c.06-1.02-.012-1.851-.216-2.493-.204-.642-.495-1.146-.873-1.512-.378-.366-.813-.615-1.305-.747s-.99-.198-1.494-.198c-.696 0-1.326.105-1.89.315-.564.21-1.044.513-1.44.909-.396.396-.699.888-.909 1.476-.21.588-.315 1.26-.315 2.016 0 .72.096 1.368.288 1.944.192.576.474 1.071.846 1.485.372.414.834.732 1.386.954.552.222 1.188.333 1.908.333zm2.7-5.742h-5.598c.048-.468.159-.861.333-1.179.174-.318.396-.576.666-.774.27-.198.582-.339.936-.423.354-.084.729-.126 1.125-.126.732 0 1.323.219 1.773.657.45.438.705 1.053.765 1.845zM75.66 30v-1.206h-3.456v-5.31c.072-.108.186-.24.342-.396.156-.156.345-.312.567-.468.222-.156.483-.288.783-.396.3-.108.636-.162 1.008-.162.396 0 .669.18.819.54.15.36.225.924.225 1.692l1.26-.018c0-.54-.024-1.023-.072-1.449-.048-.426-.141-.789-.279-1.089-.138-.3-.33-.528-.576-.684-.246-.156-.573-.234-.981-.234-.696 0-1.296.132-1.8.396s-.96.582-1.368.954h-.09L71.754 21h-3.366v1.206h2.43v6.588h-2.43V30h7.272zm5.454 3.6v-3.78c.18.072.348.132.504.18.156.048.315.087.477.117.162.03.342.054.54.072.198.018.423.027.675.027.696 0 1.332-.114 1.908-.342.576-.228 1.068-.552 1.476-.972.408-.42.723-.933.945-1.539.222-.606.333-1.287.333-2.043 0-1.608-.324-2.766-.972-3.474-.648-.708-1.614-1.062-2.898-1.062-.72 0-1.329.141-1.827.423-.498.282-.909.633-1.233 1.053h-.09l-.18-1.26h-2.394v1.17h1.206c.024.132.045.288.063.468.018.18.033.363.045.549.012.186.021.366.027.54.006.174.009.315.009.423v9.45h1.386zm2.196-4.59c-.54 0-.975-.051-1.305-.153-.33-.102-.627-.243-.891-.423V24.33c.036-.264.132-.528.288-.792.156-.264.357-.504.603-.72.246-.216.528-.39.846-.522.318-.132.657-.198 1.017-.198.936 0 1.605.279 2.007.837.402.558.603 1.347.603 2.367 0 1.212-.288 2.133-.864 2.763-.576.63-1.344.945-2.304.945zm13.95.99v-1.206h-3.456v-5.31c.072-.108.186-.24.342-.396.156-.156.345-.312.567-.468.222-.156.483-.288.783-.396.3-.108.636-.162 1.008-.162.396 0 .669.18.819.54.15.36.225.924.225 1.692l1.26-.018c0-.54-.024-1.023-.072-1.449-.048-.426-.141-.789-.279-1.089-.138-.3-.33-.528-.576-.684-.246-.156-.573-.234-.981-.234-.696 0-1.296.132-1.8.396s-.96.582-1.368.954h-.09L93.354 21h-3.366v1.206h2.43v6.588h-2.43V30h7.272zm8.028-10.44c.348 0 .639-.108.873-.324.234-.216.351-.48.351-.792 0-.324-.117-.603-.351-.837-.234-.234-.525-.351-.873-.351-.336 0-.612.117-.828.351-.216.234-.324.513-.324.837 0 .312.108.576.324.792.216.216.492.324.828.324zM109.122 30v-1.206h-3.06V21h-4.572v1.206h3.132v6.588h-3.132V30h7.632zm6.642.216c1.308 0 2.289-.27 2.943-.81.654-.54.981-1.224.981-2.052 0-.552-.15-.99-.45-1.314-.3-.324-.672-.582-1.116-.774-.444-.192-.927-.339-1.449-.441-.522-.102-1.005-.21-1.449-.324-.444-.114-.816-.255-1.116-.423-.3-.168-.45-.408-.45-.72 0-.252.063-.465.189-.639s.294-.315.504-.423c.21-.108.444-.189.702-.243.258-.054.519-.081.783-.081.696 0 1.275.099 1.737.297.462.198.891.405 1.287.621l.576-1.134c-.36-.228-.843-.447-1.449-.657-.606-.21-1.329-.315-2.169-.315-.468 0-.918.051-1.35.153-.432.102-.81.258-1.134.468-.324.21-.585.477-.783.801-.198.324-.297.714-.297 1.17 0 .552.15.981.45 1.287.3.306.672.549 1.116.729.444.18.927.324 1.449.432.522.108 1.005.225 1.449.351.444.126.816.294 1.116.504.3.21.45.507.45.891 0 .264-.063.489-.189.675-.126.186-.297.336-.513.45-.216.114-.465.198-.747.252-.282.054-.585.081-.909.081-.336 0-.669-.036-.999-.108-.33-.072-.639-.168-.927-.288-.288-.12-.552-.255-.792-.405-.24-.15-.432-.297-.576-.441l-.72 1.17c.18.156.408.309.684.459.276.15.582.285.918.405.336.12.696.216 1.08.288.384.072.774.108 1.17.108zm10.998 0c.384 0 .765-.033 1.143-.099s.741-.159 1.089-.279c.348-.12.669-.264.963-.432.294-.168.549-.348.765-.54l-.558-1.026c-.12.108-.291.228-.513.36-.222.132-.477.252-.765.36-.288.108-.591.201-.909.279-.318.078-.639.117-.963.117-.972 0-1.749-.267-2.331-.801-.582-.534-.873-1.341-.873-2.421h6.966c.06-1.02-.012-1.851-.216-2.493-.204-.642-.495-1.146-.873-1.512-.378-.366-.813-.615-1.305-.747s-.99-.198-1.494-.198c-.696 0-1.326.105-1.89.315-.564.21-1.044.513-1.44.909-.396.396-.699.888-.909 1.476-.21.588-.315 1.26-.315 2.016 0 .72.096 1.368.288 1.944.192.576.474 1.071.846 1.485.372.414.834.732 1.386.954.552.222 1.188.333 1.908.333zm2.7-5.742h-5.598c.048-.468.159-.861.333-1.179.174-.318.396-.576.666-.774.27-.198.582-.339.936-.423.354-.084.729-.126 1.125-.126.732 0 1.323.219 1.773.657.45.438.705 1.053.765 1.845z" transform="translate(-278 -286) translate(278 -699) translate(0 1007) translate(467 73)"/>
                    </g>
                    <g>
                        <path d="M0 0H24V24H0z" transform="translate(-278 -286) translate(278 -699) translate(0 1007) translate(533 116)"/>
                        <g fill="#6F5BD8" fill-rule="nonzero" stroke="#FFF" stroke-linecap="round" stroke-linejoin="round" stroke-width="4">
                            <path d="M-.45-2.919c.385-.097.814-.093 1.253.028h0l18 5c.654.182 1.16.544 1.524.992.397.487.625 1.085.666 1.698.041.613-.105 1.237-.433 1.773-.301.492-.754.918-1.378 1.185h0l-2.927 1.255 4.866 4.867c.959.958 1.457 2.202 1.497 3.458.04 1.276-.394 2.564-1.3 3.576-1.175 1.2-2.496 1.708-3.818 1.708-1.31 0-2.622-.5-3.621-1.5h0l-4.867-4.866-1.255 2.927c-.253.59-.648 1.027-1.107 1.328-.5.329-1.084.494-1.667.49-.587-.004-1.17-.179-1.663-.51-.47-.315-.862-.77-1.1-1.363C-.056 10.997-1.22 6.25-1.777 3.422-2.148 1.527-2.258.4-2.244-.257c.019-.955.28-1.447.482-1.742.373-.543.834-.799 1.313-.92z" transform="translate(-278 -286) translate(278 -699) translate(0 1007) translate(533 116) translate(2 2)"/>
                        </g>
                    </g>
                </g>
            </g>
        </g>
    </g>
</svg>