<svg viewBox="0 0 572.74 581.03" xmlns="http://www.w3.org/2000/svg"><g fill="none" stroke-miterlimit="10"><path d="m71.83 265.68h257a16 16 0 0 1 16 16v182.05a16 16 0 0 0 16 16h149.64a16 16 0 0 1 16 16v68.8a16 16 0 0 1 -16 16h-149.64a16 16 0 0 1 -16-16v-68.8a16 16 0 0 0 -16-16h-257a16 16 0 0 1 -16-16v-182a16 16 0 0 1 16-16.05z" stroke="#7af7d1"/><rect height="334.66" rx="16" stroke="#71d3ec" width="516.42" x="55.83" y="52"/><path d="m357.87 346.33h-341.37a16 16 0 0 1 -16-16v-170.15a16 16 0 0 1 16-16h341.37a16 16 0 0 0 16-16v-111.68a16 16 0 0 1 16-16h120.6a16 16 0 0 1 16 16v111.68a16 16 0 0 1 -16 16h-120.6a16 16 0 0 0 -16 16v170.15a16 16 0 0 1 -16 16z" stroke="#ff8487"/></g></svg>