<svg width="48" height="48" viewBox="0 0 48 48" fill="none" xmlns="http://www.w3.org/2000/svg">
<circle cx="25.5" cy="24" r="20" fill="#F1DEFA"/>
<path fill-rule="evenodd" clip-rule="evenodd" d="M44.238 39.521L36.1593 31.4452H36.1565C37.8498 28.8348 38.5167 25.69 38.0286 22.6171C37.5406 19.5442 35.9321 16.7607 33.5134 14.8035C31.0947 12.8462 28.037 11.8538 24.9298 12.0174C21.8227 12.1811 18.8862 13.4894 16.6865 15.6899C14.4868 17.8904 13.1797 20.8275 13.0172 23.9347C12.8547 27.0419 13.8483 30.0992 15.8065 32.5172C17.7647 34.9351 20.5487 36.5425 23.6219 37.0294C26.695 37.5163 29.8395 36.8482 32.4492 35.1539L40.5264 43.2311C41.0184 43.7233 41.6858 43.9999 42.3817 44C43.0776 44.0001 43.7451 43.7238 44.2373 43.2318C44.7295 42.7398 45.006 42.0725 45.0062 41.3765C45.0063 40.6806 44.73 40.0132 44.238 39.521ZM32.941 24.5921C32.941 28.6478 29.6532 31.9355 25.5976 31.9355C21.5419 31.9355 18.2541 28.6478 18.2541 24.5921C18.2541 20.5364 21.5419 17.2486 25.5976 17.2486C29.6532 17.2486 32.941 20.5364 32.941 24.5921Z" fill="white"/>
<path d="M12 38L20 24L31 28.5" stroke="#3FA9F5" stroke-width="1.5" stroke-linejoin="round"/>
<path d="M31 29L40 16" stroke="#663399" stroke-width="1.5" stroke-linejoin="round"/>
<path d="M10 38C10 36.8946 10.8946 36 12 36C13.1054 36 14 36.8946 14 38C14 39.1054 13.1054 40 12 40C10.8946 39.9953 10 39.1007 10 38Z" fill="white" stroke="#3FA9F5" stroke-width="1.5"/>
<path d="M18 24C18 22.8946 18.8946 22 20 22C21.1054 22 22 22.8946 22 24C22 25.1054 21.1054 26 20 26C18.8946 25.9953 18 25.1007 18 24Z" fill="#3FA9F5"/>
<path d="M29 28.5C29 27.3946 29.8946 26.5 31 26.5C32.1054 26.5 33 27.3946 33 28.5C33 29.6054 32.1054 30.5 31 30.5C29.8946 30.4953 29 29.6007 29 28.5Z" fill="#3FA9F5"/>
<path d="M41.5 17.5C43.7091 17.5 45.5 15.7091 45.5 13.5C45.5 11.2909 43.7091 9.5 41.5 9.5C39.2909 9.5 37.5 11.2909 37.5 13.5C37.5 15.7091 39.2909 17.5 41.5 17.5Z" fill="#663399"/>
</svg>
