<svg xmlns="http://www.w3.org/2000/svg" viewBox="0 0 460.6 460.6"><defs><style>.cls-1,.cls-2,.cls-4,.cls-5,.cls-6{fill:none;}.cls-1{stroke:#eeeef0;}.cls-1,.cls-2,.cls-3,.cls-4,.cls-5,.cls-6{stroke-miterlimit:10;}.cls-2{stroke:#bcbcc2;}.cls-2,.cls-5{stroke-linecap:round;stroke-width:2px;stroke-dasharray:0 6;}.cls-3{fill:#f8f7fa;}.cls-3,.cls-4{stroke:#471438;}.cls-5,.cls-6{stroke:#04b2e1;}.cls-7{fill:#471438;}</style></defs><g id="Layer_2" data-name="Layer 2"><g id="Layer_1-2" data-name="Layer 1"><circle id="OuterEllipse" class="cls-1" cx="230.3" cy="230.3" r="229.8"/><circle id="DottedEllipse" class="cls-2" cx="230.3" cy="230.3" r="187.12"/><g id="GlobeLines"><circle class="cls-3" cx="230.3" cy="230.3" r="162"/><ellipse class="cls-4" cx="230.3" cy="230.3" rx="121.5" ry="162"/><ellipse class="cls-4" cx="230.3" cy="230.3" rx="40.5" ry="162"/><ellipse class="cls-4" cx="230.3" cy="230.3" rx="81.2" ry="162"/><line class="cls-4" x1="68.3" y1="230.3" x2="392.3" y2="230.3"/><line class="cls-4" x1="73.36" y1="189.8" x2="387.24" y2="189.8"/><line class="cls-4" x1="89.98" y1="149.3" x2="370.63" y2="149.3"/><line class="cls-4" x1="123.15" y1="108.8" x2="337.46" y2="108.8"/><line class="cls-4" x1="122.56" y1="351.28" x2="338.04" y2="351.28"/><line class="cls-4" x1="89.79" y1="310.96" x2="370.83" y2="310.96"/><line class="cls-4" x1="73.36" y1="270.63" x2="387.24" y2="270.63"/><line class="cls-4" x1="230.3" y1="392.3" x2="230.3" y2="68.3"/></g><path id="DataPath8" class="cls-5" d="M270.8,230.3c-40.5,0-79.73,40.33-79.73,40.33"/><path id="DataPath6" class="cls-5" d="M270.8,230.3c1.63,64.79,100,80.66,100,80.66"/><path id="DataPath5" class="cls-5" d="M300.61,149.3C269.53,189.8,191,189.8,191,189.8"/><path id="DataPath4" class="cls-5" d="M149.1,230.3c40.7,0,41.88-40.5,41.88-40.5"/><path id="DataPath3" class="cls-5" d="M159.94,149.3c70.36-40.53,177.52-40.5,177.52-40.5"/><path id="DataPath2" class="cls-5" d="M73.36,189.8c0,80.83,117.71,80.83,117.71,80.83"/><path id="DataPath1" class="cls-5" d="M125.11,311c105.2-40.33,186.4,39.54,186.4,39.54"/><path class="cls-5" d="M347.91,189.8s22.72-40.5-10.45-81"/><circle id="Pulse11" class="cls-6" cx="370.63" cy="310.96" r="8"/><circle id="Pulse10" class="cls-6" cx="337.46" cy="108.8" r="8"/><circle id="Pulse9" class="cls-6" cx="300.61" cy="149.3" r="8"/><circle id="Pulse8" class="cls-6" cx="270.67" cy="230.3" r="8"/><circle id="Pulse6" class="cls-6" cx="190.98" cy="189.8" r="8"/><circle id="Pulse5" class="cls-6" cx="191.07" cy="270.63" r="8"/><circle id="Pulse4" class="cls-6" cx="149.31" cy="230.3" r="8"/><circle id="Pulse3" class="cls-6" cx="159.94" cy="149.3" r="8"/><circle id="Pulse2" class="cls-6" cx="73.37" cy="189.8" r="8"/><circle id="Pulse1" class="cls-6" cx="125.11" cy="310.96" r="8"/><circle class="cls-7" cx="190.98" cy="189.8" r="4"/><circle id="Pulse6-2" data-name="Pulse6" class="cls-6" cx="347.91" cy="189.8" r="8"/><circle class="cls-7" cx="347.91" cy="189.8" r="4"/><circle class="cls-7" cx="159.94" cy="149.3" r="4"/><circle class="cls-7" cx="149.31" cy="230.3" r="4"/><circle class="cls-7" cx="191.07" cy="270.63" r="4"/><circle class="cls-7" cx="370.63" cy="310.96" r="4"/><circle id="Pulse11-2" data-name="Pulse11" class="cls-6" cx="311.51" cy="350.5" r="8"/><circle class="cls-7" cx="311.51" cy="350.5" r="4"/><circle class="cls-7" cx="270.67" cy="230.3" r="4"/><circle class="cls-7" cx="300.61" cy="149.3" r="4"/><circle class="cls-7" cx="337.46" cy="108.8" r="4"/><circle class="cls-7" cx="125.11" cy="310.96" r="4"/><circle class="cls-7" cx="73.37" cy="189.8" r="4"/></g></g></svg>