<svg height="273" viewBox="0 0 394 273" width="394" xmlns="http://www.w3.org/2000/svg" xmlns:xlink="http://www.w3.org/1999/xlink"><linearGradient id="a" x1="5.802503%" x2="96.533743%" y1="38.254453%" y2="62.367847%"><stop offset="0" stop-color="#ff282d"/><stop offset="1" stop-color="#362d69"/></linearGradient><mask id="b" fill="#fff"><path d="m75.736607 2.32469369c-12.4264847 2.59828829-24.4211179 7.77937841-34.8148035 15.01414861l.0025808-.0309729-1.5278253 1.1081441c-.0034411.0025811-.0068821.0051622-.0094629.0068829l-.3148559.2297162-.0008603.0068829c-5.2381354 3.832045-10.1175415 8.2267658-14.5031572 13.0757568-4.4707817 4.9462117-8.4271266 10.3768063-11.7597817 16.142081-6.64552397 11.4720451-10.89263751 24.540919-12.28282091 37.7913289-1.40824891 13.0903828.02666812 26.7374188 4.1481834 39.4647298 3.89870743 12.063113 10.33518781 23.433635 18.65650221 33.006865l-.0292489.00086 1.2663056 1.403248c.0017206.001721.0034411.004302.0043014.006022l.2589388.28478h.0060219c8.8787641 9.758207 19.8944192 17.705356 31.8830305 22.993991 12.0754978 5.347139 25.4267642 8.170842 38.628345 8.170842h.2271092c13.3073928-.043018 26.7300608-2.932108 38.8158818-8.354959 6.088935-2.725622 11.904306-6.107699 17.30073-10.061915 1.317921-1.00232 2.62982-2.016685 3.952903-3.064603l.593581-.505032c1.061564-.905959 2.124847-1.811059 3.18469-2.755734l3.530515-3.369171 1.528686-1.528 1.413411-1.414433.049034-.04818 31.049437-31.053847 31.050297 31.053847 3.002315 3.002658 3.539117 3.374333c1.05038.936072 2.123127 1.850635 3.195014 2.764338l.587558.499869c1.299856 1.02727 2.610896 2.041635 3.941721 3.053419 5.382659 3.944752 11.198891 7.326829 17.286965 10.052451 12.085821 5.422851 25.509349 8.311941 38.817603 8.354959h.227109c13.19986 0 26.551987-2.823703 38.625764-8.170842 11.991192-5.288635 23.005127-13.235784 31.884751-22.993991h.006022l.258079-.28478c.00172-.00172.003441-.004301.005161-.006022l1.266306-1.403248-.029249-.00086c8.321314-9.57323 14.757795-20.943752 18.655642-33.006005 3.069415-9.476869 4.648856-19.461351 4.674664-29.3468916v-.4929865c-.008603-3.2272117-.183236-6.4423784-.52562-9.623991-1.390184-13.252991-5.637297-26.3218649-12.282821-37.7930496-3.333516-5.7661351-7.289861-11.1967297-11.759782-16.1429414-4.388197-4.848991-9.265882-9.2445721-14.502297-13.0748964l-.00086-.0068829-.314856-.2297162c-.004302-.0017207-.006882-.0043018-.010323-.0068829l-1.527826-1.1081441.003441.0309729c-10.394545-7.2339099-22.388318-12.41586032-34.815663-15.01414861-6.574983-1.37743693-13.248035-2.07088738-19.839363-2.04593693-6.656707.02667117-13.328039.74679279-19.825598 2.14315765-13.029528 2.78498649-25.573869 8.41002249-36.289293 16.27457659-1.318781 1.0031802-2.629821 2.017545-3.953764 3.0646036l-.563471.4792207c-1.071887.9137027-2.144634 1.8282658-3.2148 2.7815451l-3.530515 3.3691711-13.00114 13.0026262-1.461585 1.4617522-19.579563 19.5809415-21.036847-21.0461352-.004302.0008604-13.010602-13.0112298-3.538258-3.3751936c-1.040057-.9274685-2.10334-1.8325676-3.164904-2.7376667l-.617668-.5256802c-1.298996-1.0272703-2.610895-2.0416351-3.94086-3.0542793-10.70338-7.8550901-23.248581-13.4801261-36.276389-16.26511259-6.50014-1.39636486-13.171471-2.11648648-19.8281788-2.14315765-.1995808 0-.3991616 0-.5978821 0-6.3977686 0-12.8643581.70979729-19.2406201 2.04593693zm169.964546 44.60280181-25.639249-5.1286081 12.177869-12.1801216 3.490083-3.3287343c1.040917-.9283288 2.104201-1.8334279 3.166624-2.7393874l.539385-.4594324c1.290393-1.0212477 2.59369-2.0287297 3.891825-3.0164234 10.508961-7.713991 22.825332-13.2357838 35.619148-15.97086938 6.383145-1.37055406 12.9349-2.07863063 19.472891-2.10272072 6.425297-.0369955 13.021786.65473423 19.479773 2.00808108 12.675961 2.64990991 24.896843 8.03146392 35.368812 15.57338292.047315.5446081.080865 1.0874955.118717 1.6321036.039572.563536.086886 1.1296531.115275 1.6914684.030969.6125766.041292 1.2225721.059358 1.8325676.017205.5523514.043013 1.1064234.048174 1.6561937.006883.6151577-.008602 1.2268739-.014624 1.8394504-.006022.5411667-.001721 1.0849145-.018926 1.6252208-.018065.6194594-.058498 1.2346171-.090327 1.8506351-.028389.5291216-.044734 1.0608243-.082585 1.5873649-.044734.6229009-.111835 1.2415-.170332 1.8618198-.048175.5153558-.086027 1.0332928-.144524 1.5460676-.072262.6401081-.167751 1.2733333-.254638 1.9091396-.0671.4878243-.123017.9782297-.19872 1.4651937-.110114.702054-.244315 1.3972252-.371634 2.0949775-.076563.4138333-.139362.8302477-.222807 1.2423603-.221088 1.1055631-.464542 2.2051036-.732083 3.2977613-1.089092.169491-2.167.360491-3.234586.573-.377655.0748513-.747567.1660495-1.121781.2469234-.686489.1471216-1.374699.2890811-2.050865.4542703-.436153.1058243-.863703.2297162-1.295554.3441441-.605625.1583063-1.21297.3114505-1.810852.4843829-.451638.1307748-.894672.2796171-1.341148.4189955-.567773.1763739-1.138127.3467252-1.699018.5368649-.449917.1522838-.890371.3226351-1.336847.4835225-.544546.1970225-1.093393.3888829-1.631057.5979504-.446476.1746532-.884349.3647928-1.326524.5480496-.523039.2168108-1.05038.4293198-1.567397.6581757-.440454.1961621-.873166.4078108-1.308459.6125765-.504974.2374595-1.013388.4697568-1.50976.7184009-.432711.2159505-.85596.4482478-1.28265.6728018-.405184.2150901-.818109.4181352-1.217271.6409685-5.517721-3.9068964-11.934415-6.7047883-18.595424-8.1045946-3.493524-.733027-7.037803-1.0995405-10.459925-1.084054-3.509869.0180675-7.02576.4000675-10.448743 1.136536-6.835642 1.4660541-13.408043 4.4084865-19.025554 8.5227297l-2.077533 1.6123153-1.993227 1.7233018-1.955376 1.8661217-12.189912 12.1913063zm-180.5053364 7.1375495c-.42669-.224554-.8490786-.4568513-1.2817904-.6728018-.4972314-.2486441-1.0039258-.4809414-1.5097598-.7184009-.4361529-.2047657-.8671441-.4164144-1.3084585-.6125765-.5161572-.2288559-1.0426376-.4405045-1.5665372-.6573153-.4430349-.1832568-.880048-.3742568-1.3273842-.54891-.5376638-.2090675-1.0856507-.4000675-1.6301965-.5979504-.4456158-.1608874-.8869302-.3303784-1.3385677-.4835225-.5600306-.1901397-1.1312446-.360491-1.6990175-.5368649-.4473362-.1393784-.8886507-.2882207-1.3402882-.4189955-.5961616-.1729324-1.2043668-.3252162-1.809131-.4835225-.4327118-.1144279-.860262-.2391802-1.2972751-.3450045-.676166-.1651892-1.3635153-.3071487-2.0482839-.4534099-.3759345-.0808739-.7458471-.1729325-1.1235021-.2477838-1.0684455-.212509-2.147214-.403509-3.2354455-.573-.2684017-1.0926577-.5118559-2.1921982-.7338035-3.2986216-.0782838-.3931847-.1385021-.7906712-.2116244-1.1847163-.1316201-.7175405-.269262-1.4325-.3819563-2.1543423-.0731223-.468036-.1264586-.9403739-.1909782-1.4101306-.0903275-.6538739-.1883974-1.3051667-.2632402-1.9633424-.0567773-.5050315-.0937685-1.0152252-.1419432-1.5236982-.0584978-.6272027-.1264585-1.2526846-.1711922-1.8824684-.0378515-.5265406-.0550567-1.0573829-.0817248-1.5865045-.03269-.6160181-.0739826-1.2320361-.0929083-1.8514955-.0146245-.5377253-.0111834-1.0788919-.0172053-1.6183379-.0068821-.616018-.0215065-1.2294549-.0146244-1.8471937.0051615-.5480495.0309694-1.1004009.0473144-1.6501711.0180655-.6117163.0283886-1.2225721.0593581-1.8368694.0292489-.5643964.0774235-1.1313739.1169956-1.697491.0378515-.5411667.0705415-1.0831937.1178559-1.6269414 10.4728297-7.541919 22.6937118-12.92347301 35.3679519-15.57424328 6.4579869-1.35248649 13.0192053-2.03303153 19.479773-2.00722072 6.5388519.02409009 13.0906069.73216666 19.4737509 2.10358108 12.793817 2.73422522 25.110188 8.25601802 35.607105 15.96140542 1.310179.9962973 2.613476 2.0037793 3.878921 3.0043784l.594441.5067522c1.052961.8964955 2.105922 1.7938514 3.11759 2.695509l3.496105 3.3347568 12.189052 12.1895856-25.634947 5.1294684v.0008604h-.002581l-5.128022 25.6421802-12.204537-12.2050721-1.971721-1.8807477-1.997528-1.7241622-2.061188-1.5968288c-5.599445-4.1004775-12.171847-7.0437703-19.005768-8.508964-3.424703-.7364685-6.9405943-1.1184685-10.4513236-1.136536-.0619388-.0008604-.1221572-.0008604-.1840961-.0008604-3.3859912 0-6.842524.3647928-10.2758296 1.0849144-6.6592883 1.3998063-13.0759826 4.1976982-18.5937031 8.1045946-.3991616-.2228333-.8120873-.4258784-1.218131-.6409685zm301.4925854 103.965086c-.541965-.021509-1.087371-.035275-1.626756-.066248-.644336-.037856-1.28265-.0955-1.923546-.147122-.52562-.041297-1.054681-.073991-1.576-.124752-.648637-.062806-1.287812-.147122-1.931288-.224554-.506694-.061086-1.01855-.112707-1.523524-.182396-.650358-.089478-1.292113-.201325-1.93817-.305428-.488629-.079154-.980699-.147982-1.465887-.235739-.65896-.11873-1.308458-.259829-1.961397-.393185-.462821-.094639-.930803-.178955-1.390183-.281338-.680468-.151423-1.351472-.326937-2.024197-.494707-.423249-.105824-.851659-.200464-1.271467-.314031-.739825-.197023-1.469328-.418996-2.20055-.637527-.344105-.103244-.694232-.194442-1.037476-.301987-1.069306-.336401-2.128289-.69345-3.176088-1.072869-.051615-1.089216-.126458-2.17241-.222807-3.248721-.03097-.345004-.078284-.685707-.114415-1.029851-.074843-.727005-.147965-1.45487-.242594-2.176712-.055917-.418135-.13076-.831108-.192699-1.247523-.096349-.639247-.186677-1.280216-.299371-1.915162-.080004-.446527-.177214-.887031-.264101-1.330977-.117855-.59709-.228829-1.195041-.36131-1.786969-.102371-.457711-.221947-.90854-.332921-1.36195-.138502-.570419-.272703-1.142559-.424969-1.707815-.124738-.460293-.266682-.913703-.400022-1.370554-.16173-.551491-.317437-1.103843-.49121-1.648451-.145384-.458572-.308834-.910261-.464541-1.364531-.183236-.535145-.36131-1.07373-.55831-1.602852-.166891-.45341-.350987-.898216-.527341-1.346464-.172052-.436202-.332061-.876707-.513576-1.309468 4.553366-5.149257 7.936777-11.078861 10.060764-17.632225 2.182484-6.75641 2.937795-13.9455816 2.184205-20.7888879-.738965-6.9680585-2.964463-13.8234099-6.43562-19.8261441-1.748052-3.0276081-3.826445-5.8814234-6.175821-8.4831532-2.06893-2.2859774-4.33486-4.3757928-6.747035-6.2264279.281306-.1514234.560891-.3045676.844777-.4516892.409485-.212509.81897-.425018 1.234476-.6297838.500673-.2469234 1.007367-.4843828 1.517502-.7192612.418948-.1927207.837035-.3880225 1.261145-.5721397.519598-.2271351 1.044358-.4405045 1.570838-.6547342.42669-.1737928.851659-.3484459 1.283511-.5144955.539384-.2056261 1.086511-.3974865 1.632777-.5910676.430131-.1522837.857681-.3088693 1.292114-.4525495.566912-.1884189 1.142428-.3596306 1.717083-.5342838.425829-.129054.848218-.264991 1.278349-.3863018.605625-.1712117 1.222432-.3243559 1.836659-.4809414.407765-.1041036.812948-.2168108 1.225874-.3140316.687349-.1617477 1.385022-.3037072 2.080974-.4482477.350126-.0714099.694231-.1531442 1.046078-.2211126 1.053821-.2013244 2.117105-.3837208 3.190712-.5420271l.567773-.0843153.140223-.5557928c.280445-1.1098648.535083-2.2283333.768214-3.3511036.077423-.3708153.138502-.745072.209904-1.1167477.146244-.7562568.292489-1.5116532.418087-2.2730721.073982-.4508288.13162-.9042387.19872-1.3567883.100651-.6891486.202162-1.3765766.286468-2.0691666.059358-.4861036.103231-.9747883.153987-1.4626127.068821-.6650585.137642-1.3309774.190978-1.9986171.039572-.5076126.06624-1.0160856.09807-1.5236982.040432-.6564549.078283-1.3111892.103231-1.9702252.018926-.5196577.029249-1.0418964.039572-1.5624144.012044-.6521532.022367-1.3051667.019786-1.9599009-.00172-.5282613-.010323-1.0582433-.021506-1.5873649-.013765-.6538739-.033551-1.3077477-.061079-1.9642027-.023227-.5334234-.051616-1.0659865-.084306-1.6002702-.019786-.3183334-.027528-.634946-.049895-.9541397 4.686708 3.5472658 9.063721 7.5599865 13.03555 11.9486847 4.388197 4.8558739 8.27314 10.187527 11.546437 15.8504189 6.525087 11.2646982 10.695638 24.0961126 12.060873 37.1125045 1.383302 12.8520631-.025807 26.2521761-4.074201 38.7523511-3.97527 12.299712-10.633698 23.871559-19.265567 33.489527-.577236-.013765-1.15017-.040437-1.723965-.063666zm-360.3775199-33.425861c-4.04839302-12.499315-5.45664192-25.8994277-4.07420088-38.7532114 1.36523581-13.0146712 5.53578603-25.846946 12.06087338-37.1125045 3.2724367-5.6611712 7.1573799-10.9928244 11.5464367-15.8495586 3.9692489-4.3878378 8.3488428-8.4005586 13.0355502-11.9486847-.0232271.317473-.0309694.6332252-.0498952.9498378-.03269.5368649-.0610786 1.0728694-.0843057 1.6088739-.0283886.6538739-.0473144 1.3051667-.0610786 1.9573198-.0111834.5308424-.0206463 1.0608244-.0223668 1.589946-.0017205.6547342.0077424 1.3068874.0206463 1.9590405.0103231.5213784.0189257 1.0436171.039572 1.5641352.0240874.6581756.0627992 1.3129099.1023712 1.9693648.0309694.5076126.0593581 1.0160856.0997904 1.5236982.052476.6676397.121297 1.3335586.1901179 1.9986171.0507555.4878244.0946288.9765091.1531267 1.4626127.0843056.69259.1866768 1.3817387.2881877 2.0717477.0653799.4516892.1238778.9042387.1978603 1.3533469.1238777.7596981.2701223 1.5133738.4163668 2.2670495.0714017.3742568.1333406.751955.2107642 1.124491.233131 1.1227703.4886288 2.2403784.7690742 3.3502432l.1402227.5557928.567773.0843153c1.0744672.1583063 2.1368908.3407027 3.1907117.5420271.3518472.0679684.6968123.1497027 1.0460787.2211126.6959519.1445405 1.3936244.2865 2.0809738.4482477.4120655.0972208.8181091.209928 1.2275938.3140316.6142271.1565855 1.2284542.3097297 1.8349389.4809414.430131.1213108.8533799.2572478 1.2792096.3863018.5737948.1746532 1.1493101.3458649 1.7153625.5342838.4352925.1436802.8628427.3002658 1.2929738.4525495.5471266.1935811 1.093393.3854415 1.6327772.5910676.4318516.1660496.8576813.3415631 1.2852315.5153559.5247598.2133693 1.0503799.4267387 1.5682576.6530135.4249695.1849775.8439171.3802793 1.2637249.5738603.5084149.2348784 1.0159695.4714775 1.5166419.7184009.4137861.2047658.824131.4172748 1.2336158.6297838.2838864.1471216.5643318.3002658.8447773.4516892-2.4121747 1.8506351-4.6781048 3.9404505-6.7478952 6.2272883-2.3485153 2.600009-4.4260481 5.4538243-6.1749607 8.4814324-3.4711572 6.0035946-5.6975153 12.858946-6.4356201 19.8227027-.7535895 6.8476081.0008602 14.0367797 2.1850655 20.7931897 2.1222663 6.553364 5.5056768 12.482968 10.0590436 17.632225-.180655.433621-.341524.874986-.5127161 1.311189-.177214.447387-.3595895.891333-.5264804 1.343022-.1987205.535145-.3793755 1.078892-.5651921 1.620059-.1531266.448248-.3131354.892194-.4576594 1.344743-.177214.554072-.3355022 1.116748-.4998122 1.677703-.1298996.446527-.269262.890473-.390559 1.341302-.1565677.575581-.2924891 1.158905-.433572 1.740509-.108393.442225-.2253887.88273-.3251791 1.330117-.1350611.602252-.2477554 1.211387-.3673318 1.818802-.0860262.433621-.1815153.862941-.2589389 1.300004-.1144149.64355-.2056026 1.293982-.3028122 1.942694-.0610786.407811-.1342009.81132-.1883974 1.220851-.0963494.724424-.1686114 1.45573-.2443144 2.186176-.036131.341563-.0825852.679685-.1135546 1.022108-.0963494 1.076311-.1720524 2.159505-.2228079 3.248721-1.0486594.379419-2.1076419.736468-3.1769476 1.072869-.3423842.107545-.6925109.198743-1.0383362.301987-.7295022.218531-1.4590044.440504-2.19969.637527-.4198078.113567-.847358.208207-1.270607.314031-.6735851.16777-1.3445895.343284-2.0241965.494707-.4602401.102383-.9273624.186699-1.3901834.281338-.6529388.133356-1.3032969.274455-1.9622576.393185-.4843275.087757-.9772577.155725-1.4650262.235739-.6443363.103243-1.286952.21595-1.9381703.305428-.5049738.069689-1.0159694.12131-1.5243843.182396-.6426157.077432-1.2826507.160887-1.9304279.224554-.5230393.050761-1.0512402.083455-1.5768603.124752-.6400349.051622-1.2774891.109266-1.9235459.147122-.538524.030973-1.0830698.044739-1.6258952.066248-.5737947.023229-1.1467292.049901-1.723965.063666-8.631869-9.617968-15.2911572-21.189815-19.2655677-33.489527zm138.3112049-50.5719817.484328-2.4270766 4.645415-23.215964 25.640969-5.1286081 20.383908 20.3922613-30.76641 30.7699279zm53.587441-10.3793874 20.389931-20.3914009 25.640109 5.1277477 5.127161 25.6430406-20.385629 20.3888198-.00086-.0008604-33.203533 33.2056083.000861.001721-30.23907 30.242527-5.128022-25.642181-25.639249-5.128608 30.23907-30.2425267.003441.0025811zm-122.4772223 76.2391131c-6.2171136-2.741969-11.7124673-6.724577-16.3329345-11.835978-4.5748734-5.0615-7.9617249-10.922275-10.0659258-17.417995-2.1085022-6.525834-2.8388646-13.4672212-2.1102227-20.0782302.7131572-6.7288784 2.8620917-13.3502117 6.2136725-19.1464594 1.6886943-2.9226442 3.6948253-5.6792388 5.962476-8.18891 2.2986201-2.5397837 4.8484367-4.830063 7.5763275-6.80459l.0025808-.0017208c5.4230917-3.9327072 11.7795677-6.7443648 18.3829388-8.1329865 3.3765284-.7080765 6.7392926-1.0737297 10.0986158-1.0470585 3.3920131.0172072 6.7891879.3863018 10.0968949 1.0969594 6.59993 1.4170136 12.945223 4.2579235 18.332184 8.2018154l2.006991 1.5546711 1.930428 1.6656577 1.926127 1.8377297 14.463585 14.4652388v-.0008604l19.577842 19.5800811-31.050296 31.0547076-1.462446 1.462612-1.514061 1.513374-1.908921 1.824824-1.926987 1.665658-2.023337 1.568437c-2.721008 1.990014-5.659663 3.696968-8.73596 5.072685-6.122485 2.743689-12.938341 4.208883-19.7094632 4.239856h-.0972096c-6.7074628 0-13.4940698-1.433361-19.6328995-4.149518zm154.4652053-44.2543563 19.783445-19.7865676 14.240778-14.2415451 1.908921-1.8231036 1.926987-1.666518 2.023336-1.5692973c5.404166-3.9576576 11.750319-6.7985675 18.351109-8.2155811 3.307708-.7106576 6.704022-1.0797522 10.095175-1.0978665 3.326633-.0206019 6.722948.3407494 10.099476 1.0479656 6.604231 1.3886217 12.961568 4.2002793 18.382939 8.1329865l.004301.0017208c2.727891 1.974527 5.275987 4.2648063 7.575467 6.80459 2.268511 2.5105316 4.273782 5.2662658 5.961616 8.18891 3.352441 5.7962477 5.501376 12.4167207 6.215393 19.1499009.726922 6.6075675-.003441 13.5489547-2.111083 20.0739277-2.104201 6.49314-5.488471 12.350473-10.059043 17.411113l-.006883.007743c-4.621327 5.112261-10.116681 9.094009-16.332934 11.835978-6.13883 2.716157-12.925437 4.149518-19.631179 4.149518h-.09721c-6.773703-.030973-13.589559-1.496167-19.712043-4.240717-3.075437-1.374856-6.014952-3.08181-8.716175-5.057198l-2.007852-1.554671-1.929567-1.666518-1.926987-1.836869-2.990271-2.991473h-.00086zm-31.987122 31.9899193 30.770711-30.7733698 30.234769 30.2442478-17.948507 3.592004-7.689021 1.537464v.000861h-.003441l-2.899083 14.512558-2.225498 11.128762zm100.20934 61.650842c-13.0691-.042158-26.250035-2.878766-38.11907-8.203536-5.97796-2.677442-11.68838-5.997572-16.961786-9.86059-1.309318-.996298-2.612615-2.003779-3.878921-3.005239l-.563472-.480081c-1.062423-.905099-2.125707-1.810198-3.147698-2.72132l-3.497826-3.334757-2.337332-2.338459 2.886179-14.442869 2.240123-11.201032 10.037537-2.008081 15.601712-3.120527 2.354537 2.354806 1.972581 1.879888 1.996668 1.723301 2.062048 1.59855c2.818218 2.060563 5.862685 3.828604 9.048236 5.25336 6.33927 2.84091 13.396 4.359446 20.408855 4.390419 6.999952-.00172 14.043778-1.471216 20.429503-4.295779 6.025275-2.658514 11.39589-6.440658 15.981087-11.253514.121297.300266.243454.597951.359589.899077.169472.437063.338083.874126.498092 1.314631.191839.528261.372494 1.059964.551428 1.594247.148825.441365.297651.883591.437013 1.330118.169472.542027.3269 1.089216.482607 1.637265.127319.444807.256358.888753.375074 1.337.147966.559235.281306 1.125352.414647 1.690608.104952.443946.215926.887032.311415 1.333559.126458.583324.236572 1.171811.347545 1.759437.083446.437063.172913.872405.247756 1.31291.105812.618599.192699 1.24236.282166 1.865261.059358.418135.127319.831969.180655 1.250964.087747.696892.154847 1.399806.222808 2.102721.03355.352748.078284.701193.107532 1.053941.087747 1.059964.153987 2.125951.19614 3.19796l.023227.573.537664.199603c1.063284.394906 2.138611.764 3.223402 1.113307.356148.115288.720039.21509 1.077908.325216.732083.225414 1.464166.449968 2.204852.653874.437873.12131.883489.227135 1.324803.340702.670144.173793 1.340288.347586 2.018175.504172.477445.110986.960912.207346 1.441799.309729.651218.137658 1.301576.277036 1.957956.400068.502393.0955 1.009088.178094 1.514061.26327.645197.109266 1.289533.217671 1.939031.312311.521319.075712 1.046079.14282 1.570838.209067.642616.081735 1.286952.161748 1.933869.229717.535083.056783 1.073607.104964 1.611271.152283.646057.055924 1.292114.107546 1.941611.149703.547987.036996 1.095974.067108 1.646542.092919.319157.015487.634873.042158.954031.054203-8.53638 9.081964-18.9748 16.486225-30.296708 21.478896-11.857851 5.2525-24.989751 8.024581-37.930672 8.024581-.073983 0-.147105 0-.221088-.00086zm-182.545017-47.906586c3.18641-1.424756 6.230878-3.192797 9.068022-5.267986l2.078393-1.612315 1.993227-1.723302 1.954515-1.866982 2.339913-2.33932 25.640109 5.127748 5.128022 25.64304-2.327869 2.328135-3.490083 3.329595c-1.030594.918865-2.083555 1.816221-3.136516 2.712716l-.570353.486104c-1.289533 1.021248-2.59283 2.028729-3.890105 3.015563-5.28545 3.872482-10.995869 7.192612-16.97383 9.870054-11.869035 5.32477-25.049969 8.161378-38.1182094 8.203536-.0748428 0-.1479651.00086-.2228079.00086-12.9624279 0-26.0736812-2.772941-37.932393-8.024581-11.321048-4.992671-21.7577467-12.396932-30.2949869-21.478896.3208778-.012045.6357336-.038716.9548909-.054203.5505676-.025811 1.0985545-.055923 1.6448209-.092919.6503581-.042157 1.2981354-.093779 1.9424716-.149703.538524-.047319 1.0770481-.0955 1.6112708-.152283.6477773-.067969 1.2921135-.147122 1.9347292-.229717.5247599-.066247 1.0495197-.133355 1.5699782-.209067.6503581-.09464 1.2955546-.203045 1.9381703-.312311.5058341-.085176 1.0133886-.16777 1.5157817-.26327.6563799-.123032 1.3075982-.26241 1.9579563-.400068.4808865-.102383.9634934-.198743 1.4417991-.309729.6770262-.156586 1.3471703-.330379 2.0173144-.504172.4413144-.113567.8869302-.219392 1.3256638-.340702.7398253-.203906 1.4701878-.42846 2.2005502-.653014.3604498-.110126.7252009-.210788 1.0830699-.326076 1.0839301-.349307 2.1592576-.718401 3.2216812-1.113307l.538524-.199603.0223668-.573c.0430131-1.072009.1101136-2.138856.197-3.19796.0292489-.351027.0731223-.696031.1066725-1.045338.068821-.706355.1350612-1.413572.2236681-2.113905.0516201-.414694.1204367-.824225.1797948-1.238059.0894672-.627202.177214-1.255265.2830262-1.876446.0748428-.439644.1634498-.872405.2460349-1.309468.1126944-.588487.2228079-1.178694.3484061-1.763739.0972097-.445666.2064629-.887031.3105546-1.329257.1350612-.566977.269262-1.133954.4172271-1.694909.1169956-.446527.2468952-.889613.3724935-1.334419.1574279-.54805.3148559-1.09696.4843275-1.640708.1402227-.444806.289048-.886171.4361528-1.327536.1789345-.533423.3604498-1.065126.551428-1.593387.1608689-.442225.3303406-.880149.4998122-1.317212.1161354-.300265.2374323-.59795.357869-.897356 4.5851965 4.812856 9.9558122 8.595 15.9810873 11.253514 6.3865852 2.824563 13.4312708 4.278572 20.4312227 4.295779 7.0119956-.030973 14.0687246-1.549509 20.4071356-4.390419z" fill="#fff" fill-rule="evenodd"/></mask><mask id="c" fill="#fff"><path d="m0 .00018126h23.3254286v33.99949084h-23.3254286z" fill="#fff" fill-rule="evenodd"/></mask><mask id="d" fill="#fff"><path d="m0 .00270116h22.7698422v32.99729884h-22.7698422z" fill="#fff" fill-rule="evenodd"/></mask><g fill="none" fill-rule="evenodd" transform="translate(0 1)"><path d="m133.937111 49.7574789c.695217-2.9732005 1.062889-6.0724025 1.062889-9.2574789 0-22.3675324-18.132468-40.5-40.5-40.5-22.3675324 0-40.5 18.1324676-40.5 40.5 0 3.4692781.4362134 6.8366732 1.2567845 10.0503294" stroke="#ff282d" stroke-width="2"/><path d="m257.994129 221.541725c-.650676 2.881722-.994129 5.879889-.994129 8.958275 0 22.367532 18.132468 40.5 40.5 40.5s40.5-18.132468 40.5-40.5c0-2.758313-.275745-5.452222-.801173-8.055666" stroke="#4f2c62" stroke-width="2"/><path d="m75.736607 2.32469369c-12.4264847 2.59828829-24.4211179 7.77937841-34.8148035 15.01414861l.0025808-.0309729-1.5278253 1.1081441c-.0034411.0025811-.0068821.0051622-.0094629.0068829l-.3148559.2297162-.0008603.0068829c-5.2381354 3.832045-10.1175415 8.2267658-14.5031572 13.0757568-4.4707817 4.9462117-8.4271266 10.3768063-11.7597817 16.142081-6.64552397 11.4720451-10.89263751 24.540919-12.28282091 37.7913289-1.40824891 13.0903828.02666812 26.7374188 4.1481834 39.4647298 3.89870743 12.063113 10.33518781 23.433635 18.65650221 33.006865l-.0292489.00086 1.2663056 1.403248c.0017206.001721.0034411.004302.0043014.006022l.2589388.28478h.0060219c8.8787641 9.758207 19.8944192 17.705356 31.8830305 22.993991 12.0754978 5.347139 25.4267642 8.170842 38.628345 8.170842h.2271092c13.3073928-.043018 26.7300608-2.932108 38.8158818-8.354959 6.088935-2.725622 11.904306-6.107699 17.30073-10.061915 1.317921-1.00232 2.62982-2.016685 3.952903-3.064603l.593581-.505032c1.061564-.905959 2.124847-1.811059 3.18469-2.755734l3.530515-3.369171 1.528686-1.528 1.413411-1.414433.049034-.04818 31.049437-31.053847 31.050297 31.053847 3.002315 3.002658 3.539117 3.374333c1.05038.936072 2.123127 1.850635 3.195014 2.764338l.587558.499869c1.299856 1.02727 2.610896 2.041635 3.941721 3.053419 5.382659 3.944752 11.198891 7.326829 17.286965 10.052451 12.085821 5.422851 25.509349 8.311941 38.817603 8.354959h.227109c13.19986 0 26.551987-2.823703 38.625764-8.170842 11.991192-5.288635 23.005127-13.235784 31.884751-22.993991h.006022l.258079-.28478c.00172-.00172.003441-.004301.005161-.006022l1.266306-1.403248-.029249-.00086c8.321314-9.57323 14.757795-20.943752 18.655642-33.006005 3.069415-9.476869 4.648856-19.461351 4.674664-29.3468916v-.4929865c-.008603-3.2272117-.183236-6.4423784-.52562-9.623991-1.390184-13.252991-5.637297-26.3218649-12.282821-37.7930496-3.333516-5.7661351-7.289861-11.1967297-11.759782-16.1429414-4.388197-4.848991-9.265882-9.2445721-14.502297-13.0748964l-.00086-.0068829-.314856-.2297162c-.004302-.0017207-.006882-.0043018-.010323-.0068829l-1.527826-1.1081441.003441.0309729c-10.394545-7.2339099-22.388318-12.41586032-34.815663-15.01414861-6.574983-1.37743693-13.248035-2.07088738-19.839363-2.04593693-6.656707.02667117-13.328039.74679279-19.825598 2.14315765-13.029528 2.78498649-25.573869 8.41002249-36.289293 16.27457659-1.318781 1.0031802-2.629821 2.017545-3.953764 3.0646036l-.563471.4792207c-1.071887.9137027-2.144634 1.8282658-3.2148 2.7815451l-3.530515 3.3691711-13.00114 13.0026262-1.461585 1.4617522-19.579563 19.5809415-21.036847-21.0461352-.004302.0008604-13.010602-13.0112298-3.538258-3.3751936c-1.040057-.9274685-2.10334-1.8325676-3.164904-2.7376667l-.617668-.5256802c-1.298996-1.0272703-2.610895-2.0416351-3.94086-3.0542793-10.70338-7.8550901-23.248581-13.4801261-36.276389-16.26511259-6.50014-1.39636486-13.171471-2.11648648-19.8281788-2.14315765-.1995808 0-.3991616 0-.5978821 0-6.3977686 0-12.8643581.70979729-19.2406201 2.04593693zm169.964546 44.60280181-25.639249-5.1286081 12.177869-12.1801216 3.490083-3.3287343c1.040917-.9283288 2.104201-1.8334279 3.166624-2.7393874l.539385-.4594324c1.290393-1.0212477 2.59369-2.0287297 3.891825-3.0164234 10.508961-7.713991 22.825332-13.2357838 35.619148-15.97086938 6.383145-1.37055406 12.9349-2.07863063 19.472891-2.10272072 6.425297-.0369955 13.021786.65473423 19.479773 2.00808108 12.675961 2.64990991 24.896843 8.03146392 35.368812 15.57338292.047315.5446081.080865 1.0874955.118717 1.6321036.039572.563536.086886 1.1296531.115275 1.6914684.030969.6125766.041292 1.2225721.059358 1.8325676.017205.5523514.043013 1.1064234.048174 1.6561937.006883.6151577-.008602 1.2268739-.014624 1.8394504-.006022.5411667-.001721 1.0849145-.018926 1.6252208-.018065.6194594-.058498 1.2346171-.090327 1.8506351-.028389.5291216-.044734 1.0608243-.082585 1.5873649-.044734.6229009-.111835 1.2415-.170332 1.8618198-.048175.5153558-.086027 1.0332928-.144524 1.5460676-.072262.6401081-.167751 1.2733333-.254638 1.9091396-.0671.4878243-.123017.9782297-.19872 1.4651937-.110114.702054-.244315 1.3972252-.371634 2.0949775-.076563.4138333-.139362.8302477-.222807 1.2423603-.221088 1.1055631-.464542 2.2051036-.732083 3.2977613-1.089092.169491-2.167.360491-3.234586.573-.377655.0748513-.747567.1660495-1.121781.2469234-.686489.1471216-1.374699.2890811-2.050865.4542703-.436153.1058243-.863703.2297162-1.295554.3441441-.605625.1583063-1.21297.3114505-1.810852.4843829-.451638.1307748-.894672.2796171-1.341148.4189955-.567773.1763739-1.138127.3467252-1.699018.5368649-.449917.1522838-.890371.3226351-1.336847.4835225-.544546.1970225-1.093393.3888829-1.631057.5979504-.446476.1746532-.884349.3647928-1.326524.5480496-.523039.2168108-1.05038.4293198-1.567397.6581757-.440454.1961621-.873166.4078108-1.308459.6125765-.504974.2374595-1.013388.4697568-1.50976.7184009-.432711.2159505-.85596.4482478-1.28265.6728018-.405184.2150901-.818109.4181352-1.217271.6409685-5.517721-3.9068964-11.934415-6.7047883-18.595424-8.1045946-3.493524-.733027-7.037803-1.0995405-10.459925-1.084054-3.509869.0180675-7.02576.4000675-10.448743 1.136536-6.835642 1.4660541-13.408043 4.4084865-19.025554 8.5227297l-2.077533 1.6123153-1.993227 1.7233018-1.955376 1.8661217-12.189912 12.1913063zm-180.5053364 7.1375495c-.42669-.224554-.8490786-.4568513-1.2817904-.6728018-.4972314-.2486441-1.0039258-.4809414-1.5097598-.7184009-.4361529-.2047657-.8671441-.4164144-1.3084585-.6125765-.5161572-.2288559-1.0426376-.4405045-1.5665372-.6573153-.4430349-.1832568-.880048-.3742568-1.3273842-.54891-.5376638-.2090675-1.0856507-.4000675-1.6301965-.5979504-.4456158-.1608874-.8869302-.3303784-1.3385677-.4835225-.5600306-.1901397-1.1312446-.360491-1.6990175-.5368649-.4473362-.1393784-.8886507-.2882207-1.3402882-.4189955-.5961616-.1729324-1.2043668-.3252162-1.809131-.4835225-.4327118-.1144279-.860262-.2391802-1.2972751-.3450045-.676166-.1651892-1.3635153-.3071487-2.0482839-.4534099-.3759345-.0808739-.7458471-.1729325-1.1235021-.2477838-1.0684455-.212509-2.147214-.403509-3.2354455-.573-.2684017-1.0926577-.5118559-2.1921982-.7338035-3.2986216-.0782838-.3931847-.1385021-.7906712-.2116244-1.1847163-.1316201-.7175405-.269262-1.4325-.3819563-2.1543423-.0731223-.468036-.1264586-.9403739-.1909782-1.4101306-.0903275-.6538739-.1883974-1.3051667-.2632402-1.9633424-.0567773-.5050315-.0937685-1.0152252-.1419432-1.5236982-.0584978-.6272027-.1264585-1.2526846-.1711922-1.8824684-.0378515-.5265406-.0550567-1.0573829-.0817248-1.5865045-.03269-.6160181-.0739826-1.2320361-.0929083-1.8514955-.0146245-.5377253-.0111834-1.0788919-.0172053-1.6183379-.0068821-.616018-.0215065-1.2294549-.0146244-1.8471937.0051615-.5480495.0309694-1.1004009.0473144-1.6501711.0180655-.6117163.0283886-1.2225721.0593581-1.8368694.0292489-.5643964.0774235-1.1313739.1169956-1.697491.0378515-.5411667.0705415-1.0831937.1178559-1.6269414 10.4728297-7.541919 22.6937118-12.92347301 35.3679519-15.57424328 6.4579869-1.35248649 13.0192053-2.03303153 19.479773-2.00722072 6.5388519.02409009 13.0906069.73216666 19.4737509 2.10358108 12.793817 2.73422522 25.110188 8.25601802 35.607105 15.96140542 1.310179.9962973 2.613476 2.0037793 3.878921 3.0043784l.594441.5067522c1.052961.8964955 2.105922 1.7938514 3.11759 2.695509l3.496105 3.3347568 12.189052 12.1895856-25.634947 5.1294684v.0008604h-.002581l-5.128022 25.6421802-12.204537-12.2050721-1.971721-1.8807477-1.997528-1.7241622-2.061188-1.5968288c-5.599445-4.1004775-12.171847-7.0437703-19.005768-8.508964-3.424703-.7364685-6.9405943-1.1184685-10.4513236-1.136536-.0619388-.0008604-.1221572-.0008604-.1840961-.0008604-3.3859912 0-6.842524.3647928-10.2758296 1.0849144-6.6592883 1.3998063-13.0759826 4.1976982-18.5937031 8.1045946-.3991616-.2228333-.8120873-.4258784-1.218131-.6409685zm301.4925854 103.965086c-.541965-.021509-1.087371-.035275-1.626756-.066248-.644336-.037856-1.28265-.0955-1.923546-.147122-.52562-.041297-1.054681-.073991-1.576-.124752-.648637-.062806-1.287812-.147122-1.931288-.224554-.506694-.061086-1.01855-.112707-1.523524-.182396-.650358-.089478-1.292113-.201325-1.93817-.305428-.488629-.079154-.980699-.147982-1.465887-.235739-.65896-.11873-1.308458-.259829-1.961397-.393185-.462821-.094639-.930803-.178955-1.390183-.281338-.680468-.151423-1.351472-.326937-2.024197-.494707-.423249-.105824-.851659-.200464-1.271467-.314031-.739825-.197023-1.469328-.418996-2.20055-.637527-.344105-.103244-.694232-.194442-1.037476-.301987-1.069306-.336401-2.128289-.69345-3.176088-1.072869-.051615-1.089216-.126458-2.17241-.222807-3.248721-.03097-.345004-.078284-.685707-.114415-1.029851-.074843-.727005-.147965-1.45487-.242594-2.176712-.055917-.418135-.13076-.831108-.192699-1.247523-.096349-.639247-.186677-1.280216-.299371-1.915162-.080004-.446527-.177214-.887031-.264101-1.330977-.117855-.59709-.228829-1.195041-.36131-1.786969-.102371-.457711-.221947-.90854-.332921-1.36195-.138502-.570419-.272703-1.142559-.424969-1.707815-.124738-.460293-.266682-.913703-.400022-1.370554-.16173-.551491-.317437-1.103843-.49121-1.648451-.145384-.458572-.308834-.910261-.464541-1.364531-.183236-.535145-.36131-1.07373-.55831-1.602852-.166891-.45341-.350987-.898216-.527341-1.346464-.172052-.436202-.332061-.876707-.513576-1.309468 4.553366-5.149257 7.936777-11.078861 10.060764-17.632225 2.182484-6.75641 2.937795-13.9455816 2.184205-20.7888879-.738965-6.9680585-2.964463-13.8234099-6.43562-19.8261441-1.748052-3.0276081-3.826445-5.8814234-6.175821-8.4831532-2.06893-2.2859774-4.33486-4.3757928-6.747035-6.2264279.281306-.1514234.560891-.3045676.844777-.4516892.409485-.212509.81897-.425018 1.234476-.6297838.500673-.2469234 1.007367-.4843828 1.517502-.7192612.418948-.1927207.837035-.3880225 1.261145-.5721397.519598-.2271351 1.044358-.4405045 1.570838-.6547342.42669-.1737928.851659-.3484459 1.283511-.5144955.539384-.2056261 1.086511-.3974865 1.632777-.5910676.430131-.1522837.857681-.3088693 1.292114-.4525495.566912-.1884189 1.142428-.3596306 1.717083-.5342838.425829-.129054.848218-.264991 1.278349-.3863018.605625-.1712117 1.222432-.3243559 1.836659-.4809414.407765-.1041036.812948-.2168108 1.225874-.3140316.687349-.1617477 1.385022-.3037072 2.080974-.4482477.350126-.0714099.694231-.1531442 1.046078-.2211126 1.053821-.2013244 2.117105-.3837208 3.190712-.5420271l.567773-.0843153.140223-.5557928c.280445-1.1098648.535083-2.2283333.768214-3.3511036.077423-.3708153.138502-.745072.209904-1.1167477.146244-.7562568.292489-1.5116532.418087-2.2730721.073982-.4508288.13162-.9042387.19872-1.3567883.100651-.6891486.202162-1.3765766.286468-2.0691666.059358-.4861036.103231-.9747883.153987-1.4626127.068821-.6650585.137642-1.3309774.190978-1.9986171.039572-.5076126.06624-1.0160856.09807-1.5236982.040432-.6564549.078283-1.3111892.103231-1.9702252.018926-.5196577.029249-1.0418964.039572-1.5624144.012044-.6521532.022367-1.3051667.019786-1.9599009-.00172-.5282613-.010323-1.0582433-.021506-1.5873649-.013765-.6538739-.033551-1.3077477-.061079-1.9642027-.023227-.5334234-.051616-1.0659865-.084306-1.6002702-.019786-.3183334-.027528-.634946-.049895-.9541397 4.686708 3.5472658 9.063721 7.5599865 13.03555 11.9486847 4.388197 4.8558739 8.27314 10.187527 11.546437 15.8504189 6.525087 11.2646982 10.695638 24.0961126 12.060873 37.1125045 1.383302 12.8520631-.025807 26.2521761-4.074201 38.7523511-3.97527 12.299712-10.633698 23.871559-19.265567 33.489527-.577236-.013765-1.15017-.040437-1.723965-.063666zm-360.3775199-33.425861c-4.04839302-12.499315-5.45664192-25.8994277-4.07420088-38.7532114 1.36523581-13.0146712 5.53578603-25.846946 12.06087338-37.1125045 3.2724367-5.6611712 7.1573799-10.9928244 11.5464367-15.8495586 3.9692489-4.3878378 8.3488428-8.4005586 13.0355502-11.9486847-.0232271.317473-.0309694.6332252-.0498952.9498378-.03269.5368649-.0610786 1.0728694-.0843057 1.6088739-.0283886.6538739-.0473144 1.3051667-.0610786 1.9573198-.0111834.5308424-.0206463 1.0608244-.0223668 1.589946-.0017205.6547342.0077424 1.3068874.0206463 1.9590405.0103231.5213784.0189257 1.0436171.039572 1.5641352.0240874.6581756.0627992 1.3129099.1023712 1.9693648.0309694.5076126.0593581 1.0160856.0997904 1.5236982.052476.6676397.121297 1.3335586.1901179 1.9986171.0507555.4878244.0946288.9765091.1531267 1.4626127.0843056.69259.1866768 1.3817387.2881877 2.0717477.0653799.4516892.1238778.9042387.1978603 1.3533469.1238777.7596981.2701223 1.5133738.4163668 2.2670495.0714017.3742568.1333406.751955.2107642 1.124491.233131 1.1227703.4886288 2.2403784.7690742 3.3502432l.1402227.5557928.567773.0843153c1.0744672.1583063 2.1368908.3407027 3.1907117.5420271.3518472.0679684.6968123.1497027 1.0460787.2211126.6959519.1445405 1.3936244.2865 2.0809738.4482477.4120655.0972208.8181091.209928 1.2275938.3140316.6142271.1565855 1.2284542.3097297 1.8349389.4809414.430131.1213108.8533799.2572478 1.2792096.3863018.5737948.1746532 1.1493101.3458649 1.7153625.5342838.4352925.1436802.8628427.3002658 1.2929738.4525495.5471266.1935811 1.093393.3854415 1.6327772.5910676.4318516.1660496.8576813.3415631 1.2852315.5153559.5247598.2133693 1.0503799.4267387 1.5682576.6530135.4249695.1849775.8439171.3802793 1.2637249.5738603.5084149.2348784 1.0159695.4714775 1.5166419.7184009.4137861.2047658.824131.4172748 1.2336158.6297838.2838864.1471216.5643318.3002658.8447773.4516892-2.4121747 1.8506351-4.6781048 3.9404505-6.7478952 6.2272883-2.3485153 2.600009-4.4260481 5.4538243-6.1749607 8.4814324-3.4711572 6.0035946-5.6975153 12.858946-6.4356201 19.8227027-.7535895 6.8476081.0008602 14.0367797 2.1850655 20.7931897 2.1222663 6.553364 5.5056768 12.482968 10.0590436 17.632225-.180655.433621-.341524.874986-.5127161 1.311189-.177214.447387-.3595895.891333-.5264804 1.343022-.1987205.535145-.3793755 1.078892-.5651921 1.620059-.1531266.448248-.3131354.892194-.4576594 1.344743-.177214.554072-.3355022 1.116748-.4998122 1.677703-.1298996.446527-.269262.890473-.390559 1.341302-.1565677.575581-.2924891 1.158905-.433572 1.740509-.108393.442225-.2253887.88273-.3251791 1.330117-.1350611.602252-.2477554 1.211387-.3673318 1.818802-.0860262.433621-.1815153.862941-.2589389 1.300004-.1144149.64355-.2056026 1.293982-.3028122 1.942694-.0610786.407811-.1342009.81132-.1883974 1.220851-.0963494.724424-.1686114 1.45573-.2443144 2.186176-.036131.341563-.0825852.679685-.1135546 1.022108-.0963494 1.076311-.1720524 2.159505-.2228079 3.248721-1.0486594.379419-2.1076419.736468-3.1769476 1.072869-.3423842.107545-.6925109.198743-1.0383362.301987-.7295022.218531-1.4590044.440504-2.19969.637527-.4198078.113567-.847358.208207-1.270607.314031-.6735851.16777-1.3445895.343284-2.0241965.494707-.4602401.102383-.9273624.186699-1.3901834.281338-.6529388.133356-1.3032969.274455-1.9622576.393185-.4843275.087757-.9772577.155725-1.4650262.235739-.6443363.103243-1.286952.21595-1.9381703.305428-.5049738.069689-1.0159694.12131-1.5243843.182396-.6426157.077432-1.2826507.160887-1.9304279.224554-.5230393.050761-1.0512402.083455-1.5768603.124752-.6400349.051622-1.2774891.109266-1.9235459.147122-.538524.030973-1.0830698.044739-1.6258952.066248-.5737947.023229-1.1467292.049901-1.723965.063666-8.631869-9.617968-15.2911572-21.189815-19.2655677-33.489527zm138.3112049-50.5719817.484328-2.4270766 4.645415-23.215964 25.640969-5.1286081 20.383908 20.3922613-30.76641 30.7699279zm53.587441-10.3793874 20.389931-20.3914009 25.640109 5.1277477 5.127161 25.6430406-20.385629 20.3888198-.00086-.0008604-33.203533 33.2056083.000861.001721-30.23907 30.242527-5.128022-25.642181-25.639249-5.128608 30.23907-30.2425267.003441.0025811zm-122.4772223 76.2391131c-6.2171136-2.741969-11.7124673-6.724577-16.3329345-11.835978-4.5748734-5.0615-7.9617249-10.922275-10.0659258-17.417995-2.1085022-6.525834-2.8388646-13.4672212-2.1102227-20.0782302.7131572-6.7288784 2.8620917-13.3502117 6.2136725-19.1464594 1.6886943-2.9226442 3.6948253-5.6792388 5.962476-8.18891 2.2986201-2.5397837 4.8484367-4.830063 7.5763275-6.80459l.0025808-.0017208c5.4230917-3.9327072 11.7795677-6.7443648 18.3829388-8.1329865 3.3765284-.7080765 6.7392926-1.0737297 10.0986158-1.0470585 3.3920131.0172072 6.7891879.3863018 10.0968949 1.0969594 6.59993 1.4170136 12.945223 4.2579235 18.332184 8.2018154l2.006991 1.5546711 1.930428 1.6656577 1.926127 1.8377297 14.463585 14.4652388v-.0008604l19.577842 19.5800811-31.050296 31.0547076-1.462446 1.462612-1.514061 1.513374-1.908921 1.824824-1.926987 1.665658-2.023337 1.568437c-2.721008 1.990014-5.659663 3.696968-8.73596 5.072685-6.122485 2.743689-12.938341 4.208883-19.7094632 4.239856h-.0972096c-6.7074628 0-13.4940698-1.433361-19.6328995-4.149518zm154.4652053-44.2543563 19.783445-19.7865676 14.240778-14.2415451 1.908921-1.8231036 1.926987-1.666518 2.023336-1.5692973c5.404166-3.9576576 11.750319-6.7985675 18.351109-8.2155811 3.307708-.7106576 6.704022-1.0797522 10.095175-1.0978665 3.326633-.0206019 6.722948.3407494 10.099476 1.0479656 6.604231 1.3886217 12.961568 4.2002793 18.382939 8.1329865l.004301.0017208c2.727891 1.974527 5.275987 4.2648063 7.575467 6.80459 2.268511 2.5105316 4.273782 5.2662658 5.961616 8.18891 3.352441 5.7962477 5.501376 12.4167207 6.215393 19.1499009.726922 6.6075675-.003441 13.5489547-2.111083 20.0739277-2.104201 6.49314-5.488471 12.350473-10.059043 17.411113l-.006883.007743c-4.621327 5.112261-10.116681 9.094009-16.332934 11.835978-6.13883 2.716157-12.925437 4.149518-19.631179 4.149518h-.09721c-6.773703-.030973-13.589559-1.496167-19.712043-4.240717-3.075437-1.374856-6.014952-3.08181-8.716175-5.057198l-2.007852-1.554671-1.929567-1.666518-1.926987-1.836869-2.990271-2.991473h-.00086zm-31.987122 31.9899193 30.770711-30.7733698 30.234769 30.2442478-17.948507 3.592004-7.689021 1.537464v.000861h-.003441l-2.899083 14.512558-2.225498 11.128762zm100.20934 61.650842c-13.0691-.042158-26.250035-2.878766-38.11907-8.203536-5.97796-2.677442-11.68838-5.997572-16.961786-9.86059-1.309318-.996298-2.612615-2.003779-3.878921-3.005239l-.563472-.480081c-1.062423-.905099-2.125707-1.810198-3.147698-2.72132l-3.497826-3.334757-2.337332-2.338459 2.886179-14.442869 2.240123-11.201032 10.037537-2.008081 15.601712-3.120527 2.354537 2.354806 1.972581 1.879888 1.996668 1.723301 2.062048 1.59855c2.818218 2.060563 5.862685 3.828604 9.048236 5.25336 6.33927 2.84091 13.396 4.359446 20.408855 4.390419 6.999952-.00172 14.043778-1.471216 20.429503-4.295779 6.025275-2.658514 11.39589-6.440658 15.981087-11.253514.121297.300266.243454.597951.359589.899077.169472.437063.338083.874126.498092 1.314631.191839.528261.372494 1.059964.551428 1.594247.148825.441365.297651.883591.437013 1.330118.169472.542027.3269 1.089216.482607 1.637265.127319.444807.256358.888753.375074 1.337.147966.559235.281306 1.125352.414647 1.690608.104952.443946.215926.887032.311415 1.333559.126458.583324.236572 1.171811.347545 1.759437.083446.437063.172913.872405.247756 1.31291.105812.618599.192699 1.24236.282166 1.865261.059358.418135.127319.831969.180655 1.250964.087747.696892.154847 1.399806.222808 2.102721.03355.352748.078284.701193.107532 1.053941.087747 1.059964.153987 2.125951.19614 3.19796l.023227.573.537664.199603c1.063284.394906 2.138611.764 3.223402 1.113307.356148.115288.720039.21509 1.077908.325216.732083.225414 1.464166.449968 2.204852.653874.437873.12131.883489.227135 1.324803.340702.670144.173793 1.340288.347586 2.018175.504172.477445.110986.960912.207346 1.441799.309729.651218.137658 1.301576.277036 1.957956.400068.502393.0955 1.009088.178094 1.514061.26327.645197.109266 1.289533.217671 1.939031.312311.521319.075712 1.046079.14282 1.570838.209067.642616.081735 1.286952.161748 1.933869.229717.535083.056783 1.073607.104964 1.611271.152283.646057.055924 1.292114.107546 1.941611.149703.547987.036996 1.095974.067108 1.646542.092919.319157.015487.634873.042158.954031.054203-8.53638 9.081964-18.9748 16.486225-30.296708 21.478896-11.857851 5.2525-24.989751 8.024581-37.930672 8.024581-.073983 0-.147105 0-.221088-.00086zm-182.545017-47.906586c3.18641-1.424756 6.230878-3.192797 9.068022-5.267986l2.078393-1.612315 1.993227-1.723302 1.954515-1.866982 2.339913-2.33932 25.640109 5.127748 5.128022 25.64304-2.327869 2.328135-3.490083 3.329595c-1.030594.918865-2.083555 1.816221-3.136516 2.712716l-.570353.486104c-1.289533 1.021248-2.59283 2.028729-3.890105 3.015563-5.28545 3.872482-10.995869 7.192612-16.97383 9.870054-11.869035 5.32477-25.049969 8.161378-38.1182094 8.203536-.0748428 0-.1479651.00086-.2228079.00086-12.9624279 0-26.0736812-2.772941-37.932393-8.024581-11.321048-4.992671-21.7577467-12.396932-30.2949869-21.478896.3208778-.012045.6357336-.038716.9548909-.054203.5505676-.025811 1.0985545-.055923 1.6448209-.092919.6503581-.042157 1.2981354-.093779 1.9424716-.149703.538524-.047319 1.0770481-.0955 1.6112708-.152283.6477773-.067969 1.2921135-.147122 1.9347292-.229717.5247599-.066247 1.0495197-.133355 1.5699782-.209067.6503581-.09464 1.2955546-.203045 1.9381703-.312311.5058341-.085176 1.0133886-.16777 1.5157817-.26327.6563799-.123032 1.3075982-.26241 1.9579563-.400068.4808865-.102383.9634934-.198743 1.4417991-.309729.6770262-.156586 1.3471703-.330379 2.0173144-.504172.4413144-.113567.8869302-.219392 1.3256638-.340702.7398253-.203906 1.4701878-.42846 2.2005502-.653014.3604498-.110126.7252009-.210788 1.0830699-.326076 1.0839301-.349307 2.1592576-.718401 3.2216812-1.113307l.538524-.199603.0223668-.573c.0430131-1.072009.1101136-2.138856.197-3.19796.0292489-.351027.0731223-.696031.1066725-1.045338.068821-.706355.1350612-1.413572.2236681-2.113905.0516201-.414694.1204367-.824225.1797948-1.238059.0894672-.627202.177214-1.255265.2830262-1.876446.0748428-.439644.1634498-.872405.2460349-1.309468.1126944-.588487.2228079-1.178694.3484061-1.763739.0972097-.445666.2064629-.887031.3105546-1.329257.1350612-.566977.269262-1.133954.4172271-1.694909.1169956-.446527.2468952-.889613.3724935-1.334419.1574279-.54805.3148559-1.09696.4843275-1.640708.1402227-.444806.289048-.886171.4361528-1.327536.1789345-.533423.3604498-1.065126.551428-1.593387.1608689-.442225.3303406-.880149.4998122-1.317212.1161354-.300265.2374323-.59795.357869-.897356 4.5851965 4.812856 9.9558122 8.595 15.9810873 11.253514 6.3865852 2.824563 13.4312708 4.278572 20.4312227 4.295779 7.0119956-.030973 14.0687246-1.549509 20.4071356-4.390419z" fill="url(#a)" mask="url(#b)" transform="translate(0 40.419214)"/><ellipse cx="94.5" cy="41" fill="#f2f5f7" rx="30.5" ry="30"/><g transform="translate(83 22)"><path d="m17.864974 7.57329685c.0233379.42988668.0400077.85977336.072514 1.28883014.0991857 1.33364461-.1800346 1.69713951-1.4119382 1.82162401-1.1827274.1203351-1.5486311-.2024948-1.7319997-1.54526829-.1750336-1.28219096-.2733859-2.57932007-.5309354-3.84491308-.3350644-1.64900546-1.104379-2.33864992-2.3146117-2.28221692-1.8070141.08547939-3.28563177 1.17513424-3.46566638 2.66728915-.14919536 1.23654662-.195871 2.4872015-.23837917 3.73287698-.04667564 1.33945386-.26838494 1.58261366-1.6269795 1.58848116-1.27191123.0049212-1.63698143-.30795-1.61614409-1.62333683.02167084-1.34111365.04167468-2.70131494.26838494-4.01753168.49009424-2.85650568 2.86805147-5.5055371 6.178688-5.35283604.5776111.0265567 1.1552222.06805156 1.7311662.112866 2.3762903.18174746 3.6090273 1.185093 4.3133294 3.74698523.3267295 1.1867528.3484003 2.4573252.5075976 3.69055223-.0450087.00497938-.0900173.01078866-.135026.01659794" fill="#ff282d"/><path d="m16.1453143 9.632455c0-1.35235.0222857-2.6367-.0102857-3.91935-.0137143-.54825-.0608572-1.12115-.24-1.63285-.1731429-.4981-.4422857-1.0336-.8271429-1.37785-1.512-1.3498-3.294-1.4144-5.12142856-.79135-1.53771428.52445-2.34685714 1.75695-2.39314285 3.38215-.02228572.77095-.10114286 1.54105-.16028572 2.312-.04971428.6528-.11485714 1.30645.15771429 2.02725zm-10.14600001-.00765c0-1.17895-.05485715-2.31965.018-3.4527.05571428-.8755.21085714-1.75525.42771428-2.6061.43028572-1.68725 1.56771429-2.7064 3.23742857-3.2011 2.48399996-.73695 4.70914286-.41225 6.58199996 1.48155 1.002 1.01405 1.32 2.29585 1.3654286 3.64905.0454286 1.36255.0102857 2.72765.0102857 4.1667.7988572.08415 1.7134286.16915 2.6254286.27965 1.4134286.1717 2.2748571.85595 2.5817143 2.2151.2005714.8874.2588571 1.81305.3068571 2.7251.09 1.69405.1817143 3.39235.1705715 5.08895-.0197143 3.1348-.1122858 6.2696-.1791429 9.4044-.0102857.48025-.0694286.9605-.0591429 1.4399.0222858 1.04125-.4688571 1.8513-1.1785714 2.53555-.5005714.4811-1.1477143.6018-1.8557143.62135-4.1837143.11985-8.3485714-.1768-12.5185714-.42075-1.56257143-.09095-3.11228571-.21165-4.65342857-.46835-1.46828572-.24395-2.86542857-1.4025-2.79514286-3.43145.05057143-1.4739-.11485714-2.9546-.08057143-4.42935.06942857-2.92315.21171429-5.84375.32142857-8.7652.048-1.25375.11228572-2.50665.13285715-3.7604.02485714-1.50365.67371428-2.32305 2.19942857-2.5959 1.092-.1955 2.19685714-.3162 3.34114286-.476z" fill="#ff282d" mask="url(#c)"/><path d="m9.17223659 28c-.48979853-.5596162-.82962335-.9430092-1.16337987-1.3298407-.80188254-.9309744-1.60203129-1.8628084-2.40131313-2.7963617-.15344131-.1788021-.32335372-.3507272-.43951833-.5518796-.23319611-.4023047-.24619961-.7934343.10489491-1.1656522.37276702-.3945681.78887904-.3644812 1.14430806-.0653315.57475473.4848288 1.11916797 1.0126388 1.62977209 1.5645184.47506123.5140561.88943945 1.0848474 1.33675988 1.6393058 2.6327754-2.5668417 5.1979327-5.0726501 7.7700251-7.5715814.2678721-.2596069.5400788-.5733702.8712346-.6919985.2461996-.0876818.6623116.0197714.8703676.195135.138704.116909.1274343.5372659.0364098.764207-.1178984.2948516-.3614973.5527392-.5851575.7934344-2.5105425 2.6966452-5.0167506 5.3993078-7.5559008 8.068445-.4048423.424655-.97179498.6971562-1.61850241 1.1476" fill="#f2f5f7"/></g><ellipse cx="297.5" cy="231" fill="#f2f5f7" rx="30.5" ry="30"/><g transform="translate(287 213)"><path d="m5.00062158 7.78201938c-.02203724-2.15757776.54160764-4.12880044 1.73755189-5.95673676.51363729-.78517609 1.2179815-1.24071074 2.05878709-1.49166892 2.61141334-.77855013 5.03635774-.16979019 6.95105514 1.56869569.9764194.88622196 1.5917671 2.31245954 1.9816568 3.60617795.3610717 1.20178324.2288483 2.55016581.2695324 3.83643001.0237324.77358065-.4865145 1.21917635-1.1679739 1.49084065-.9001366.3578018-1.6909347-.037271-1.8774036-.96490518-.0754352-.36939719-.0322083-.76198524-.0457697-1.1438061-.0254276-.71560353-.0084759-1.43534828-.0873014-2.14515409-.2432573-2.21058543-2.087605-3.36018924-4.2794632-2.79698276-1.23239042.31638952-1.57057735 1.25064968-1.75958909 2.22466559-.22461037 1.16368397-.29326485 2.36132598-.35090072 3.54902906-.05848346 1.21255038-.16612691 1.35997798-1.44937255 1.40635968-.19494485.0074542-.38904211.0380993-.58313937.0347863-.85860491-.0140802-1.12898494-.2136872-1.24764702-1.07174879-.09916759-.70897757-.10340552-1.43037881-.15002277-2.14598233" fill="#ff282d"/><path d="m15.9584222 10.1079846c-.1167037-2.05361537-.1882592-3.91769229-.3526666-5.77330768-.0383334-.4416923-.3364815-.89184615-.6048149-1.276-1.5716666-2.24823077-6.00470366-2.26684615-7.34466663.89861539-.76581481 1.80907692-.40122222 3.66892307-.45659259 5.59984615 2.93548152.18446154 5.74148152.36046154 8.75874072.55084614m-10.1975185-.67607691c.07581482-1.61446154.16014815-3.15615384.21637037-4.70038461.09114815-2.50038462 2.71825926-4.82476923 4.75418523-4.72576923 1.2931111.06261538 2.5947407-.09138462 3.7881851.62107692 1.6457778.98238461 2.5904815 2.34892308 2.6373334 4.29676923.0264074 1.06784615.1507778 2.13315385.1805926 3.20015385.017037.61092307-.0672963 1.22523077-.1098889 1.90553845.7828518.1083077 1.5128889.2022308 2.2395185.3096923 1.9507407.2910769 3.0138519 1.4680769 3.1067037 3.3854616.0255556.5466153.1976296 1.0898461.1959385 1.633923-.0068274 2.4631539-.0579385 4.9271539-.0800866 7.3911539-.0110741 1.2116923.0323703 2.4250769.0051111 3.6359231-.0306667 1.3208461-.046 2.6484615-.1925186 3.9591538-.1788888 1.6026154-1.5307777 2.7093846-3.1348148 2.6535385-3.5547777-.1243847-7.1095555-.275-10.66518515-.4078462-1.81359259-.0668461-3.63144445-.1929231-5.44418519-.1523077-2.07511111.0448462-3.27792592-1.6525384-3.13055555-3.4277692.10903703-1.3081539-.12437037-2.6408462-.12692593-3.9633846-.00596296-3.2043846.02725926-6.4096154.06048148-9.6148462.00851852-.7649231.05281482-1.5332308.12777778-2.2956154.19422222-1.9926923 1.65685185-3.42523074 3.66381482-3.59869228.4404074-.03807692.88762963-.0016923 1.33144444-.01861538.207-.00846154.4122963-.06176923.5767037-.08715385" fill="#ff282d" mask="url(#d)"/><path d="m9.49218079 24.3536051c2.11083221-2.1897645 4.16279321-4.3252933 6.22499261-6.4515004.2986222-.3084653.6057764-.6601496.9837468-.8220091.2917965-.1262674.765326-.1008444 1.0383519.0593202.4061262.2389759.2789985.6737085.0170642.9999699-.6893907.8584487-1.3779281 1.7194396-2.101447 2.5499231-1.5716058 1.8041829-3.165395 3.5897222-4.7506522 5.3820411-.190265.2152477-.3540806.4677825-.5818867.6330317-.51789613.3788022-1.01019612.4381224-1.53321154-.086438-1.01360899-1.0152237-2.08011677-1.9804488-3.11932195-2.9702495-.20818232-.1974516-.49229999-.3855815-.56908855-.6313368-.10323795-.3245665-.15528353-.7592992-.01621092-1.0431889.20903553-.4271058.6851246-.5448989 1.11855336-.2788052.52813465.3237191 1.03835197.6830303 1.51614746 1.0762387.62028092.5101542 1.20046116 1.0686119 1.77296253 1.5830032" fill="#f2f5f7"/></g></g></svg>