<svg viewBox="0 0 267.15 374.75" xmlns="http://www.w3.org/2000/svg"><g fill="none" stroke-miterlimit="10"><path d="m266.65 346.73v-53.34a27.52 27.52 0 0 0 -27.53-27.52h-85.59a14.2 14.2 0 0 1 -14.2-14.2v-230.13a21 21 0 0 0 -21-21h-96.79a21 21 0 0 0 -21 21v223.29a21.05 21.05 0 0 0 21 21h103.59a14.2 14.2 0 0 1 14.2 14.2v66.67a27.53 27.53 0 0 0 27.53 27.52h72.26a27.52 27.52 0 0 0 27.53-27.49z" stroke="#af3354"/><rect height="147.72" rx="31.05" stroke="#04b2e1" stroke-width="3" transform="matrix(0 1 -1 0 307.97 104.67)" width="246.94" x="-21.82" y="132.45"/></g></svg>