<svg width="48" height="48" viewBox="0 0 48 48" fill="none" xmlns="http://www.w3.org/2000/svg"><mask id="mask-b1428c86-b10f-4dc2-9ad9-d40cf613f5f2" mask-type="alpha" maskUnits="userSpaceOnUse" x="8" y="4" width="33" height="40"><path d="M8.00003 9.56158C8.00001 8.64383 8.62461 7.84385 9.51496 7.62126L23.5149 4.12127C23.8334 4.04165 24.1666 4.04165 24.4851 4.12127L38.4851 7.62128C39.3754 7.84386 40 8.6438 40 9.56152L40.0003 20.5009C40.0003 36.2871 27.6927 42.4586 24.6662 43.7376C24.2383 43.9184 23.7649 43.9121 23.3414 43.7211C20.3281 42.3616 8.00003 35.8613 8.00025 20.5009L8.00003 9.56158Z" fill="#C4C4C4"></path></mask><g mask="url(#mask-b1428c86-b10f-4dc2-9ad9-d40cf613f5f2)"><path d="M47 -3L26.5 -3L6 -3L6 46L47 46L47 -3Z" fill="#F1DEFA"></path><path d="M8 8L24 4L40 8L40.0003 12.5009L24.0003 8.50089L8.00025 12.5009L8 8Z" fill="#F1DEFA"></path></g><path d="M30.2857 21.5484H26.2857V22.6913H29.0286C28.6286 24.4056 27.3715 25.8341 25.7143 26.4056L19.1429 19.8341C19.8286 17.8341 21.7715 16.4056 24 16.4056C25.7143 16.4056 27.2572 17.2627 28.2286 18.577L29.0857 17.8341C27.9429 16.2913 26.1143 15.2627 24 15.2627C21.0286 15.2627 18.5143 17.377 17.8857 20.177L25.4286 27.7198C28.1715 27.0341 30.2857 24.5198 30.2857 21.5484Z" fill="white"></path><path d="M17.7139 21.6064C17.7139 23.2064 18.3424 24.7493 19.5424 25.9493C20.7424 27.1493 22.3424 27.7779 23.8853 27.7779L17.7139 21.6064Z" fill="white"></path><path d="M24 13.5488C19.6 13.5488 16 17.1488 16 21.5488C16 25.9488 19.6 29.5488 24 29.5488C28.4 29.5488 32 25.9488 32 21.5488C32 17.1488 28.4 13.5488 24 13.5488ZM19.5429 26.006C18.3429 24.806 17.7143 23.206 17.7143 21.6631L23.9429 27.8345C22.3429 27.7774 20.7429 27.206 19.5429 26.006ZM25.3714 27.6631L17.8857 20.1774C18.5143 17.3774 21.0286 15.2631 24 15.2631C26.1143 15.2631 27.9429 16.2917 29.0857 17.8345L28.2286 18.5774C27.2571 17.2631 25.7143 16.406 24 16.406C21.7714 16.406 19.8857 17.8345 19.1429 19.8345L25.7143 26.406C27.3714 25.8345 28.6286 24.406 29.0286 22.6917H26.2857V21.5488H30.2857C30.2857 24.5203 28.1714 27.0345 25.3714 27.6631Z" fill="#663399"></path><path d="M40.3646 39.9671L41.6348 37.1836L44.4183 35.9135C45.588 35.3797 45.588 33.718 44.4183 33.1842L41.6348 31.9141L40.3646 29.1306C39.8309 27.9608 38.1691 27.9608 37.6354 29.1306L36.3652 31.9141L33.5817 33.1842C32.412 33.7179 32.412 35.3797 33.5817 35.9135L36.3652 37.1836L37.6354 39.9671C38.1691 41.1368 39.8309 41.1368 40.3646 39.9671Z" fill="#F67300" stroke="white" stroke-width="2"></path><path d="M5.99189 10.5569L4.0833 9.68603C3.10852 9.24123 3.10852 7.85643 4.0833 7.41163L5.99189 6.54072L6.8628 4.63213M5.99189 10.5569L6.8628 4.63213M5.99189 10.5569L6.8628 12.4655C7.3076 13.4403 8.6924 13.4403 9.1372 12.4655L10.0081 10.5569L11.9167 9.68603C12.8915 9.24123 12.8915 7.85643 11.9167 7.41163L10.0081 6.54072L9.1372 4.63213C8.6924 3.65735 7.3076 3.65735 6.8628 4.63213M5.99189 10.5569L6.8628 4.63213" fill="#663399" stroke="white" stroke-width="2"></path></svg>
