<svg width="48" height="48" viewBox="0 0 48 48" fill="none" xmlns="http://www.w3.org/2000/svg">
<path fill-rule="evenodd" clip-rule="evenodd" d="M3.48964 25.1885C3.74599 26.2644 4.90466 26.7974 5.96526 26.4837C10.1324 25.2511 15.3448 24.5186 21.0004 24.5186C26.6557 24.5186 31.8678 25.251 36.0349 26.4834C37.0954 26.7971 38.2541 26.2641 38.5104 25.1882C38.8305 23.8446 39 22.4426 39 21.001C39 11.0598 30.9411 3.00098 21 3.00098C11.0589 3.00098 3 11.0598 3 21.001C3 22.4427 3.16949 23.8448 3.48964 25.1885Z" fill="#DBF0FF"/>
<path d="M29.6472 42.8266C28.8785 44.9798 31.5482 46.9317 33.3242 45.2172L45.0556 33.892C46.2587 32.7305 45.811 30.7264 44.2684 30.154L40.8561 28.8877L43.335 21.9435C44.1002 19.7998 41.458 17.8517 39.6753 19.5364L27.7019 30.8517C26.4785 32.0078 26.92 34.0303 28.4718 34.6062L32.1009 35.953L29.6472 42.8266ZM40.1704 28.6332C40.1707 28.6333 40.171 28.6334 40.1713 28.6335L40.1704 28.6332Z" fill="#3FA9F5" stroke="white" stroke-width="3"/>
<rect x="15.4985" y="30.9207" width="11" height="4" rx="2" fill="#DBF0FF"/>
<path d="M18.1542 25.1241C18.9825 26.5587 20.8172 27.0502 22.2521 26.2218C23.687 25.3933 24.1787 23.5587 23.3504 22.1241C22.5221 20.6894 20.6874 20.1979 19.2525 21.0264C17.8176 21.8548 17.3259 23.6894 18.1542 25.1241Z" fill="#663399"/>
<path d="M34.201 15.1392C34.47 15.0347 34.7749 15.142 34.9192 15.3919C35.0628 15.6407 35.0045 15.9569 34.7817 16.1381L22.6851 25.9729L19.6851 20.7768L34.201 15.1392Z" fill="#663399"/>
</svg>
